<svg width="14" height="10" viewBox="0 0 14 10" fill="none" xmlns="http://www.w3.org/2000/svg">
<path d="M4.78023 7.81737L12.4408 0.267261C12.6216 0.089087 12.8364 0 13.0853 0C13.3341 0 13.5487 0.089087 13.7288 0.267261C13.9096 0.445434 14 0.657164 14 0.90245C14 1.14774 13.9096 1.35917 13.7288 1.53675L5.41296 9.73274C5.23218 9.91091 5.02127 10 4.78023 10C4.53919 10 4.32828 9.91091 4.1475 9.73274L0.26074 5.902C0.0799604 5.72383 -0.00681401 5.5121 0.000417184 5.26681C0.00764837 5.02153 0.101955 4.8101 0.283337 4.63252C0.464117 4.45434 0.678944 4.36526 0.927817 4.36526C1.17669 4.36526 1.39122 4.45434 1.57139 4.63252L4.78023 7.81737Z" fill="white"/>
</svg>
