<svg width="25" height="24" viewBox="0 0 25 24" fill="none" xmlns="http://www.w3.org/2000/svg">
<g id="Component 2" clip-path="url(#clip0_584_180)">
<path id="Vector" d="M18.0002 0.917236C16.8742 0.934751 15.7727 1.24909 14.807 1.82851C13.8413 2.40793 13.0456 3.23191 12.5002 4.21724C11.9548 3.23191 11.1591 2.40793 10.1934 1.82851C9.22774 1.24909 8.12625 0.934751 7.0002 0.917236C5.20514 0.995227 3.51391 1.78049 2.29599 3.10147C1.07806 4.42245 0.432452 6.17176 0.500202 7.96724C0.500202 14.7422 11.4562 22.5672 11.9222 22.8992L12.5002 23.3082L13.0782 22.8992C13.5442 22.5692 24.5002 14.7422 24.5002 7.96724C24.568 6.17176 23.9223 4.42245 22.7044 3.10147C21.4865 1.78049 19.7953 0.995227 18.0002 0.917236Z" fill="#3C3C3C"/>
</g>
<defs>
<clipPath id="clip0_584_180">
<rect width="24" height="24" fill="white" transform="translate(0.5)"/>
</clipPath>
</defs>
</svg>
