<svg width="60" height="60" viewBox="0 0 60 60" fill="none" xmlns="http://www.w3.org/2000/svg">
<g id="free-icon-diagnostic-12199383 1 - traced">
<path id="Vector" d="M3.49742 4H24.7912L25.8428 4.9201L27.0258 6.23454L28.9974 8.20619L29.9175 9.25773L32.0206 11.3608L32.9407 12.4124L33.3351 12.9381V15.8299L35.0438 15.9613L37.0155 16.4871L37.6727 16.3557L41.8789 12.1495L42.799 11.0979L43.982 9.91495L44.2448 9.7835H51.6057L51.7371 8.99484L52.5258 7.81186L53.4459 7.0232L54.7603 6.49742H56.6005L57.915 7.0232L58.9665 7.9433L59.6237 8.8634L59.8866 9.65206V11.7552L59.3608 12.9381L58.4407 13.9897L57.3892 14.6469L56.6005 14.9098H54.8918L53.4459 14.384L52.3943 13.4639L51.7371 12.2809L51.6057 11.6237L45.0335 11.7552L44.1134 12.6753L43.1933 13.7268L39.5129 17.4072L39.3814 17.6701L40.0387 17.933L41.616 19.116L42.9304 20.299L43.3247 20.8247L50.1598 20.9562L51.6057 21.0876L51.7371 20.4304L52.3943 19.2474L53.4459 18.3273L54.8918 17.8015H56.6005L57.915 18.3273L58.9665 19.2474L59.6237 20.1675L59.8866 20.9562V23.0593L59.3608 24.2423L58.4407 25.2938L57.7835 25.8196L56.6005 26.2139H54.7603L53.4459 25.6881L52.2629 24.6366L51.6057 23.3222V22.9278L44.9021 23.0593L45.8222 25.1624L46.4794 27.6598L46.6108 28.8428V31.2088L46.4794 32.2603L51.6057 32.3918L51.7371 31.7345L52.3943 30.5515L53.4459 29.6314L54.8918 29.1057H56.6005L57.915 29.6314L58.9665 30.5515L59.6237 31.4716L59.8866 32.2603V34.3634L59.3608 35.5464L58.7036 36.4665L57.5206 37.2552L56.6005 37.518H54.7603L53.4459 36.9923L52.2629 35.9407L51.6057 34.6263V34.232H45.9536L45.5593 35.5464L44.3763 37.7809L44.2448 38.3067L47.0052 41.067L47.5309 40.8041L48.1881 40.5412L49.3711 40.6727L50.4227 41.4613L56.8634 47.9021L57.3892 48.8222V49.8737L56.9949 50.6624L52.9201 54.7371L52.2629 55H51.3428L50.5541 54.6057L43.1933 47.2448L42.9304 46.4562L43.0619 45.4046L43.5876 44.616L40.6959 41.7242L39.25 42.5129L37.5412 43.3015L35.3067 43.9588L34.518 44.0902H33.3351V48.6907L32.8093 49.8737L32.1521 50.6624L31.1005 51.1881H3.10309L2.05155 50.5309L1.39433 49.7423L1 48.8222V6.49742L1.52577 5.31443L2.18299 4.65722L2.97165 4.13144L3.49742 4ZM3.62887 5.97165L2.97165 6.76031L2.84021 7.15464V48.1649L3.23454 48.9536L3.76031 49.3479H30.5747L31.232 48.6907L31.4948 47.9021V44.0902L29.5232 43.8273L27.5515 43.3015L25.8428 42.5129L24.2655 41.5928L22.951 40.5412L21.5052 39.0954L20.3222 37.3866L19.2706 35.2835L18.6134 33.1804L18.3505 31.6031V28.4485L18.8763 25.8196L19.5335 24.1108L20.5851 22.1392L22.0309 20.299L22.951 19.3789L24.9227 17.933L27.0258 16.8814L29.1289 16.2242L31.4948 15.8299V14.2526L24.0026 14.1211L23.6082 13.7268L23.4768 5.97165H3.62887ZM25.317 7.41753V12.4124H30.1804L29.3918 11.4923L27.5515 9.65206L26.6314 8.60052L25.4485 7.41753H25.317ZM55.4175 8.33763L54.4974 8.73196L53.8402 9.25773L53.4459 10.0464V11.3608L54.1031 12.4124L55.0232 12.9381L55.9433 13.0696L56.9949 12.6753L57.7835 11.7552L58.0464 11.0979L57.915 9.91495L57.5206 9.25773L56.732 8.60052L55.9433 8.33763H55.4175ZM31.6263 17.6701L29.7861 17.933L27.683 18.5902L25.4485 19.7732L23.7397 21.2191L22.5567 22.5335L21.5052 24.2423L20.8479 25.6881L20.3222 27.5283L20.0593 29.6314L20.1907 31.7345L20.7165 33.9691L21.5052 35.8093L22.5567 37.3866L23.7397 38.701L24.6598 39.6211L26.5 40.8041L28.2088 41.5928L30.049 42.1186L30.9691 42.25H33.8608L36.2268 41.7242L38.3299 40.8041L39.9072 39.7526L41.4845 38.3067L42.6675 36.8608L43.8505 34.6263L44.5077 32.3918L44.6392 31.6031V28.4485L44.1134 26.0825L43.3247 24.2423L42.4046 22.7964L40.9588 21.0876L39.1186 19.6418L37.1469 18.5902L35.0438 17.933L33.2036 17.6701H31.6263ZM55.549 19.6418L54.4974 20.0361L53.8402 20.5619L53.4459 21.3505V22.6649L53.9717 23.5851L54.8918 24.2423L55.9433 24.3737L56.9949 23.9794L57.915 22.9278L58.0464 21.6134L57.5206 20.5619L56.732 19.9046L55.549 19.6418ZM55.6804 30.9459L54.4974 31.3402L53.8402 31.866L53.4459 32.6546V33.9691L53.9717 34.8892L54.6289 35.4149L55.4175 35.6778L56.4691 35.5464L57.3892 35.0206L57.915 34.232L58.0464 32.9175L57.5206 31.866L56.732 31.2088L55.6804 30.9459ZM42.6675 39.7526L42.1418 40.4098L45.0335 43.3015L45.6907 42.7758L45.4278 42.25L42.9304 39.7526H42.6675ZM48.5825 42.5129L45.0335 46.0619L45.2964 46.5876L51.7371 53.0283L52.6572 52.2397L55.4175 49.4794L55.1546 48.9536L48.7139 42.5129H48.5825Z" fill="#4E7CD7"/>
<path id="Vector_2" d="M32.2848 18.8535L34.9137 19.1164L36.8853 19.7736L38.5941 20.6937L39.9085 21.7453L40.9601 22.7968L41.8802 24.1112L42.8003 25.9515L43.326 27.7917L43.4575 28.5803V31.3406L43.0631 33.3123L42.143 35.4154L41.2229 36.8612L40.1714 38.0442L38.857 39.0958L37.0168 40.1473L35.1765 40.8046L33.5992 41.0674H31.1018L28.7358 40.5417L26.5013 39.4901L24.7925 38.1757L23.4781 36.7298L22.4265 35.021L21.7693 33.4437L21.375 31.735V28.3174L21.9008 26.2143L22.9523 24.1112L24.0039 22.6654L25.4497 21.2195L27.1585 20.1679L28.6044 19.5107L30.576 18.985L32.2848 18.8535ZM31.3647 20.8252L29.2616 21.3509L27.1585 22.4025L25.5812 23.8484L24.5296 25.1628L23.741 26.8716L23.3466 28.186L23.2152 29.1061V30.9463L23.741 33.1808L24.6611 35.021L25.8441 36.4669L27.2899 37.6499L29.393 38.7015L30.9704 39.0958H33.8621L35.4394 38.7015L37.5425 37.6499L39.1198 36.204L40.0399 35.1525L41.0915 33.0494L41.4858 31.6035L41.6173 29.5004L41.2229 27.2659L40.5657 25.6886L39.3827 23.9798L38.3312 22.9283L36.491 21.7453L34.7822 21.0881L33.4678 20.8252H31.3647Z" fill="#4E7CD7"/>
<path id="Vector_3" d="M37.5408 25.2939H38.4609L38.9867 25.8197V26.6084L37.4094 28.4486L35.8321 30.1573L34.6491 31.6032L32.8089 33.5749L31.6259 35.0208L30.9687 35.678H29.9171L28.4712 34.1006L27.2883 32.6548L25.8424 30.946L25.7109 30.0259L26.1053 29.5001L26.8939 29.3687L27.5511 29.763L29.1285 31.6032L30.3115 33.0491L30.8372 32.7862L32.1517 31.3403L33.3346 29.8945L35.1749 27.9228L36.3578 26.4769L37.2779 25.4254L37.5408 25.2939Z" fill="#4E7CD7"/>
<path id="Vector_4" d="M7.30956 41.8555H21.1111L21.7683 42.5127L21.6369 43.4328L21.1111 43.8271H7.441L6.78379 43.4328L6.65234 42.5127L7.30956 41.8555Z" fill="#4E7CD7"/>
<path id="Vector_5" d="M7.17812 15.1729H21.374L21.7683 15.6986V16.4873L21.2425 17.0131H7.17812L6.65234 16.3558L6.78379 15.5672L7.17812 15.1729Z" fill="#4E7CD7"/>
<path id="Vector_6" d="M7.57245 21.7441H15.7219L16.3791 22.007L16.642 22.5328L16.5106 23.3215L15.9848 23.7158H7.30956L6.65234 23.0586L6.78379 22.1385L7.57245 21.7441Z" fill="#4E7CD7"/>
<path id="Vector_7" d="M7.30956 35.1523H15.8534L16.5106 35.6781V36.5982L15.8534 37.124H7.30956L6.78379 36.7297L6.65234 35.941L7.04667 35.2838L7.30956 35.1523Z" fill="#4E7CD7"/>
<path id="Vector_8" d="M7.441 28.4482H14.9333L15.5905 28.974V29.8941L14.9333 30.4199H7.30956L6.65234 29.7627L6.78379 28.8426L7.441 28.4482Z" fill="#4E7CD7"/>
</g>
</svg>
