<svg width="60" height="60" viewBox="0 0 60 60" fill="none" xmlns="http://www.w3.org/2000/svg">
<g id="Capa_1">
<g id="Group">
<g id="Group_2">
<path id="Vector" d="M12.4795 48.9932C13.329 48.9932 14.0176 48.3046 14.0176 47.4551C14.0176 46.6056 13.329 45.917 12.4795 45.917C11.63 45.917 10.9414 46.6056 10.9414 47.4551C10.9414 48.3046 11.63 48.9932 12.4795 48.9932Z" fill="#4E7CD7"/>
</g>
</g>
<g id="Group_3">
<g id="Group_4">
<path id="Vector_2" d="M53.6783 37.8205C53.6681 37.8129 53.658 37.8055 53.6476 37.7982C50.0268 35.2196 42.6229 29.9468 39.2353 27.5343L39.7557 26.9341C39.7597 26.9294 39.7638 26.9247 39.7678 26.92C40.0606 26.5739 40.4886 26.3754 40.9419 26.3754H46.9417C48.1744 26.3754 49.3329 25.8954 50.2044 25.0239L55.2481 19.9803C58.2465 16.9819 58.2465 12.103 55.2481 9.10446C54.9596 8.81602 54.5684 8.6539 54.1605 8.6539C53.7526 8.6539 53.3613 8.81591 53.073 9.10436L48.7225 13.4548C48.1229 14.0544 47.147 14.0544 46.5474 13.4548C45.9462 12.8536 45.9462 11.8808 46.5474 11.2797L50.8978 6.92926C51.4984 6.32857 51.4984 5.35474 50.8978 4.75415C47.8926 1.74887 43.0276 1.74836 40.022 4.75415L34.9783 9.79795C34.1067 10.6694 33.609 11.8282 33.609 13.0607V19.0604C33.609 19.5138 33.4282 19.9417 33.0821 20.2346C33.0785 20.2377 33.0749 20.2408 33.0713 20.2439L31.0293 22.0048L23.2118 14.1873L21.1519 8.00645C21.0236 7.62182 20.7487 7.30333 20.3869 7.12029L11.5837 2.66754C10.9908 2.36761 10.272 2.48235 9.80189 2.9523L5.45147 7.30271C4.98142 7.77266 4.86658 8.49147 5.16661 9.08447L9.61957 17.8877C9.8025 18.2495 10.1211 18.5244 10.5057 18.6527L16.6867 20.7131L24.0217 28.048L7.72861 42.0982C6.25283 43.3494 5.30566 45.0927 5.0611 47.0078C4.80639 49.0032 5.35344 50.9224 6.60158 52.4116C9.50154 55.872 14.7525 55.8405 17.6211 52.4608L29.8371 38.3728C30.9508 39.7336 39.3021 49.938 40.3402 51.2065C43.8292 55.8243 50.6042 56.2972 54.7003 52.2011C58.8066 48.095 58.3191 41.3012 53.6783 37.8205ZM18.6052 18.2811C18.4364 18.1123 18.2305 17.985 18.004 17.9095L12.0789 15.9345L8.41461 8.6902L11.1893 5.91533L18.4336 9.57974L20.4085 15.5048C20.484 15.7313 20.6114 15.9372 20.7802 16.106L28.6936 24.0193L26.3577 26.0336L18.6052 18.2811ZM15.2919 50.4514C15.2879 50.4561 15.2838 50.4608 15.2798 50.4655C13.6423 52.401 10.6328 52.4324 8.95931 50.4358C7.53757 48.7393 7.88662 45.9942 9.7218 44.4415C9.72539 44.4384 9.72908 44.4353 9.73267 44.4322C23.3922 32.6719 31.695 25.4929 35.0752 22.578C36.11 21.6996 36.6854 20.418 36.6854 19.0604V13.0607C36.6854 12.6499 36.8631 12.2637 37.1536 11.9732L42.1973 6.92946C43.6431 5.48373 45.7697 5.22205 47.4504 6.02669L44.3726 9.10457C42.5735 10.9037 42.5735 13.831 44.3726 15.6301C46.1716 17.4291 49.0991 17.4291 50.8981 15.6301L53.9745 12.5537C54.7917 14.2687 54.4912 16.3874 53.0733 17.8053L48.0296 22.849C47.7391 23.1395 47.3528 23.32 46.942 23.32H40.9422C39.5857 23.32 38.305 23.8918 37.4267 24.9251L15.2919 50.4514ZM31.8822 36.0145L37.211 29.8691L39.6734 31.6227L33.9292 38.5158L31.8822 36.0145ZM52.5252 50.026C49.7429 52.8081 45.1394 52.4786 42.7807 49.3336C42.7677 49.3162 42.7542 49.2991 42.7405 49.2823L35.9133 40.94L42.1864 33.4123L51.8469 40.2921C54.9839 42.6584 55.2988 47.2524 52.5252 50.026Z" fill="#4E7CD7" stroke="white"/>
</g>
</g>
</g>
</svg>
