<svg width="60" height="60" viewBox="0 0 60 60" fill="none" xmlns="http://www.w3.org/2000/svg">
<g id="free-icon-files-2717495 1 - traced" clip-path="url(#clip0_833_26017)">
<path id="Vector" d="M3.28125 0.9375H39.4922L40.4297 1.40625L41.3672 2.46094L41.6016 3.16406V6.09375H44.2969L45.4688 6.67969L46.1719 7.61719L46.4062 8.20312L46.5234 8.90625V33.5156H48.1641L48.8672 33.8672L49.4531 34.5703L49.6875 35.7422L50.8594 36.2109L51.3281 36.0938L51.7969 35.7422L52.1484 35.625H53.2031L53.9062 35.9766L56.6016 38.6719L56.8359 39.2578V40.3125L56.3672 41.1328L56.25 41.6016L56.7188 42.7734L57.8906 43.0078L58.7109 43.7109L58.9453 44.4141V48.2812L58.4766 49.2188L57.8906 49.6875L57.5391 49.8047H56.6016L56.4844 50.5078L56.1328 51.3281L56.7188 52.0312L56.8359 52.3828V53.4375L56.4844 54.1406L53.9062 56.7188L53.0859 57.0703H52.2656L51.3281 56.6016L50.9766 56.3672L49.8047 56.8359H49.5703V57.8906L49.1016 58.5938L48.3984 59.0625H43.8281L43.0078 58.4766L42.6562 57.7734V56.8359L41.4844 56.4844L41.1328 56.3672L40.5469 56.8359L39.9609 57.0703H39.1406L38.2031 56.6016L36.6797 55.0781L8.08594 54.9609L7.14844 54.4922L6.32812 53.6719L5.97656 52.8516L5.85938 52.0312V49.8047H3.28125L2.10938 49.2188L1.40625 48.2812L1.05469 47.3438V3.39844L1.40625 2.34375L2.10938 1.52344L3.28125 0.9375ZM4.10156 2.8125L3.51562 3.04688L3.04688 3.63281V46.9922L3.39844 47.5781L3.63281 47.8125H5.85938L5.97656 8.90625L6.21094 7.85156L6.91406 6.79688L8.08594 6.21094L39.6094 6.09375V3.51562L39.0234 2.92969L38.5547 2.8125H4.10156ZM8.90625 7.96875L8.32031 8.20312L7.96875 8.55469L7.85156 9.02344V52.0312L8.20312 52.7344L8.55469 52.9688H35.3906L35.8594 51.6797L36.2109 51.2109L35.625 49.8047L34.4531 49.5703L33.8672 49.2188L33.5156 48.6328L33.3984 48.0469L33.2812 46.0547L13.0078 45.9375L12.6562 45.5859V44.6484L13.0078 44.2969L13.3594 44.1797L33.5156 44.0625L33.9844 43.3594L34.5703 43.0078L35.625 42.8906L36.2109 41.3672L35.625 40.5469L35.5078 40.0781L13.125 39.9609L12.6562 39.6094V38.6719L13.125 38.2031L36.3281 38.0859L38.4375 35.9766L39.0234 35.7422H40.0781L40.7812 36.0938L41.0156 36.3281L41.7188 36.2109L42.6562 35.7422L42.8906 34.5703L43.3594 33.9844L44.1797 33.6328L44.5312 33.5156V9.02344L44.2969 8.4375L43.9453 8.08594L43.4766 7.96875H8.90625ZM44.6484 35.5078L44.5312 36.7969L44.2969 37.2656L42.1875 38.0859L41.25 38.5547L40.4297 38.4375L39.6094 37.6172L38.7891 38.3203L37.9688 39.1406L37.6172 39.9609L38.3203 40.7812V41.6016L37.6172 43.0078L37.0312 44.5312L36.7969 44.6484L35.2734 44.7656V47.8125L36.6797 47.9297L37.1484 48.2812L37.8516 50.1562L38.3203 51.0938V51.7969L37.5 52.8516L38.2031 53.6719L39.4922 54.9609L40.4297 54.2578L40.5469 54.1406H41.3672L43.125 54.9609L44.1797 55.3125L44.5312 55.7812L44.6484 57.1875H47.5781L47.8125 55.5469L48.3984 55.1953L50.2734 54.4922L50.8594 54.1406H51.6797L52.6172 54.9609L53.0859 54.7266L54.8438 52.9688L54.1406 52.1484L53.9062 51.7969L54.0234 50.8594L54.7266 49.4531L55.1953 48.1641L55.5469 47.9297L56.9531 47.8125V44.7656L55.4297 44.6484L55.0781 44.2969L54.375 42.4219L53.9062 41.4844L54.0234 40.6641L54.7266 39.8438L54.4922 39.375L52.7344 37.6172L51.9141 38.3203L51.4453 38.5547L50.7422 38.4375L49.2188 37.7344L47.9297 37.2656L47.6953 36.6797L47.5781 35.5078H44.6484Z" fill="#4E7CD7" stroke="white" stroke-width="0.3"/>
<path id="Vector_2" d="M14.5312 13.5938H24.0234L25.0781 14.0625L25.7812 14.8828L26.1328 15.9375V25.6641L25.7812 26.8359L25.3125 27.4219L24.6094 27.8906L24.2578 28.0078H14.2969L13.3594 27.4219L12.7734 26.7188L12.5391 26.25V15.4688L13.0078 14.5312L13.7109 13.9453L14.5312 13.5938ZM14.8828 15.5859L14.5312 15.9375V25.7812L15.1172 26.1328H23.4375L24.0234 25.7812L24.1406 25.5469V16.1719L23.9062 15.7031L23.6719 15.5859H14.8828Z" fill="#4E7CD7" stroke="white" stroke-width="0.3"/>
<path id="Vector_3" d="M46.0547 40.5469L47.9297 40.7812L49.2188 41.3672L50.2734 42.0703L51.3281 43.2422L52.1484 44.8828L52.3828 45.9375V47.8125L52.0312 49.1016L51.3281 50.5078L50.2734 51.6797L48.9844 52.5L47.8125 52.9688L47.3438 53.0859H45L43.4766 52.6172L42.3047 51.9141L41.4844 51.2109L40.5469 49.9219L39.9609 48.2812L39.8438 47.5781V46.0547L40.3125 44.2969L41.0156 43.125L41.9531 42.0703L43.2422 41.25L44.4141 40.7812L46.0547 40.5469ZM45.9375 42.5391L44.7656 42.7734L43.5938 43.3594L42.6562 44.2969L41.9531 45.7031L41.8359 46.2891V47.4609L42.3047 48.8672L43.0078 49.8047L43.8281 50.5078L44.7656 50.9766L45.2344 51.0938H46.9922L48.2812 50.625L49.4531 49.5703L50.0391 48.6328L50.3906 47.5781V46.1719L49.9219 44.8828L49.4531 44.1797L48.8672 43.5938L47.8125 42.8906L47.1094 42.6562L45.9375 42.5391Z" fill="#4E7CD7" stroke="white" stroke-width="0.3"/>
<path id="Vector_4" d="M13.0078 32.1094H40.7812L41.3672 32.6953V33.5156L40.8984 33.9844L40.6641 34.1016H13.2422L12.6562 33.75L12.5391 33.5156V32.5781L13.0078 32.1094Z" fill="#4E7CD7" stroke="white" stroke-width="0.3"/>
<path id="Vector_5" d="M29.2969 20.0391H40.8984L41.4844 20.3906L41.6016 20.625V21.5625L41.1328 22.0312H29.0625L28.5938 21.5625L28.4766 20.8594L28.8281 20.2734L29.2969 20.0391Z" fill="#4E7CD7" stroke="white" stroke-width="0.3"/>
<path id="Vector_6" d="M29.1797 14.0625H41.0156L41.6016 14.6484V15.4688L41.0156 16.0547H29.1797L28.5938 15.5859L28.4766 14.8828L28.8281 14.2969L29.1797 14.0625Z" fill="#4E7CD7" stroke="white" stroke-width="0.3"/>
<path id="Vector_7" d="M29.0625 26.1328H40.8984L41.3672 26.6016V27.5391L40.8984 28.0078H29.0625L28.5938 27.5391L28.4766 26.9531L28.8281 26.25L29.0625 26.1328Z" fill="#4E7CD7" stroke="white" stroke-width="0.3"/>
</g>
<defs>
<clipPath id="clip0_833_26017">
<rect width="60" height="60" fill="white"/>
</clipPath>
</defs>
</svg>
