<svg width="60" height="60" viewBox="0 0 60 60" fill="none" xmlns="http://www.w3.org/2000/svg">
<g id="free-icon-maintenance-6900919 1 - traced" clip-path="url(#clip0_833_25994)">
<path id="Vector" d="M27.6562 0H28.5938L29.0625 0.46875V7.85156L29.7656 8.08594L31.6406 9.02344L32.2266 8.90625L34.3359 7.85156H34.5703V0.820312L34.9219 0.117188L35.1562 0H36.0938L37.5 0.820312L39.0234 2.22656L39.9609 3.51562L40.7812 5.15625L41.25 6.91406L41.3672 7.73438L43.125 8.32031L44.6484 8.4375L46.1719 7.96875L46.9922 7.73438H48.6328L50.2734 8.55469L51.7969 9.96094L52.9688 11.1328L54.0234 12.6562L54.375 13.5938V15.2344L53.6719 17.2266V18.8672L54.2578 20.7422L55.1953 22.6172L55.8984 23.5547L57.0703 24.2578L58.4766 24.9609L59.0625 25.4297L59.6484 26.3672L60 27.7734V32.2266L59.6484 33.6328L58.9453 34.6875L57.8906 35.3906L56.25 36.2109L55.6641 36.6797L54.8438 37.9688L54.0234 39.8438L53.6719 41.1328V42.7734L54.375 44.7656V46.4062L53.9062 47.5781L53.0859 48.6328L52.0312 49.8047L50.9766 50.8594L49.6875 51.7969L48.5156 52.2656H46.9922L45.2344 51.6797L44.6484 51.5625H43.7109L41.9531 52.0312L40.3125 52.7344L38.7891 53.7891L38.0859 54.9609L37.2656 56.6016L36.3281 58.0078L35.3906 58.9453L34.4531 59.5312L33.0469 60H30.7031L29.0625 59.4141L28.0078 58.5938L27.0703 57.5391L26.1328 56.0156L25.1953 54.1406L24.375 53.3203L23.2031 52.6172L21.4453 51.9141L20.0391 51.5625H19.1016L17.1094 52.1484L16.7578 52.2656H15.1172L13.4766 51.4453L11.9531 50.0391L10.7812 48.8672L9.72656 47.3438L9.375 46.5234L9.25781 45.2344L9.49219 44.0625L7.85156 43.4766L6.5625 43.2422V44.5312L6.09375 45H0.46875L0 44.5312V43.5938L0.46875 43.125L0.820312 43.0078H4.57031V22.5H0.46875L0 22.0312V21.0938L0.46875 20.625H6.09375L6.5625 21.0938V22.5L8.90625 22.2656L9.14062 21.5625L9.84375 19.8047L10.0781 18.75V17.3438L9.375 15.2344V13.4766L10.0781 12.0703L11.1328 10.7812L12.8906 9.02344L14.0625 8.20312L15.1172 7.73438H16.7578L18.9844 8.4375H19.9219L21.7969 7.96875L22.3828 7.73438L22.7344 5.85938L23.3203 4.33594L24.1406 2.92969L25.4297 1.52344L26.6016 0.585938L27.6562 0ZM36.5625 2.8125L36.4453 8.90625L36.0938 9.25781L32.3438 11.1328H31.4062L27.4219 9.14062L27.1875 8.55469L27.0703 2.92969L26.6016 3.16406L25.6641 4.33594L24.8438 5.97656L24.4922 7.26562L24.375 8.78906L24.6094 10.3125L25.1953 11.8359L26.0156 13.125L26.7188 13.9453L28.0078 15L28.125 17.8125L29.8828 18.0469L31.4062 18.6328L32.6953 19.5703L33.5156 20.5078L34.3359 22.1484L34.4531 22.5H35.5078L35.625 15.4688L35.8594 14.8828L37.3828 13.4766L38.0859 12.6562L38.9062 11.0156L39.2578 9.72656V7.26562L38.6719 5.39062L37.7344 3.86719L37.1484 3.16406L36.5625 2.8125ZM15.5859 9.72656L14.5312 10.3125L12.6562 12.0703L11.6016 13.4766L11.25 14.5312L11.9531 16.5234L12.0703 16.9922V18.9844L11.6016 20.9766L12.3047 20.7422L14.1797 19.6875L16.0547 18.75L17.8125 18.1641L18.9844 17.9297L26.1328 17.8125V15.9375L24.9609 14.8828L24.0234 13.7109L23.0859 11.8359L22.6172 9.96094L21.7969 10.0781L20.0391 10.4297H18.9844L17.3438 10.0781L16.5234 9.72656H15.5859ZM47.2266 9.72656L45.5859 10.3125L44.7656 10.4297H43.7109L41.9531 10.0781L41.1328 9.96094L40.6641 11.8359L39.8438 13.4766L38.7891 14.8828L38.4375 15.2344V15.4688L40.3125 16.4062L41.9531 17.5781L43.3594 18.8672L44.4141 20.0391L45.5859 21.7969L46.5234 23.6719L47.1094 25.3125L47.5781 27.3047L47.6953 28.125V31.875L47.2266 34.3359L46.4062 36.5625L45.3516 38.5547L44.1797 40.1953L42.7734 41.7188L41.1328 43.0078L39.6094 43.9453L39.1406 44.4141L38.6719 45.3516L38.4375 45.8203L37.9688 46.0547L37.5 46.4062V52.1484L38.5547 51.4453L40.5469 50.3906L42.3047 49.8047L43.7109 49.5703H44.8828L46.4062 49.9219L47.2266 50.2734H48.1641L49.3359 49.5703L50.7422 48.2812L51.5625 47.3438L52.3828 46.0547V45.1172L51.7969 43.5938L51.6797 43.0078V40.8984L52.1484 39.1406L52.8516 37.3828L53.6719 35.9766L54.7266 34.8047L56.0156 33.9844L57.4219 33.2812L57.7734 32.8125L58.0078 31.9922L58.125 30.5859V29.4141L57.8906 27.4219L57.4219 26.7188L56.8359 26.3672L55.1953 25.5469L54.0234 24.4922L52.9688 22.8516L52.2656 21.2109L51.7969 19.6875L51.6797 19.1016V16.9922L52.1484 15.4688L52.3828 14.8828V13.9453L51.5625 12.6562L50.1562 11.1328L48.6328 9.96094L48.1641 9.72656H47.2266ZM37.5 17.2266V22.6172L38.6719 23.0859L39.375 23.6719L39.9609 24.6094L40.1953 25.3125V27.1875L39.7266 28.2422L39.2578 28.9453L39.4922 29.5312L39.9609 30.2344L40.1953 30.9375V32.8125L39.7266 33.8672L39.2578 34.5703L39.4922 35.1562L39.9609 35.8594L40.1953 36.5625V38.4375L39.7266 39.4922L39.2578 40.1953L38.5547 40.6641L39.1406 41.8359L39.7266 41.6016L41.25 40.4297L42.5391 39.1406L43.8281 37.3828L44.7656 35.5078L45.3516 33.9844L45.8203 31.7578V28.2422L45.3516 26.0156L44.6484 24.1406L43.5938 22.2656L42.4219 20.7422L40.8984 19.2188L39.0234 17.9297L37.7344 17.2266H37.5ZM20.5078 19.6875L18.6328 19.9219L16.5234 20.625L14.0625 21.9141L11.6016 23.3203L9.84375 24.0234L8.90625 24.2578L6.5625 24.375V41.25L8.55469 41.6016L10.7812 42.4219L13.3594 43.7109L15.8203 44.6484L18.2812 45.2344L20.5078 45.5859L23.0859 45.8203H26.1328L26.25 39.8438V37.0312L26.1328 29.5312L24.1406 30.4688L22.8516 30.8203H20.2734L18.8672 30.4688L17.4609 29.7656L16.2891 28.8281L16.0547 28.5938L15.9375 28.0078L16.1719 27.4219L16.4062 27.1875H17.3438L18.6328 28.2422L20.0391 28.8281L20.5078 28.9453H22.6172L24.2578 28.3594L25.3125 27.5391L26.1328 26.6016L26.4844 25.5469L26.7188 25.4297H27.6562L28.0078 25.7812L28.125 29.6484L28.4766 30.7031L29.0625 31.4062L29.7656 31.7578H31.1719L32.1094 31.1719L32.6953 30.2344V23.2031L32.2266 22.0312L31.1719 20.8594L30.1172 20.1562L29.0625 19.8047L28.125 19.6875H20.5078ZM34.6875 24.375V28.125H36.5625L37.6172 27.7734L38.2031 27.0703L38.3203 26.8359V25.6641L37.8516 24.9609L37.1484 24.4922L36.6797 24.375H34.6875ZM34.6875 30L34.2188 31.5234L33.5156 32.4609L32.8125 33.0469L32.5781 33.2812L33.1641 33.6328L33.75 33.75H36.5625L37.6172 33.3984L38.2031 32.6953L38.3203 32.4609V31.2891L37.8516 30.5859L37.1484 30.1172L36.5625 30H34.6875ZM28.125 33.1641V54.375L28.3594 55.6641L29.0625 56.8359L29.8828 57.5391L31.0547 58.0078H32.6953L33.8672 57.5391L34.8047 56.7188L35.3906 55.6641L35.5078 55.1953V46.875L32.8125 46.7578L31.7578 46.2891L30.9375 45.7031L30.2344 44.5312L30 43.3594L30.1172 42.1875L30.5859 41.0156L31.0547 40.4297L30.8203 39.8438L30.2344 38.9062L30 37.7344L30.1172 36.5625L30.5859 35.3906L31.0547 34.8047L30.8203 34.2188L30.4688 33.75L29.0625 33.5156L28.125 33.1641ZM33.75 35.625L32.6953 35.9766L32.1094 36.5625L31.875 37.6172L32.2266 38.5547L32.8125 39.1406L33.6328 39.375H36.5625L37.6172 39.0234L38.2031 38.3203L38.3203 38.0859V36.9141L37.8516 36.2109L37.1484 35.7422L36.5625 35.625H33.75ZM33.75 41.25L32.6953 41.6016L32.1094 42.1875L31.875 43.2422L32.2266 44.1797L32.9297 44.7656L33.1641 44.8828H36.2109L36.9141 44.4141L37.3828 43.7109V42.5391L36.9141 41.8359L36.2109 41.3672L35.625 41.25H33.75ZM11.4844 45L11.25 45.7031L11.8359 46.875L13.125 48.3984L14.5312 49.6875L15.5859 50.2734H16.5234L18.1641 49.6875L18.8672 49.5703H20.0391L21.7969 49.9219L23.6719 50.625L25.1953 51.4453L26.0156 52.0312H26.1328V47.8125L23.0859 47.6953L19.4531 47.3438L16.4062 46.7578L13.7109 45.9375L11.4844 45Z" fill="#4E7CD7"/>
<path id="Vector_2" d="M31.4062 53.4375H32.3438L32.8125 53.9062V54.8438L32.3438 55.3125H31.4062L30.9375 54.8438L30.8203 54.2578L31.1719 53.5547L31.4062 53.4375Z" fill="#4E7CD7"/>
</g>
<defs>
<clipPath id="clip0_833_25994">
<rect width="60" height="60" fill="white"/>
</clipPath>
</defs>
</svg>
