<svg width="59" height="59" viewBox="0 0 59 59" fill="none" xmlns="http://www.w3.org/2000/svg">
<g id="free-icon-repair-11623843 1 - traced">
<path id="Vector" d="M33.2412 3H34.4882L35.1118 3.41406L35.4235 3.93164V11.4883H38.4373V4.3457L38.749 3.51758L39.2686 3.10352L39.4765 3H40.7235L42.698 3.82812L43.8412 4.55273L44.8804 5.38086L45.9196 6.3125L47.0627 7.76172L47.998 9.41797L48.6216 11.0742L48.9333 12.4199L49.0373 13.248V15.8359L48.6216 17.9062L47.998 19.5625L47.1667 21.1152L46.2314 22.3574L46.0235 22.5645L50.0765 22.668L51.7392 23.082L53.0902 23.8066L54.1294 24.7383L54.9608 25.6699L55.6882 27.1191L56 28.3613V30.6387L55.6882 31.8809L53.6098 36.9531L52.051 40.7832L50.5961 44.3027L49.8686 45.5449L49.0373 46.5801L47.8941 47.7188L46.3353 48.7539L44.8804 49.375L43.4255 49.7891H42.698V51.3418L42.2824 52.6875L41.7627 53.6191L40.8274 54.6543L39.9961 55.2754L38.8529 55.793L38.1255 56H35.9431L34.5922 55.5859L33.5529 54.9648L32.7216 54.2402L31.9941 53.2051L31.4745 51.9629L31.2667 50.9277V49.8926H28.2529L26.3824 49.582L24.5118 48.9609L22.9529 48.1328L21.7059 47.2012L20.9784 46.4766L17.4451 46.373V47.5117L17.1333 48.0293L16.6137 48.4434L16.4059 48.5469H4.03922L3.41569 48.1328L3.10392 47.8223L3 47.5117V21.8398L3.41569 21.2188L3.93529 20.9082H16.5098L17.1333 21.3223L17.4451 21.8398V22.668H19.5235L19.6275 21.7363L20.1471 20.2871L20.7706 19.1484L21.602 18.1133L22.5373 17.1816L23.9922 16.25L24.8235 15.8359L24.9275 13.041L25.3431 10.9707L25.9667 9.41797L26.798 7.86523L27.9412 6.41602L28.9804 5.38086L30.5392 4.24219L32.202 3.41406L33.2412 3ZM41.6588 7.03711L41.5549 13.6621L41.1392 14.2832L40.6196 14.5938H33.3451L32.7216 14.1797L32.4098 13.7656L32.3059 13.1445L32.202 7.14062L31.7863 7.34766L30.7471 8.17578L29.8118 9.21094L29.0843 10.3496L28.4608 11.9023L28.149 13.248V15.8359L28.5647 17.3887L29.0843 18.6309L29.8118 19.7695L30.7471 20.8047L31.7863 21.7363L33.2412 22.5645L33.449 22.668H40.5157L41.5549 22.1504L42.802 21.2188L43.8412 20.1836L44.7765 18.7344L45.4 17.3887L45.8157 15.6289V13.4551L45.5039 12.0059L44.9843 10.6602L44.2569 9.41797L43.1137 8.07227L41.7627 7.03711H41.6588ZM25.551 19.0449L24.4078 19.873L23.5765 20.8047L22.849 22.2539L22.6412 22.9785L22.4333 24.8418L22.0176 25.4629L21.2902 25.7734L17.4451 25.877V43.1641L22.2255 43.2676L22.849 43.6816L23.5765 44.5098L24.4078 45.2344L25.9667 46.0625L27.2137 46.4766L28.3569 46.6836H42.4902L44.049 46.2695L45.5039 45.4414L46.5431 44.5098L47.2706 43.5781L48.102 41.9219L49.8686 37.5742L51.9471 32.502L52.7784 30.3281L52.8824 29.293L52.5706 28.0508L51.9471 27.1191L51.0118 26.291L49.8686 25.877L32.9294 25.7734L31.5784 25.2559L30.1235 24.4277L28.9804 23.4961L27.6294 22.1504L26.5902 20.5977L25.7588 19.0449H25.551ZM6.11765 24.0137V45.3379H14.3275V24.0137H6.11765ZM34.4882 49.8926V50.7207L34.9039 51.7559L35.4235 52.2734L36.2549 52.791L37.1902 52.8945L38.2294 52.584L39.0608 51.8594L39.4765 51.0312V49.8926H34.4882Z" fill="#4E7CD7" stroke="white"/>
</g>
</svg>
