<svg width="60" height="60" viewBox="0 0 60 60" fill="none" xmlns="http://www.w3.org/2000/svg">
<g id="Layer_1" clip-path="url(#clip0_833_25923)">
<g id="Group">
<path id="Vector" d="M49.8125 60.4619H10.8981C10.4043 60.4619 10.0003 60.0616 10.0003 59.5678C9.99281 56.5077 10.12 48.8535 11.4967 43.9452C11.8633 42.6396 12.3048 41.5772 12.8921 40.597C13.3859 39.7702 14.8113 37.6902 17.3664 36.2499C19.7233 34.9256 21.9791 34.7273 23.4568 34.7946C23.6327 34.8021 23.801 34.862 23.9432 34.9667L30.1907 39.5233L36.7862 34.9555C36.9246 34.8582 37.0892 34.8059 37.2575 34.7984C38.7352 34.731 40.9911 34.9293 43.348 36.2536C45.9031 37.6902 47.3284 39.7702 47.8222 40.6007C48.4096 41.5809 48.851 42.6471 49.2176 43.949C50.5944 48.8684 50.7215 56.5151 50.7141 59.5716C50.7103 60.0616 50.3063 60.4619 49.8125 60.4619ZM30.3067 58.6662H48.9109C48.8884 55.6135 48.6976 48.76 47.4818 44.4278C47.1563 43.2681 46.7822 42.3703 46.2734 41.5173C45.8545 40.814 44.6386 39.0445 42.4576 37.8174C40.602 36.7737 38.8213 36.5604 37.583 36.5829L30.6808 41.3639C30.3665 41.5809 29.9475 41.5772 29.6408 41.3527L23.1089 36.5791C21.8706 36.5567 20.0974 36.7737 18.2456 37.8137C16.0645 39.0407 14.8524 40.8102 14.4297 41.5136C13.9209 42.3665 13.5505 43.2644 13.2213 44.4241C12.0242 48.7001 11.8147 55.2694 11.7923 58.6625L30.3067 58.6662Z" fill="#4E7CD7"/>
<g id="Group_2">
<path id="Vector_2" d="M19.0971 60.4627C18.5995 60.4627 18.1992 60.0624 18.1992 59.5649V48.641C18.1992 48.1435 18.5995 47.7432 19.0971 47.7432C19.5946 47.7432 19.9949 48.1435 19.9949 48.641V59.5649C19.9949 60.0624 19.5909 60.4627 19.0971 60.4627Z" fill="#4E7CD7"/>
<path id="Vector_3" d="M41.6107 60.4627C41.1132 60.4627 40.7129 60.0624 40.7129 59.5649V48.641C40.7129 48.1435 41.1132 47.7432 41.6107 47.7432C42.1083 47.7432 42.5086 48.1435 42.5086 48.641V59.5649C42.5086 60.0624 42.1083 60.4627 41.6107 60.4627Z" fill="#4E7CD7"/>
</g>
<path id="Vector_4" d="M25.2324 37.751C25.1052 37.751 24.9743 37.7248 24.8508 37.665C24.4019 37.4555 24.2073 36.9205 24.4206 36.4716C24.6712 35.9329 25.1015 34.8592 25.1314 33.6845C25.1426 33.2057 25.0827 32.9849 24.9817 32.6221C24.9668 32.5734 24.9556 32.521 24.9406 32.4687C24.8097 31.9898 25.094 31.496 25.5728 31.3688C26.0517 31.2379 26.5455 31.5222 26.6727 32.001C26.6839 32.0497 26.6989 32.0983 26.7101 32.1432C26.8261 32.5547 26.942 32.9812 26.9233 33.7294C26.8859 35.2333 26.3547 36.5689 26.0442 37.2348C25.8908 37.5602 25.5691 37.751 25.2324 37.751Z" fill="#4E7CD7"/>
<path id="Vector_5" d="M30.3544 34.5555C27.7806 34.5555 25.3639 33.4519 23.5495 31.4467C21.7612 29.4677 20.7773 26.8415 20.7773 24.0506V19.9916C20.7773 19.494 21.1776 19.0938 21.6752 19.0938C22.1728 19.0938 22.573 19.494 22.573 19.9916V24.0506C22.573 28.8541 26.0634 32.7635 30.3544 32.7635C34.6454 32.7635 38.1358 28.8541 38.1358 24.0506V19.9916C38.1358 19.494 38.5361 19.0938 39.0336 19.0938C39.5312 19.0938 39.9315 19.494 39.9315 19.9916V24.0506C39.9315 26.8415 38.9476 29.4677 37.1594 31.4467C35.345 33.4519 32.9283 34.5555 30.3544 34.5555Z" fill="#4E7CD7"/>
<path id="Vector_6" d="M39.7939 16.7412C39.2964 16.7412 38.8961 16.3409 38.8961 15.8433C38.8961 11.8666 36.0828 8.36125 32.2071 7.50455C31.7245 7.39606 31.4177 6.91721 31.5225 6.43462C31.6272 5.95202 32.1098 5.64526 32.5924 5.75C34.8557 6.24756 36.9096 7.51952 38.3798 9.32644C39.113 10.228 39.6854 11.2381 40.0782 12.3268C40.486 13.4528 40.6918 14.635 40.6918 15.8433C40.6918 16.3409 40.2877 16.7412 39.7939 16.7412Z" fill="#4E7CD7"/>
<path id="Vector_7" d="M20.9154 16.7405C20.4179 16.7405 20.0176 16.3402 20.0176 15.8427C20.0176 14.6343 20.2233 13.4522 20.6311 12.3261C21.0239 11.2375 21.5963 10.2274 22.3295 9.32579C23.7998 7.51887 25.8536 6.24691 28.1169 5.74935C28.5995 5.64086 29.0821 5.94763 29.1869 6.43397C29.2954 6.91656 28.9886 7.39915 28.5023 7.5039C24.6265 8.3606 21.8133 11.866 21.8133 15.8427C21.8133 16.3402 21.413 16.7405 20.9154 16.7405Z" fill="#4E7CD7"/>
<path id="Vector_8" d="M39.3499 20.89H21.363C19.7244 20.89 18.3926 19.5582 18.3926 17.9196C18.3926 16.281 19.7244 14.9492 21.363 14.9492H39.3536C40.9922 14.9492 42.324 16.281 42.324 17.9196C42.324 19.5582 40.9885 20.89 39.3499 20.89ZM21.363 16.7412C20.7158 16.7412 20.1883 17.2687 20.1883 17.9159C20.1883 18.5631 20.7158 19.0906 21.363 19.0906H39.3536C40.0008 19.0906 40.5283 18.5631 40.5283 17.9159C40.5283 17.2687 40.0008 16.7412 39.3536 16.7412H21.363Z" fill="#4E7CD7"/>
<path id="Vector_9" d="M30.3545 11.4735C28.7346 11.4735 27.4141 10.1529 27.4141 8.533V5.94046C27.4141 4.32059 28.7346 3 30.3545 3C31.9744 3 33.295 4.32059 33.295 5.94046V8.533C33.295 10.1566 31.9744 11.4735 30.3545 11.4735ZM30.3545 4.7957C29.7223 4.7957 29.2098 5.30822 29.2098 5.94046V8.533C29.2098 9.16524 29.7223 9.67776 30.3545 9.67776C30.9868 9.67776 31.4993 9.16524 31.4993 8.533V5.94046C31.4993 5.30822 30.9868 4.7957 30.3545 4.7957Z" fill="#4E7CD7"/>
<path id="Vector_10" d="M35.4783 37.7578C35.1528 37.7578 34.8386 37.5783 34.6777 37.2715C34.0455 36.037 33.6938 34.75 33.6601 33.5454C33.6452 32.9356 33.72 32.554 33.8023 32.2286C33.9257 31.7497 34.4121 31.4579 34.8947 31.5776C35.3735 31.7011 35.6653 32.1874 35.5456 32.67C35.4858 32.9094 35.4483 33.1302 35.4596 33.5005C35.4895 34.679 35.9197 35.7564 36.2789 36.4522C36.5071 36.8937 36.3312 37.4361 35.8898 37.6606C35.7589 37.7279 35.6167 37.7578 35.4783 37.7578Z" fill="#4E7CD7"/>
</g>
</g>
<defs>
<clipPath id="clip0_833_25923">
<rect width="60" height="60" fill="white"/>
</clipPath>
</defs>
</svg>
