<svg width="59" height="59" viewBox="0 0 59 59" fill="none" xmlns="http://www.w3.org/2000/svg">
<g id="free-icon-file-and-folder-6802302 1 - traced">
<g id="Vector">
<mask id="path-1-outside-1_833_26048" maskUnits="userSpaceOnUse" x="4" y="3" width="50" height="52" fill="black">
<rect fill="white" x="4" y="3" width="50" height="52"/>
<path d="M17.5867 4H41.9067L42.8667 4.32L43.8267 5.06667L44.4667 6.02667L44.68 6.77333L44.7867 14.88L46.4933 11.04L47.0267 9.97333L47.4533 9.65333H48.2L51.1867 11.04L52.68 11.7867L53 12.1067V12.96L50.9733 17.44L49.6933 20.32L47.56 25.12L45.4267 29.92L44.7867 31.3067L44.68 51.04L44.2533 52.1067L43.4 53.0667L42.44 53.6L42.0133 53.7067H7.56L6.28 53.0667L5.53333 52.32L5 51.1467V16.5867L5.74667 15.7333L17.3733 4.10667L17.5867 4ZM18.8667 5.81333L18.76 17.3333L18.3333 17.76L6.70667 17.8667V50.1867L6.92 51.04L7.34667 51.5733L7.88 51.8933L8.41333 52H41.16L42.12 51.68L42.6533 51.1467L42.8667 50.72V35.68L42.5467 36.1067L40.6267 40.48L38.6 44.96L37.64 47.0933L36.8933 47.84L35.72 48.8L34.44 49.9733L33.0533 51.04H32.3067L31.88 50.6133L31.7733 46.3467V44.32L33.9067 39.52L36.04 34.72L37.96 30.4533L39.88 26.08L41.9067 21.6L42.8667 19.36V6.98667L42.44 6.34667L41.9067 5.92L41.6933 5.81333H18.8667ZM16.9467 7.2L8.2 15.9467V16.0533H17.0533V7.2H16.9467ZM48.2 11.7867L47.4533 13.3867L45.5333 17.6533L44.2533 20.5333L42.12 25.3333L39.9867 30.1333L38.0667 34.4L36.1467 38.7733L34.2267 43.04L33.8 44L34.0133 44.4267L35.08 45.0667L36.04 45.3867L36.5733 45.28L38.4933 41.0133L40.4133 36.64L42.44 32.16L44.36 27.7867L46.28 23.52L47.9867 19.68L50.12 14.88L50.8667 13.1733L50.76 12.8533L48.4133 11.7867H48.2ZM33.48 46.1333L33.5867 48.2667L34.44 47.6267L35.1867 46.9867L34.9733 46.7733L33.9067 46.3467L33.48 46.1333Z"/>
</mask>
<path d="M17.5867 4H41.9067L42.8667 4.32L43.8267 5.06667L44.4667 6.02667L44.68 6.77333L44.7867 14.88L46.4933 11.04L47.0267 9.97333L47.4533 9.65333H48.2L51.1867 11.04L52.68 11.7867L53 12.1067V12.96L50.9733 17.44L49.6933 20.32L47.56 25.12L45.4267 29.92L44.7867 31.3067L44.68 51.04L44.2533 52.1067L43.4 53.0667L42.44 53.6L42.0133 53.7067H7.56L6.28 53.0667L5.53333 52.32L5 51.1467V16.5867L5.74667 15.7333L17.3733 4.10667L17.5867 4ZM18.8667 5.81333L18.76 17.3333L18.3333 17.76L6.70667 17.8667V50.1867L6.92 51.04L7.34667 51.5733L7.88 51.8933L8.41333 52H41.16L42.12 51.68L42.6533 51.1467L42.8667 50.72V35.68L42.5467 36.1067L40.6267 40.48L38.6 44.96L37.64 47.0933L36.8933 47.84L35.72 48.8L34.44 49.9733L33.0533 51.04H32.3067L31.88 50.6133L31.7733 46.3467V44.32L33.9067 39.52L36.04 34.72L37.96 30.4533L39.88 26.08L41.9067 21.6L42.8667 19.36V6.98667L42.44 6.34667L41.9067 5.92L41.6933 5.81333H18.8667ZM16.9467 7.2L8.2 15.9467V16.0533H17.0533V7.2H16.9467ZM48.2 11.7867L47.4533 13.3867L45.5333 17.6533L44.2533 20.5333L42.12 25.3333L39.9867 30.1333L38.0667 34.4L36.1467 38.7733L34.2267 43.04L33.8 44L34.0133 44.4267L35.08 45.0667L36.04 45.3867L36.5733 45.28L38.4933 41.0133L40.4133 36.64L42.44 32.16L44.36 27.7867L46.28 23.52L47.9867 19.68L50.12 14.88L50.8667 13.1733L50.76 12.8533L48.4133 11.7867H48.2ZM33.48 46.1333L33.5867 48.2667L34.44 47.6267L35.1867 46.9867L34.9733 46.7733L33.9067 46.3467L33.48 46.1333Z" fill="#4E7CD7"/>
<path d="M17.5867 4H41.9067L42.8667 4.32L43.8267 5.06667L44.4667 6.02667L44.68 6.77333L44.7867 14.88L46.4933 11.04L47.0267 9.97333L47.4533 9.65333H48.2L51.1867 11.04L52.68 11.7867L53 12.1067V12.96L50.9733 17.44L49.6933 20.32L47.56 25.12L45.4267 29.92L44.7867 31.3067L44.68 51.04L44.2533 52.1067L43.4 53.0667L42.44 53.6L42.0133 53.7067H7.56L6.28 53.0667L5.53333 52.32L5 51.1467V16.5867L5.74667 15.7333L17.3733 4.10667L17.5867 4ZM18.8667 5.81333L18.76 17.3333L18.3333 17.76L6.70667 17.8667V50.1867L6.92 51.04L7.34667 51.5733L7.88 51.8933L8.41333 52H41.16L42.12 51.68L42.6533 51.1467L42.8667 50.72V35.68L42.5467 36.1067L40.6267 40.48L38.6 44.96L37.64 47.0933L36.8933 47.84L35.72 48.8L34.44 49.9733L33.0533 51.04H32.3067L31.88 50.6133L31.7733 46.3467V44.32L33.9067 39.52L36.04 34.72L37.96 30.4533L39.88 26.08L41.9067 21.6L42.8667 19.36V6.98667L42.44 6.34667L41.9067 5.92L41.6933 5.81333H18.8667ZM16.9467 7.2L8.2 15.9467V16.0533H17.0533V7.2H16.9467ZM48.2 11.7867L47.4533 13.3867L45.5333 17.6533L44.2533 20.5333L42.12 25.3333L39.9867 30.1333L38.0667 34.4L36.1467 38.7733L34.2267 43.04L33.8 44L34.0133 44.4267L35.08 45.0667L36.04 45.3867L36.5733 45.28L38.4933 41.0133L40.4133 36.64L42.44 32.16L44.36 27.7867L46.28 23.52L47.9867 19.68L50.12 14.88L50.8667 13.1733L50.76 12.8533L48.4133 11.7867H48.2ZM33.48 46.1333L33.5867 48.2667L34.44 47.6267L35.1867 46.9867L34.9733 46.7733L33.9067 46.3467L33.48 46.1333Z" stroke="white" stroke-width="1.11078" mask="url(#path-1-outside-1_833_26048)"/>
</g>
<path id="Vector_2" d="M12.786 20.4684H12.671L12.5897 20.5497L12.163 20.9764L12.0817 21.0577V21.1728V22.0261V22.1411L12.163 22.2225L12.5897 22.6491L12.671 22.7305H12.786H36.8927H37.0077L37.0891 22.6491L37.5157 22.2225L37.5971 22.1411V22.0261V21.1728V21.0577L37.5157 20.9764L37.0891 20.5497L37.0077 20.4684H36.8927H12.786Z" fill="#4E7CD7" stroke="white" stroke-width="0.55539"/>
<path id="Vector_3" d="M12.786 27.7223H12.671L12.5897 27.8036L12.163 28.2303L12.0817 28.3116V28.4267V29.28V29.3456L12.111 29.4042L12.2177 29.6175L12.2538 29.6899L12.3232 29.7315L12.8565 30.0515L12.9225 30.091H12.9994H34.9727H35.0383L35.0969 30.0617L35.5236 29.8484L35.6064 29.807L35.6478 29.7242L35.9678 29.0842L36.0104 28.999L35.9917 28.9055L35.885 28.3722L35.8685 28.2898L35.8091 28.2303L35.3824 27.8036L35.3011 27.7223H35.186H12.786Z" fill="#4E7CD7" stroke="white" stroke-width="0.55539"/>
<path id="Vector_4" d="M12.786 34.9762H12.671L12.5897 35.0575L12.163 35.4842L12.0817 35.5655V35.6806V36.5339V36.5995L12.111 36.6581L12.2177 36.8714L12.2538 36.9438L12.3232 36.9854L12.8565 37.3054L12.9225 37.3449H12.9994H31.2394H31.3049L31.3636 37.3156L31.7902 37.1023L31.873 37.0609L31.9144 36.9781L32.1278 36.5514L32.1571 36.4928V36.4272V35.7872V35.6722L32.0757 35.5909L31.5424 35.0575L31.4611 34.9762H31.346H12.786Z" fill="#4E7CD7" stroke="white" stroke-width="0.55539"/>
<path id="Vector_5" d="M12.8927 42.2291H12.7953L12.7192 42.29L12.1859 42.7167L12.0817 42.8V42.9335V43.8935V44.027L12.1859 44.1103L12.7192 44.537L12.7953 44.5979H12.8927H27.9327H27.9983L28.0569 44.5685L28.2702 44.4619L28.3248 44.4346L28.3629 44.387L28.7896 43.8536L28.8646 43.7598L28.8476 43.6409L28.7409 42.8942L28.7254 42.7854L28.6395 42.7167L28.1062 42.29L28.0301 42.2291H27.9327H12.8927Z" fill="#4E7CD7" stroke="white" stroke-width="0.55539"/>
<path id="Vector_6" d="M23.6666 13.109H23.6215L23.5788 13.1233L23.2588 13.2299L23.181 13.2559L23.1297 13.3199L22.7031 13.8532L22.6298 13.9448L22.6444 14.0612L22.751 14.9145L22.7657 15.0315L22.86 15.1022L23.2866 15.4222L23.3607 15.4777H23.4533H36.8933H37.0083L37.0896 15.3964L37.5163 14.9697L37.5976 14.8884V14.7734V13.9201V13.836L37.551 13.766L37.3376 13.446L37.2898 13.3743L37.2097 13.3422L36.6764 13.1289L36.6267 13.109H36.5733H23.6666Z" fill="#4E7CD7" stroke="white" stroke-width="0.55539"/>
</g>
</svg>
