<svg width="60" height="60" viewBox="0 0 60 60" fill="none" xmlns="http://www.w3.org/2000/svg">
<g id="free-icon-instructions-831629 1 - traced" clip-path="url(#clip0_833_25953)">
<path id="Vector" d="M28.3594 0H31.6406L33.2812 0.351562L34.9219 0.9375L36.6797 1.875L37.9688 2.92969L38.9062 3.75L39.7266 4.80469L54.375 4.92188L55.1953 5.27344L55.7812 5.85938L56.0156 6.32812V10.8984H58.125L59.1797 11.25L59.7656 11.8359L60 12.3047V54.7266L59.5312 55.4297L58.9453 55.8984L58.5938 56.0156H36.3281L36.0938 56.6016L35.1562 57.8906L34.1016 58.8281L32.2266 59.7656L31.2891 60H28.7109L27.1875 59.5312L25.8984 58.8281L24.6094 57.6562L23.6719 56.25V56.0156H1.40625L0.703125 55.6641L0.117188 54.9609L0 54.7266V12.3047L0.46875 11.4844L1.28906 11.0156L1.875 10.8984H3.98438V6.32812L4.45312 5.50781L5.15625 5.03906L5.625 4.92188L20.2734 4.80469L21.2109 3.63281L22.1484 2.8125L23.5547 1.75781L25.3125 0.820312L27.0703 0.234375L28.3594 0ZM28.5938 2.10938L26.7188 2.57812L24.7266 3.51562L23.5547 4.45312L22.6172 5.27344L21.5625 6.67969L20.625 8.55469L20.1562 10.3125L20.0391 11.25V12.7734L20.3906 14.7656L21.0938 16.5234L21.9141 17.8125L23.0859 19.2188L24.6094 20.3906L26.4844 21.3281L28.0078 21.7969L28.8281 21.9141H31.1719L32.9297 21.5625L34.8047 20.7422L36.0938 19.9219L37.2656 18.8672L38.4375 17.3438L39.375 15.4688L39.8438 13.7109L39.9609 12.7734V11.25L39.6094 9.25781L38.9062 7.5L38.2031 6.32812L37.1484 5.03906L36.0938 4.10156L34.6875 3.16406L32.9297 2.46094L31.4062 2.10938H28.5938ZM6.09375 7.03125V39.9609L24.9609 40.0781L26.3672 40.4297L28.2422 41.3672L28.9453 41.9531V24.0234L27.8906 23.7891L25.6641 23.2031L23.7891 22.2656L22.2656 21.2109L21.3281 20.3906L20.0391 18.75L18.8672 16.5234L18.2812 14.5312L18.0469 12.8906V11.0156L18.3984 9.02344L18.9844 7.26562V7.03125H6.09375ZM41.0156 7.03125L41.3672 8.20312L41.8359 10.0781L41.9531 11.0156V12.8906L41.7188 14.5312L41.1328 16.5234L39.9609 18.75L39.0234 19.9219L38.5547 20.5078L37.2656 21.5625L35.625 22.6172L33.9844 23.3203L32.1094 23.7891L31.0547 24.0234V41.9531L31.9922 41.25L33.8672 40.3125L35.0391 40.0781L53.9062 39.9609V7.03125H41.0156ZM2.10938 13.0078V53.9062L24.4922 54.0234L25.0781 54.2578L26.0156 56.0156L26.9531 56.9531L28.5938 57.7734L29.0625 57.8906H30.9375L32.2266 57.4219L33.2812 56.7188L34.1016 55.7812L34.9219 54.2578L35.5078 54.0234L57.8906 53.9062V13.0078H56.0156L55.8984 50.625L55.4297 51.4453L54.6094 51.9141H5.39062L4.57031 51.4453L4.10156 50.625L3.98438 13.0078H2.10938ZM6.09375 42.0703V45L24.4922 45.1172L24.8438 45.2344L24.9609 46.1719L24.7266 46.7578L24.0234 46.9922L6.09375 47.1094V49.9219H28.9453V46.5234L28.5938 45.1172L28.0078 44.0625L27.5391 43.4766L26.6016 42.7734L25.6641 42.3047L24.6094 42.0703H6.09375ZM35.3906 42.0703L34.1016 42.4219L33.0469 43.0078L32.4609 43.4766L31.7578 44.4141L31.1719 45.8203L31.0547 46.5234V49.9219H53.9062V47.1094L35.9766 46.9922L35.2734 46.7578L35.0391 46.1719L35.1562 45.2344L35.5078 45.1172L53.9062 45V42.0703H35.3906Z" fill="#4E7CD7"/>
<path id="Vector_2" d="M36.6797 32.9297H51.2109L51.7969 33.2812L52.0312 33.5156V34.4531L51.4453 35.0391H36.5625L35.9766 34.4531V33.5156L36.4453 33.0469L36.6797 32.9297Z" fill="#4E7CD7"/>
<path id="Vector_3" d="M8.78906 32.9297H23.3203L23.7891 33.1641L24.0234 33.5156V34.4531L23.4375 35.0391H8.55469L7.96875 34.4531V33.5156L8.4375 33.0469L8.78906 32.9297Z" fill="#4E7CD7"/>
<path id="Vector_4" d="M36.9141 27.8906H51.0938L51.6797 28.125L52.0312 28.5938V29.4141L51.4453 30H36.5625L35.9766 29.4141V28.5938L36.4453 28.0078L36.9141 27.8906Z" fill="#4E7CD7"/>
<path id="Vector_5" d="M8.90625 27.8906H23.0859L23.6719 28.125L24.0234 28.5938V29.4141L23.4375 30H8.55469L7.96875 29.4141V28.5938L8.4375 28.0078L8.90625 27.8906Z" fill="#4E7CD7"/>
<path id="Vector_6" d="M40.5469 22.9688H51.4453L52.0312 23.5547V24.4922L51.5625 24.9609L51.2109 25.0781H40.7812L40.1953 24.7266L39.9609 24.375V23.5547L40.5469 22.9688Z" fill="#4E7CD7"/>
<path id="Vector_7" d="M8.55469 22.9688H19.4531L20.0391 23.5547V24.375L19.5703 24.9609L19.2188 25.0781H8.78906L8.20312 24.7266L7.96875 24.4922V23.5547L8.55469 22.9688Z" fill="#4E7CD7"/>
<path id="Vector_8" d="M29.8828 8.90625L30.7031 9.14062L31.0547 9.60938V18.3984L30.4688 18.9844L29.8828 19.1016L29.1797 18.75L28.9453 18.3984V9.60938L29.5312 9.02344L29.8828 8.90625Z" fill="#4E7CD7"/>
<path id="Vector_9" d="M29.5312 3.98438H30.4688L30.9375 4.45312L31.0547 4.6875V6.32812L30.8203 6.79688L30.4688 7.03125H29.5312L29.0625 6.5625L28.9453 6.32812V4.6875L29.1797 4.21875L29.5312 3.98438Z" fill="#4E7CD7"/>
</g>
<defs>
<clipPath id="clip0_833_25953">
<rect width="60" height="60" fill="white"/>
</clipPath>
</defs>
</svg>
