<svg width="60" height="60" viewBox="0 0 60 60" fill="none" xmlns="http://www.w3.org/2000/svg">
<g id="Capa_1" clip-path="url(#clip0_833_26039)">
<g id="Group">
<g id="Group_2">
<path id="Vector" d="M56.9288 23.7015L52.7174 22.9871C52.2788 21.5708 51.7147 20.2046 51.0254 18.9011L53.5071 15.4292C54.5599 13.9502 54.397 11.9322 53.106 10.6538L49.3709 6.91869C48.669 6.2168 47.7415 5.82825 46.7513 5.82825C45.9742 5.82825 45.2347 6.06639 44.608 6.51761L41.1236 8.99932C39.77 8.28489 38.3536 7.69579 36.8872 7.25711L36.1853 3.09587C35.8845 1.30352 34.3428 0 32.5254 0H27.2486C25.4312 0 23.8895 1.30352 23.5887 3.09587L22.8618 7.35738C21.458 7.79607 20.0918 8.37262 18.7883 9.07452L15.3415 6.59281C14.7148 6.1416 13.9627 5.90345 13.1856 5.90345C12.1955 5.90345 11.2554 6.292 10.566 6.9939L6.81842 10.729C5.53997 12.0074 5.36449 14.0254 6.41734 15.5044L8.92411 19.0264C8.23475 20.3425 7.68326 21.7087 7.25711 23.125L3.09587 23.8269C1.30352 24.1277 0 25.6694 0 27.4868V32.7635C0 34.5809 1.30352 36.1226 3.09587 36.4234L7.35738 37.1504C7.79606 38.5542 8.37262 39.9204 9.07452 41.2239L6.60535 44.6582C5.5525 46.1372 5.71544 48.1551 7.00643 49.4336L10.7415 53.1687C11.4434 53.8706 12.3709 54.2591 13.3611 54.2591C14.1382 54.2591 14.8777 54.021 15.5044 53.5697L19.0264 51.063C20.2923 51.7273 21.6209 52.2662 22.9871 52.6924L23.689 56.9038C23.9898 58.6961 25.5315 59.9996 27.3489 59.9996H32.6382C34.4556 59.9996 35.9973 58.6961 36.2981 56.9038L37.0125 52.6924C38.4288 52.2537 39.795 51.6897 41.0985 51.0003L44.5704 53.482C45.1971 53.9332 45.9492 54.1714 46.7262 54.1714C47.7164 54.1714 48.6439 53.7828 49.3458 53.0809L53.0809 49.3458C54.3594 48.0674 54.5349 46.0494 53.482 44.5704L51.0003 41.086C51.6897 39.77 52.2662 38.4038 52.6924 37L56.9038 36.2981C58.6961 35.9973 59.9996 34.4556 59.9996 32.6382V27.3614C60.0247 25.544 58.7212 24.0024 56.9288 23.7015ZM56.6405 32.6382C56.6405 32.8011 56.5277 32.939 56.3648 32.9641L51.1006 33.8414C50.4363 33.9542 49.9099 34.4431 49.7469 35.0823C49.2706 36.9248 48.5437 38.692 47.566 40.334C47.2276 40.9105 47.2527 41.625 47.6412 42.1765L50.7371 46.5382C50.8248 46.6636 50.8123 46.8516 50.6995 46.9644L46.9644 50.6995C46.8767 50.7872 46.7889 50.7998 46.7262 50.7998C46.651 50.7998 46.5884 50.7747 46.5382 50.7371L42.189 47.6412C41.65 47.2527 40.9231 47.2276 40.3465 47.566C38.7046 48.5437 36.9373 49.2706 35.0948 49.7469C34.4431 49.9099 33.9542 50.4488 33.854 51.1006L32.9641 56.3648C32.939 56.5277 32.8011 56.6405 32.6382 56.6405H27.3614C27.1985 56.6405 27.0606 56.5277 27.0355 56.3648L26.1582 51.1006C26.0454 50.4363 25.5566 49.9099 24.9173 49.7469C23.125 49.2832 21.3953 48.5687 19.7784 47.6412C19.5152 47.4908 19.2144 47.4156 18.9261 47.4156C18.5877 47.4156 18.2368 47.5159 17.9485 47.729L13.5616 50.8499C13.499 50.8875 13.4363 50.9126 13.3736 50.9126C13.3235 50.9126 13.2232 50.9 13.1355 50.8123L9.4004 47.0772C9.28759 46.9644 9.27506 46.7889 9.3628 46.6511L12.4461 42.3269C12.8347 41.7754 12.8597 41.0484 12.5213 40.4719C11.5437 38.8425 10.7917 37.0752 10.3154 35.2327C10.1399 34.5935 9.61347 34.1047 8.96171 33.9918L3.65989 33.0894C3.49695 33.0643 3.38414 32.9265 3.38414 32.7635V27.4868C3.38414 27.3238 3.49695 27.186 3.65989 27.1609L8.88651 26.2835C9.55081 26.1707 10.0898 25.6819 10.2527 25.0301C10.7165 23.1877 11.4309 21.4078 12.396 19.7659C12.7344 19.1894 12.6968 18.4749 12.3083 17.936L9.18732 13.5491C9.09959 13.4238 9.11212 13.2358 9.22493 13.123L12.96 9.38787C13.0478 9.30013 13.1355 9.2876 13.1982 9.2876C13.2734 9.2876 13.336 9.31266 13.3862 9.35026L17.7104 12.4336C18.2618 12.8221 18.9888 12.8472 19.5654 12.5088C21.1948 11.5312 22.962 10.7791 24.8045 10.3028C25.4437 10.1274 25.9326 9.60094 26.0454 8.94918L26.9478 3.64736C26.9729 3.48442 27.1108 3.37161 27.2737 3.37161H32.5504C32.7134 3.37161 32.8513 3.48442 32.8763 3.64736L33.7537 8.87398C33.8665 9.53827 34.3553 10.0772 35.0071 10.2402C36.8997 10.7165 38.7046 11.456 40.3841 12.4461C40.9607 12.7845 41.6751 12.7595 42.2266 12.3709L46.5508 9.26253C46.6134 9.22493 46.6761 9.19986 46.7388 9.19986C46.7889 9.19986 46.8892 9.21239 46.9769 9.30013L50.712 13.0352C50.8248 13.148 50.8374 13.3235 50.7496 13.4614L47.6538 17.8106C47.2652 18.3496 47.2401 19.0765 47.5786 19.6531C48.5562 21.295 49.2832 23.0623 49.7594 24.9048C49.9224 25.5566 50.4613 26.0454 51.1131 26.1456L56.3773 27.0356C56.5403 27.0606 56.6531 27.1985 56.6531 27.3614V32.6382H56.6405Z" fill="#4E7CD7" stroke="white"/>
<path id="Vector_2" d="M30.0061 17.0459C22.8618 17.0459 17.0586 22.8491 17.0586 29.9934C17.0586 37.1377 22.8618 42.9409 30.0061 42.9409C37.1504 42.9409 42.9536 37.1377 42.9536 29.9934C42.9536 22.8491 37.1504 17.0459 30.0061 17.0459ZM30.0061 39.5567C24.7293 39.5567 20.4427 35.2701 20.4427 29.9934C20.4427 24.7166 24.7293 20.43 30.0061 20.43C35.2828 20.43 39.5694 24.7166 39.5694 29.9934C39.5694 35.2701 35.2828 39.5567 30.0061 39.5567Z" fill="#4E7CD7" stroke="white"/>
</g>
</g>
</g>
<defs>
<clipPath id="clip0_833_26039">
<rect width="60" height="60" fill="white"/>
</clipPath>
</defs>
</svg>
