<svg xmlns="http://www.w3.org/2000/svg" width="29" height="24" viewBox="0 0 29 24" fill="none">
  <path d="M25.0166 18.821C24.7821 18.821 24.5918 19.0113 24.5918 19.2458C24.5918 19.4806 24.7821 19.6707 25.0166 19.6707H25.0212C25.2558 19.6707 25.4436 19.4806 25.4436 19.2458C25.4436 19.0113 25.2511 18.821 25.0166 18.821Z" fill="#4E7CD7"/>
  <path d="M12.3096 18.821C12.075 18.821 11.8848 19.0113 11.8848 19.2458C11.8848 19.4806 12.075 19.6707 12.3096 19.6707H12.3142C12.5487 19.6707 12.7368 19.4806 12.7368 19.2458C12.7368 19.0113 12.5443 18.821 12.3096 18.821Z" fill="#4E7CD7"/>
  <path d="M28.8452 17.2995C28.7211 17.1378 28.5352 17.0362 28.3255 17.0119L28.9133 14.8182C29.0461 14.3224 28.9636 13.8312 28.6868 13.4703C28.4323 13.1387 28.0476 12.9468 27.5964 12.9243L27.7365 9.89443C27.7555 9.48069 27.6201 9.10014 27.3553 8.82291C27.0851 8.54015 26.6993 8.38416 26.2689 8.38416H23.2645C23.2358 8.20517 23.1663 8.03879 23.0581 7.89763C22.8528 7.63013 22.5249 7.47681 22.1587 7.47681H11.268C10.5762 7.47681 9.89049 8.01357 9.70686 8.69923L9.22054 10.5144C9.1597 10.7409 9.29422 10.9739 9.521 11.0348C9.74734 11.0952 9.98032 10.9609 10.0412 10.7343L10.5275 8.91915C10.6122 8.60342 10.9583 8.32642 11.268 8.32642H22.1587C22.2304 8.32642 22.3278 8.34168 22.384 8.41492C22.4335 8.4793 22.4439 8.58307 22.4129 8.69923L19.7004 18.8211H14.6145C14.6231 18.3958 14.5023 17.9976 14.26 17.6816C13.9257 17.246 13.4066 17.0059 12.7986 17.0059C11.7059 17.0059 10.6211 17.7812 10.1936 18.8211H8.22823C8.15632 18.8211 8.05919 18.8058 8.00299 18.7326C7.95343 18.6682 7.94303 18.5644 7.97401 18.4483L9.47034 12.8641H10.8618C11.0963 12.8641 11.2866 12.6738 11.2866 12.4393C11.2866 12.2045 11.0963 12.0145 10.8618 12.0145H5.87012C5.63559 12.0145 5.44531 12.2045 5.44531 12.4393C5.44531 12.6738 5.63559 12.8641 5.87012 12.8641H8.59086L7.15338 18.2283C7.05338 18.6018 7.11732 18.9742 7.32906 19.2499C7.53416 19.5174 7.86205 19.6707 8.22823 19.6707H10.01C10.0011 20.0959 10.1219 20.4944 10.3644 20.8104C10.6987 21.246 11.2178 21.4858 11.8258 21.4858C12.9186 21.4858 14.0034 20.7106 14.4308 19.6709H20.025H20.0267H20.0281H22.7158C22.707 20.0959 22.828 20.4944 23.0703 20.8104C23.4046 21.246 23.9237 21.4861 24.5317 21.4861C25.6244 21.4861 26.7092 20.7108 27.1367 19.6709H27.7407C28.1852 19.6709 28.6091 19.3404 28.7264 18.9023L28.9695 17.9947C29.0368 17.7436 28.9917 17.4902 28.8452 17.2995ZM13.7171 19.1359C13.4991 19.9492 12.6331 20.6362 11.8258 20.6362C11.4879 20.6362 11.2083 20.5143 11.0386 20.2931C10.8558 20.055 10.8094 19.7222 10.9074 19.3559C11.1253 18.5427 11.9915 17.8555 12.7986 17.8555C13.1365 17.8555 13.4162 17.9774 13.5861 18.1989C13.7686 18.437 13.8151 18.7698 13.7171 19.1359ZM26.7466 12.9221L23.9759 12.9218L24.4405 11.1879C24.4591 11.1188 24.5522 11.0489 24.6056 11.0489H26.8329L26.7466 12.9221ZM21.4467 15.5868H25.6585C25.8932 15.5868 26.0833 15.3965 26.0833 15.162C26.0833 14.9273 25.8932 14.7372 25.6585 14.7372H21.6744L23.149 9.23377H26.2687C26.4676 9.23377 26.6309 9.29462 26.7409 9.40989C26.8453 9.51897 26.896 9.67318 26.8878 9.85571L26.8718 10.1993H24.6056C24.1611 10.1993 23.7371 10.5299 23.6199 10.9679L23.1336 12.7831C23.0663 13.034 23.1117 13.2873 23.2579 13.4781C23.4011 13.6646 23.6263 13.7717 23.8761 13.7717H27.5062C27.7259 13.7717 27.9058 13.8484 28.0124 13.9876C28.129 14.1394 28.1573 14.3562 28.0925 14.5983L28.0553 14.7372H27.4736C27.2391 14.7372 27.0488 14.9275 27.0488 15.162C27.0488 15.3965 27.2391 15.5868 27.4736 15.5868H27.8276L27.4473 17.0061H25.5045C24.4115 17.0061 23.3269 17.7814 22.8995 18.8213H20.5801L21.4467 15.5868ZM26.4229 19.1359C26.205 19.9492 25.339 20.6362 24.5317 20.6362C24.1938 20.6362 23.9141 20.5143 23.7444 20.2931C23.5617 20.055 23.5152 19.7222 23.6132 19.3559C23.8312 18.5427 24.6974 17.8555 25.5045 17.8555C25.8424 17.8555 26.122 17.9774 26.2919 18.1989C26.4745 18.437 26.5209 18.7698 26.4229 19.1359ZM27.9058 18.6821C27.8874 18.7512 27.7942 18.8211 27.7407 18.8211H27.3203C27.3274 18.4706 27.2469 18.1385 27.0825 17.8558H28.1272L27.9058 18.6821Z" fill="#4E7CD7"/>
  <path d="M8.5638 7.90137C8.5638 7.66684 8.37374 7.47656 8.13899 7.47656H0.424805C0.190277 7.47656 0 7.66684 0 7.90137C0 8.13589 0.190277 8.32617 0.424805 8.32617H8.13899C8.37374 8.32617 8.5638 8.13589 8.5638 7.90137Z" fill="#4E7CD7"/>
  <path d="M8.11015 10.1704C8.11015 9.93588 7.91988 9.74561 7.68535 9.74561H3.14746C2.91271 9.74561 2.72266 9.93588 2.72266 10.1704C2.72266 10.4049 2.91271 10.5952 3.14746 10.5952H7.68513C7.91988 10.5952 8.11015 10.4049 8.11015 10.1704Z" fill="#4E7CD7"/>
</svg>