<svg width="48" height="48" viewBox="0 0 48 48" fill="none" xmlns="http://www.w3.org/2000/svg">
<g id="Capa_1">
<g id="Group">
<g id="Group_2">
<path id="Vector" d="M9.98342 39.1944C10.663 39.1944 11.2139 38.6435 11.2139 37.9639C11.2139 37.2843 10.663 36.7334 9.98342 36.7334C9.30384 36.7334 8.75293 37.2843 8.75293 37.9639C8.75293 38.6435 9.30384 39.1944 9.98342 39.1944Z" fill="white"/>
</g>
</g>
<g id="Group_3">
<g id="Group_4">
<path id="Vector_2" d="M42.9426 30.2564C42.9345 30.2504 42.9264 30.2444 42.9181 30.2385C40.0214 28.1757 34.0983 23.9574 31.3883 22.0274L31.8046 21.5473C31.8078 21.5435 31.8111 21.5398 31.8143 21.536C32.0485 21.2591 32.3909 21.1003 32.7535 21.1003H37.5534C38.5395 21.1003 39.4663 20.7163 40.1635 20.0191L44.1985 15.9842C46.5972 13.5855 46.5972 9.68238 44.1985 7.28357C43.9677 7.05281 43.6547 6.92312 43.3284 6.92312C43.0021 6.92312 42.689 7.05273 42.4584 7.28349L38.978 10.7638C38.4983 11.2436 37.7176 11.2436 37.238 10.7638C36.757 10.2829 36.757 9.50462 37.238 9.02374L40.7182 5.54341C41.1987 5.06286 41.1987 4.28379 40.7182 3.80332C38.3141 1.3991 34.4221 1.39869 32.0176 3.80332L27.9827 7.83836C27.2854 8.53556 26.8872 9.46253 26.8872 10.4486V15.2483C26.8872 15.6111 26.7426 15.9534 26.4657 16.1877C26.4628 16.1901 26.4599 16.1926 26.457 16.1951L24.8234 17.6038L18.5695 11.3499L16.9215 6.40516C16.8189 6.09746 16.5989 5.84266 16.3095 5.69623L9.267 2.13403C8.7926 1.89409 8.21763 1.98588 7.84151 2.36184L4.36118 5.84217C3.98514 6.21813 3.89326 6.79318 4.13329 7.26757L7.69566 14.3102C7.842 14.5996 8.09688 14.8195 8.40458 14.9222L13.3494 16.5704L19.2174 22.4384L6.18289 33.6786C5.00227 34.6796 4.24453 36.0741 4.04888 37.6063C3.84511 39.2025 4.28276 40.7379 5.28126 41.9293C7.60124 44.6976 11.802 44.6724 14.0969 41.9686L23.8697 30.6983C24.7607 31.7869 31.4417 39.9504 32.2722 40.9652C35.0633 44.6595 40.4833 45.0378 43.7602 41.7609C47.0452 38.476 46.6553 33.0409 42.9426 30.2564ZM14.8841 14.6249C14.7491 14.4898 14.5844 14.388 14.4032 14.3276L9.66314 12.7476L6.73169 6.95216L8.95142 4.73226L14.7469 7.66379L16.3268 12.4038C16.3872 12.585 16.4891 12.7498 16.6241 12.8848L22.9549 19.2154L21.0861 20.8269L14.8841 14.6249ZM12.2336 40.3611C12.2304 40.3649 12.2271 40.3686 12.2239 40.3724C10.9138 41.9208 8.50622 41.946 7.16745 40.3486C6.03006 38.9915 6.3093 36.7954 7.77744 35.5532C7.78031 35.5507 7.78327 35.5482 7.78614 35.5457C18.7138 26.1375 25.356 20.3943 28.0602 18.0624C28.888 17.3597 29.3483 16.3344 29.3483 15.2483V10.4486C29.3483 10.1199 29.4905 9.81093 29.7229 9.57853L33.7579 5.54357C34.9144 4.38699 36.6157 4.17764 37.9603 4.82135L35.4981 7.28365C34.0588 8.72292 34.0588 11.0648 35.4981 12.5041C36.9373 13.9433 39.2793 13.9433 40.7184 12.5041L43.1796 10.043C43.8333 11.415 43.593 13.1099 42.4586 14.2442L38.4237 18.2792C38.1913 18.5116 37.8822 18.656 37.5536 18.656H32.7538C31.6686 18.656 30.644 19.1135 29.9414 19.9401L12.2336 40.3611ZM25.5058 28.8116L29.7688 23.8953L31.7387 25.2982L27.1434 30.8126L25.5058 28.8116ZM42.0201 40.0208C39.7943 42.2464 36.1116 41.9829 34.2246 39.4668C34.2141 39.453 34.2034 39.4393 34.1924 39.4258L28.7306 32.752L33.7491 26.7298L41.4775 32.2337C43.9871 34.1267 44.2391 37.8019 42.0201 40.0208Z" fill="white"/>
</g>
</g>
</g>
</svg>
