<svg width="48" height="48" viewBox="0 0 48 48" fill="none" xmlns="http://www.w3.org/2000/svg">
<g id="Capa_1" clip-path="url(#clip0_404_4972)">
<g id="Group">
<g id="Group_2">
<path id="Vector" d="M45.5431 18.9615L42.174 18.3899C41.823 17.2569 41.3718 16.1639 40.8203 15.1211L42.8057 12.3436C43.6479 11.1604 43.5176 9.54604 42.4848 8.52327L39.4967 5.5352C38.9352 4.97368 38.1932 4.66284 37.4011 4.66284C36.7794 4.66284 36.1878 4.85336 35.6864 5.21433L32.8989 7.1997C31.816 6.62815 30.6829 6.15688 29.5097 5.80593L28.9482 2.47694C28.7076 1.04306 27.4742 0.000244141 26.0203 0.000244141H21.7989C20.345 0.000244141 19.1116 1.04306 18.871 2.47694L18.2894 5.88615C17.1664 6.2371 16.0734 6.69834 15.0306 7.25986L12.2732 5.2745C11.7718 4.91352 11.1702 4.72301 10.5485 4.72301C9.75636 4.72301 9.00433 5.03384 8.45284 5.59536L5.45474 8.58344C4.43198 9.6062 4.2916 11.2206 5.13387 12.4038L7.13929 15.2214C6.5878 16.2742 6.14661 17.3672 5.80569 18.5002L2.47669 19.0617C1.04282 19.3024 0 20.5357 0 21.9897V26.2111C0 27.665 1.04282 28.8983 2.47669 29.139L5.8859 29.7205C6.23685 30.8436 6.6981 31.9365 7.25962 32.9794L5.28428 35.7268C4.442 36.91 4.57235 38.5243 5.60514 39.5471L8.59322 42.5352C9.15474 43.0967 9.89674 43.4075 10.6889 43.4075C11.3106 43.4075 11.9022 43.217 12.4035 42.856L15.2211 40.8506C16.2339 41.3821 17.2967 41.8132 18.3897 42.1541L18.9512 45.5232C19.1919 46.9571 20.4252 47.9999 21.8791 47.9999H26.1105C27.5645 47.9999 28.7978 46.9571 29.0385 45.5232L29.61 42.1541C30.7431 41.8032 31.836 41.352 32.8788 40.8005L35.6563 42.7859C36.1577 43.1468 36.7593 43.3373 37.381 43.3373C38.1731 43.3373 38.9151 43.0265 39.4767 42.465L42.4647 39.4769C43.4875 38.4541 43.6279 36.8398 42.7856 35.6566L40.8002 32.8691C41.3517 31.8162 41.813 30.7233 42.1539 29.6002L45.523 29.0387C46.9569 28.7981 47.9997 27.5647 47.9997 26.1108V21.8894C48.0197 20.4355 46.9769 19.2021 45.5431 18.9615ZM45.3124 26.1108C45.3124 26.2411 45.2222 26.3514 45.0918 26.3715L40.8805 27.0734C40.349 27.1636 39.9279 27.5547 39.7975 28.0661C39.4165 29.5401 38.8349 30.9539 38.0528 32.2674C37.7821 32.7287 37.8021 33.3002 38.113 33.7414L40.5897 37.2308C40.6599 37.3311 40.6498 37.4815 40.5596 37.5718L37.5715 40.5598C37.5013 40.63 37.4311 40.6401 37.381 40.6401C37.3208 40.6401 37.2707 40.62 37.2306 40.5899L33.7512 38.1132C33.32 37.8024 32.7385 37.7823 32.2772 38.0531C30.9637 38.8352 29.5498 39.4167 28.0759 39.7978C27.5545 39.9281 27.1634 40.3593 27.0832 40.8807L26.3713 45.0921C26.3512 45.2224 26.2409 45.3127 26.1105 45.3127H21.8891C21.7588 45.3127 21.6485 45.2224 21.6284 45.0921L20.9265 40.8807C20.8363 40.3493 20.4452 39.9281 19.9339 39.7978C18.5 39.4268 17.1162 38.8552 15.8228 38.1132C15.6122 37.9929 15.3715 37.9327 15.1409 37.9327C14.8702 37.9327 14.5894 38.013 14.3588 38.1834L10.8493 40.6802C10.7992 40.7102 10.749 40.7303 10.6989 40.7303C10.6588 40.7303 10.5786 40.7203 10.5084 40.6501L7.52032 37.662C7.43008 37.5718 7.42005 37.4314 7.49024 37.3211L9.9569 33.8617C10.2677 33.4205 10.2878 32.839 10.0171 32.3777C9.23495 31.0742 8.63333 29.6604 8.2523 28.1864C8.11192 27.675 7.69078 27.284 7.16937 27.1937L2.92791 26.4718C2.79756 26.4517 2.70731 26.3414 2.70731 26.2111V21.9897C2.70731 21.8593 2.79756 21.749 2.92791 21.729L7.10921 21.0271C7.64065 20.9368 8.07181 20.5458 8.20216 20.0243C8.57316 18.5504 9.14471 17.1265 9.91679 15.813C10.1875 15.3517 10.1574 14.7802 9.8466 14.349L7.34986 10.8395C7.27967 10.7393 7.2897 10.5889 7.37994 10.4986L10.368 7.51054C10.4382 7.44035 10.5084 7.43032 10.5585 7.43032C10.6187 7.43032 10.6688 7.45037 10.7089 7.48046L14.1683 9.94712C14.6095 10.258 15.191 10.278 15.6523 10.0073C16.9558 9.22517 18.3696 8.62354 19.8436 8.24251C20.355 8.10214 20.7461 7.681 20.8363 7.15959L21.5582 2.91813C21.5783 2.78778 21.6886 2.69753 21.819 2.69753H26.0404C26.1707 2.69753 26.281 2.78778 26.3011 2.91813L27.003 7.09943C27.0932 7.63086 27.4843 8.06203 28.0057 8.19238C29.5198 8.57341 30.9637 9.16501 32.3073 9.95715C32.7685 10.2279 33.3401 10.2078 33.7813 9.89699L37.2406 7.41027C37.2908 7.38019 37.3409 7.36013 37.391 7.36013C37.4311 7.36013 37.5114 7.37016 37.5815 7.44035L40.5696 10.4284C40.6599 10.5187 40.6699 10.659 40.5997 10.7693L38.123 14.2487C37.8122 14.6799 37.7921 15.2615 38.0628 15.7227C38.845 17.0363 39.4265 18.4501 39.8076 19.9241C39.9379 20.4455 40.3691 20.8365 40.8905 20.9168L45.1019 21.6287C45.2322 21.6487 45.3225 21.759 45.3225 21.8894V26.1108H45.3124Z" fill="white"/>
<path id="Vector_2" d="M24.005 13.637C18.2895 13.637 13.647 18.2795 13.647 23.995C13.647 29.7104 18.2895 34.3529 24.005 34.3529C29.7204 34.3529 34.363 29.7104 34.363 23.995C34.363 18.2795 29.7204 13.637 24.005 13.637ZM24.005 31.6456C19.7836 31.6456 16.3543 28.2164 16.3543 23.995C16.3543 19.7735 19.7836 16.3443 24.005 16.3443C28.2264 16.3443 31.6556 19.7735 31.6556 23.995C31.6556 28.2164 28.2264 31.6456 24.005 31.6456Z" fill="white"/>
</g>
</g>
</g>
<defs>
<clipPath id="clip0_404_4972">
<rect width="48" height="48" fill="white"/>
</clipPath>
</defs>
</svg>
