<svg width="48" height="48" viewBox="0 0 48 48" fill="none" xmlns="http://www.w3.org/2000/svg">
<g id="Capa_1" clip-path="url(#clip0_404_4941)">
<g id="Group">
<g id="Group_2">
<g id="Group_3">
<path id="Vector" d="M7.0585 40.9419C9.25777 43.1411 11.8196 44.868 14.6731 46.075C17.6293 47.3253 20.7673 47.9592 24.0002 47.9592C27.233 47.9592 30.3711 47.3253 33.3273 46.075C36.1807 44.868 38.7426 43.141 40.942 40.9419C43.1412 38.7425 44.8683 36.1807 46.0751 33.3272C47.3254 30.371 47.9595 27.2329 47.9595 24.0002C47.9595 20.7672 47.3254 17.6292 46.0751 14.6731C44.8683 11.8196 43.1411 9.25777 40.942 7.0585C38.7426 4.85922 36.1808 3.13218 33.3273 1.9253C30.371 0.674909 27.233 0.0410156 24.0002 0.0410156C20.7673 0.0410156 17.6293 0.67499 14.6731 1.9253C11.8196 3.13218 9.25777 4.8593 7.0585 7.0585C4.85922 9.25769 3.13218 11.8196 1.92522 14.6731C0.67499 17.6292 0.0410156 20.7672 0.0410156 24.0002C0.0410156 27.233 0.67499 30.371 1.9253 33.3272C3.13218 36.1807 4.8593 38.7425 7.0585 40.9419ZM24.0002 3.53869C35.3008 3.53869 44.4616 12.6996 44.4616 24.0002C44.4616 35.3007 35.3008 44.4615 24.0002 44.4615C12.6996 44.4615 3.53869 35.3007 3.53869 24.0002C3.53869 12.6996 12.6996 3.53869 24.0002 3.53869Z" fill="white"/>
<path id="Vector_2" d="M24 48.0001C20.7614 48.0001 17.618 47.3651 14.657 46.1127C11.7986 44.9036 9.23235 43.1736 7.02948 40.9708C4.82645 38.7677 3.09647 36.2013 1.88755 33.3431C0.635036 30.3819 0 27.2385 0 24.0002C0 20.762 0.635036 17.6185 1.88747 14.6572C3.09639 11.7989 4.82645 9.23268 7.0294 7.02965C9.23235 4.82662 11.7987 3.09664 14.6569 1.88772C17.6182 0.63528 20.7616 0.000244141 23.9999 0.000244141C27.2385 0.000244141 30.3819 0.63528 33.3428 1.8878C36.2011 3.09672 38.7674 4.82678 40.9705 7.02973C43.1736 9.23292 44.9036 11.7992 46.1124 14.6573C47.365 17.6185 48 20.762 48 24.0002C48 27.2385 47.365 30.3819 46.1124 33.3431C44.9036 36.2013 43.1737 38.7676 40.9705 40.9708C38.7676 43.1736 36.2012 44.9036 33.3428 46.1128C30.3819 47.3651 27.2385 48.0001 24 48.0001ZM24 0.0818893C20.7726 0.0818893 17.64 0.714721 14.6889 1.96291C11.8403 3.16775 9.28273 4.89185 7.08721 7.08737C4.89161 9.28297 3.16751 11.8405 1.96267 14.6889C0.714477 17.6402 0.0816452 20.7729 0.0816452 24.0002C0.0816452 27.2274 0.714477 30.3602 1.96267 33.3114C3.16751 36.1599 4.89161 38.7174 7.08721 40.913C9.28265 43.1084 11.8402 44.8325 14.6889 46.0375C17.6397 47.2856 20.7724 47.9184 24 47.9184C27.2276 47.9184 30.3602 47.2856 33.3111 46.0374C36.1597 44.8325 38.7174 43.1084 40.9128 40.913C43.1085 38.7172 44.8325 36.1597 46.0372 33.3114C47.2854 30.3602 47.9184 27.2275 47.9184 24.0002C47.9184 20.7729 47.2854 17.6402 46.0372 14.6891C44.8326 11.8408 43.1085 9.28322 40.9128 7.08745C38.7172 4.89193 36.1596 3.16783 33.3111 1.96299C30.3602 0.714721 27.2274 0.0818893 24 0.0818893ZM24 44.5024C18.5237 44.5024 13.375 42.3698 9.50268 38.4975C5.63033 34.6251 3.49768 29.4766 3.49768 24.0002C3.49768 18.5239 5.63025 13.3753 9.50268 9.50292C13.375 5.63058 18.5237 3.49792 24 3.49792C29.4763 3.49792 34.6249 5.63058 38.4972 9.50292C42.3697 13.3754 44.5022 18.5239 44.5022 24.0002C44.5022 29.4766 42.3697 34.6251 38.4972 38.4975C34.6249 42.3698 29.4763 44.5024 24 44.5024ZM24 3.57957C18.5455 3.57957 13.4174 5.70373 9.5604 9.56065C5.70349 13.4176 3.57932 18.5457 3.57932 24.0002C3.57932 29.4548 5.70349 34.5828 9.5604 38.4397C13.4173 42.2966 18.5455 44.4208 24 44.4208C29.4545 44.4208 34.5826 42.2966 38.4395 38.4397C42.2964 34.5828 44.4206 29.4547 44.4206 24.0002C44.4206 18.5457 42.2964 13.4176 38.4395 9.56065C34.5825 5.70365 29.4545 3.57957 24 3.57957Z" fill="white"/>
</g>
<g id="Group_4">
<path id="Vector_3" d="M18.6964 32.7231C19.0243 33.0511 19.4691 33.2352 19.933 33.2352C20.3969 33.2352 20.8416 33.051 21.1696 32.7231L36.1421 17.7506C36.8251 17.0676 36.8251 15.9604 36.1421 15.2774C35.4592 14.5944 34.3518 14.5943 33.6689 15.2774L19.933 29.0134L14.3316 23.4119C13.6486 22.7289 12.5414 22.7289 11.8584 23.4119C11.1755 24.0949 11.1755 25.2022 11.8584 25.8851L18.6964 32.7231Z" fill="white"/>
<path id="Vector_4" d="M19.9329 33.2759C19.4549 33.2759 19.0054 33.0898 18.6674 32.7518L11.8295 25.9138C11.1317 25.216 11.1317 24.0807 11.8295 23.3828C12.1675 23.0447 12.6169 22.8586 13.095 22.8586C13.573 22.8586 14.0224 23.0447 14.3605 23.3828L19.933 28.9554L33.64 15.2483C33.978 14.9102 34.4274 14.7241 34.9055 14.7241C35.3834 14.7241 35.8329 14.9103 36.171 15.2483C36.5091 15.5863 36.6952 16.0358 36.6952 16.5138C36.6952 16.9918 36.5091 17.4412 36.171 17.7793L21.1984 32.7518C20.8605 33.0898 20.411 33.2759 19.9329 33.2759ZM13.095 22.9403C12.6387 22.9403 12.2098 23.118 11.8873 23.4406C11.2214 24.1066 11.2214 25.1901 11.8873 25.8561L18.7252 32.6941C19.0478 33.0166 19.4767 33.1943 19.9329 33.1943C20.3892 33.1943 20.8181 33.0166 21.1407 32.6941L36.1132 17.7216C36.4358 17.399 36.6135 16.97 36.6135 16.5139C36.6135 16.0577 36.4358 15.6287 36.1132 15.3061C35.7906 14.9834 35.3616 14.8058 34.9054 14.8058C34.4492 14.8058 34.0202 14.9835 33.6976 15.3061L19.9329 29.0709L14.3027 23.4406C13.9801 23.118 13.5512 22.9403 13.095 22.9403Z" fill="white"/>
</g>
</g>
</g>
</g>
<defs>
<clipPath id="clip0_404_4941">
<rect width="48" height="48" fill="white"/>
</clipPath>
</defs>
</svg>
