<svg width="48" height="48" viewBox="0 0 48 48" fill="none" xmlns="http://www.w3.org/2000/svg">
<g id="Frame">
<path id="Vector" fill-rule="evenodd" clip-rule="evenodd" d="M25.2271 3C19.4326 3 14.7271 7.7055 14.7271 13.5C14.7271 19.2945 19.4326 24 25.2271 24C31.0231 24 35.7271 19.2945 35.7271 13.5C35.7271 7.7055 31.0231 3 25.2271 3ZM25.2271 6C29.3671 6 32.7271 9.36 32.7271 13.5C32.7271 17.64 29.3671 21 25.2271 21C21.0886 21 17.7271 17.64 17.7271 13.5C17.7271 9.36 21.0886 6 25.2271 6Z" fill="white"/>
<path id="Vector_2" fill-rule="evenodd" clip-rule="evenodd" d="M7.22705 42H24.0001C24.8281 42 25.5001 42.672 25.5001 43.5C25.5001 44.328 24.8281 45 24.0001 45H5.72705C4.89905 45 4.22705 44.328 4.22705 43.5C4.22705 43.5 4.22705 42.2625 4.22705 40.5C4.22705 33.0435 10.2721 27 17.7271 27H24.0001C24.8281 27 25.5001 27.672 25.5001 28.5C25.5001 29.328 24.8281 30 24.0001 30H17.7271C11.9281 30 7.22705 34.701 7.22705 40.5V42Z" fill="white"/>
<path id="Vector_3" fill-rule="evenodd" clip-rule="evenodd" d="M37.5736 42.918L33.9841 45.3495C33.5236 45.66 32.9296 45.693 32.4406 45.432C31.9501 45.1725 31.6426 44.6625 31.6426 44.1075V34.005C31.6426 33.3825 32.0281 32.823 32.6101 32.6025C33.1936 32.382 33.8521 32.5425 34.2646 33.009C35.0761 33.9225 36.2596 34.5 37.5751 34.5C38.8921 34.5 40.0756 33.9225 40.8856 33.009C41.2996 32.5425 41.9581 32.382 42.5401 32.6025C43.1236 32.823 43.5076 33.3825 43.5076 34.005V44.1075C43.5076 44.6625 43.2016 45.1725 42.7111 45.432C42.2206 45.693 41.6266 45.66 41.1676 45.3495L37.5736 42.918ZM34.6426 36.897V41.28L36.7336 39.8655C37.2406 39.522 37.9066 39.5205 38.4151 39.864L40.5076 41.2815V36.897C39.6091 37.2855 38.6161 37.5 37.5751 37.5C36.5341 37.5 35.5426 37.2855 34.6426 36.897Z" fill="white"/>
<path id="Vector_4" fill-rule="evenodd" clip-rule="evenodd" d="M37.5751 22.6516C33.4786 22.6516 30.1516 25.9786 30.1516 30.0751C30.1516 34.1731 33.4786 37.5001 37.5751 37.5001C41.6731 37.5001 45.0001 34.1731 45.0001 30.0751C45.0001 25.9786 41.6731 22.6516 37.5751 22.6516ZM37.5751 25.6516C40.0171 25.6516 42.0001 27.6331 42.0001 30.0751C42.0001 32.5171 40.0171 34.5001 37.5751 34.5001C35.1331 34.5001 33.1516 32.5171 33.1516 30.0751C33.1516 27.6331 35.1331 25.6516 37.5751 25.6516Z" fill="white"/>
</g>
</svg>
