<svg width="48" height="48" viewBox="0 0 48 48" fill="none" xmlns="http://www.w3.org/2000/svg">
<g id="Frame">
<g id="Syncronize">
<path id="Vector" d="M43.1459 30.5009C43.3717 29.3474 43.4902 28.1753 43.4998 26.9999C43.4908 23.4255 42.5036 19.9217 40.6453 16.8683C38.787 13.8149 36.1285 11.3282 32.9578 9.67792C32.742 7.45176 31.705 5.38572 30.049 3.88245C28.3929 2.37917 26.2364 1.54639 23.9998 1.54639C21.7633 1.54639 19.6068 2.37917 17.9507 3.88245C16.2947 5.38572 15.2577 7.45176 15.0418 9.67792C11.8712 11.3282 9.21266 13.8149 7.35438 16.8683C5.49609 19.9217 4.50892 23.4255 4.49985 26.9999C4.50905 28.1758 4.62705 29.3483 4.85235 30.5024C2.99705 31.9746 1.79783 34.1196 1.51536 36.4711C1.23288 38.8227 1.89 41.1907 3.34386 43.0604C4.79772 44.9301 6.93081 46.1503 9.27945 46.456C11.6281 46.7616 14.0024 46.1278 15.8863 44.6924C18.4255 45.8829 21.1955 46.5 23.9998 46.5C26.8042 46.5 29.5742 45.8829 32.1133 44.6924C33.9996 46.0991 36.3621 46.7101 38.6938 46.3943C41.0255 46.0786 43.1404 44.8612 44.5846 43.0035C46.0288 41.1458 46.687 38.796 46.418 36.4584C46.149 34.1209 44.9742 31.982 43.1459 30.5009ZM23.9998 4.49992C25.1865 4.49992 26.3466 4.85181 27.3333 5.5111C28.32 6.17039 29.089 7.10746 29.5431 8.20382C29.9973 9.30017 30.1161 10.5066 29.8846 11.6705C29.653 12.8343 29.0816 13.9034 28.2425 14.7426C27.4034 15.5817 26.3343 16.1531 25.1704 16.3846C24.0065 16.6161 22.8001 16.4973 21.7037 16.0432C20.6074 15.5891 19.6703 14.82 19.011 13.8333C18.3517 12.8466 17.9998 11.6866 17.9998 10.4999C17.9998 8.90862 18.632 7.3825 19.7572 6.25728C20.8824 5.13206 22.4086 4.49992 23.9998 4.49992ZM4.49985 37.4999C4.49985 36.3132 4.85174 35.1532 5.51103 34.1665C6.17032 33.1798 7.10739 32.4108 8.20375 31.9566C9.30011 31.5025 10.5065 31.3837 11.6704 31.6152C12.8343 31.8467 13.9034 32.4182 14.7425 33.2573C15.5816 34.0964 16.1531 35.1655 16.3846 36.3294C16.6161 37.4933 16.4973 38.6997 16.0431 39.796C15.589 40.8924 14.82 41.8294 13.8333 42.4887C12.8466 43.148 11.6865 43.4999 10.4999 43.4999C8.90855 43.4999 7.38243 42.8678 6.25721 41.7426C5.13199 40.6173 4.49985 39.0912 4.49985 37.4999ZM18.0523 42.3779C19.0702 40.8114 19.5745 38.9666 19.4948 37.1001C19.4152 35.2336 18.7556 33.4384 17.608 31.9644C16.4603 30.4903 14.8817 29.4106 13.0917 28.8757C11.3018 28.3408 9.38962 28.3772 7.62135 28.9799C7.23881 25.8483 7.76358 22.6727 9.13328 19.8307C10.503 16.9887 12.66 14.5997 15.3478 12.9479C15.8786 14.834 17.0111 16.495 18.573 17.6781C20.1348 18.8611 22.0405 19.5014 23.9998 19.5014C25.9592 19.5014 27.8649 18.8611 29.4267 17.6781C30.9886 16.495 32.1211 14.834 32.6518 12.9479C35.3397 14.5997 37.4967 16.9887 38.8664 19.8307C40.2361 22.6727 40.7609 25.8483 40.3783 28.9799C38.6102 28.3782 36.6985 28.3425 34.9091 28.8777C33.1197 29.4129 31.5415 30.4925 30.3941 31.9662C29.2468 33.44 28.5872 35.2347 28.5071 37.1007C28.427 38.9667 28.9304 40.8113 29.9473 42.3779C26.1194 43.8524 21.8803 43.8524 18.0523 42.3779ZM37.4998 43.4999C36.3132 43.4999 35.1531 43.148 34.1664 42.4887C33.1797 41.8294 32.4107 40.8924 31.9566 39.796C31.5024 38.6997 31.3836 37.4933 31.6151 36.3294C31.8466 35.1655 32.4181 34.0964 33.2572 33.2573C34.0963 32.4182 35.1654 31.8467 36.3293 31.6152C37.4932 31.3837 38.6996 31.5025 39.7959 31.9566C40.8923 32.4108 41.8294 33.1798 42.4887 34.1665C43.148 35.1532 43.4998 36.3132 43.4998 37.4999C43.4998 39.0912 42.8677 40.6173 41.7425 41.7426C40.6173 42.8678 39.0911 43.4999 37.4998 43.4999Z" fill="white"/>
</g>
</g>
</svg>
