<svg width="48" height="48" viewBox="0 0 48 48" fill="none" xmlns="http://www.w3.org/2000/svg">
<g id="icons">
<path id="Vector" d="M36.9975 15.75H34.5V13.5C34.5 12.3065 34.0259 11.1619 33.182 10.318C32.3381 9.47411 31.1935 9 30 9H6C4.80653 9 3.66193 9.47411 2.81802 10.318C1.97411 11.1619 1.5 12.3065 1.5 13.5V31.5C1.5 32.6935 1.97411 33.8381 2.81802 34.682C3.66193 35.5259 4.80653 36 6 36H8.01C7.62728 36.8003 7.45358 37.6845 7.50512 38.5701C7.55666 39.4557 7.83176 40.3138 8.30474 41.0642C8.77772 41.8147 9.43315 42.4331 10.2098 42.8617C10.9865 43.2903 11.8592 43.515 12.7463 43.515C13.6333 43.515 14.506 43.2903 15.2827 42.8617C16.0593 42.4331 16.7148 41.8147 17.1878 41.0642C17.6607 40.3138 17.9358 39.4557 17.9874 38.5701C18.0389 37.6845 17.8652 36.8003 17.4825 36H28.26C27.8773 36.8003 27.7036 37.6845 27.7551 38.5701C27.8067 39.4557 28.0818 40.3138 28.5547 41.0642C29.0277 41.8147 29.6832 42.4331 30.4598 42.8617C31.2365 43.2903 32.1092 43.515 32.9963 43.515C33.8833 43.515 34.756 43.2903 35.5327 42.8617C36.3093 42.4331 36.9648 41.8147 37.4378 41.0642C37.9107 40.3138 38.1858 39.4557 38.2374 38.5701C38.2889 37.6845 38.1152 36.8003 37.7325 36H42C43.1935 36 44.3381 35.5259 45.182 34.682C46.0259 33.8381 46.5 32.6935 46.5 31.5V24.75C46.5 19.785 42.24 15.75 36.9975 15.75ZM4.5 31.5V13.5C4.5 13.1022 4.65804 12.7206 4.93934 12.4393C5.22064 12.158 5.60218 12 6 12H30C30.3978 12 30.7794 12.158 31.0607 12.4393C31.342 12.7206 31.5 13.1022 31.5 13.5V33H6C5.60218 33 5.22064 32.842 4.93934 32.5607C4.65804 32.2794 4.5 31.8978 4.5 31.5ZM15 38.25C15 38.695 14.868 39.13 14.6208 39.5C14.3736 39.87 14.0222 40.1584 13.611 40.3287C13.1999 40.499 12.7475 40.5436 12.311 40.4568C11.8746 40.37 11.4737 40.1557 11.159 39.841C10.8443 39.5263 10.63 39.1254 10.5432 38.689C10.4564 38.2525 10.501 37.8001 10.6713 37.389C10.8416 36.9778 11.13 36.6264 11.5 36.3792C11.87 36.132 12.305 36 12.75 36C13.3467 36 13.919 36.2371 14.341 36.659C14.7629 37.081 15 37.6533 15 38.25ZM35.25 38.25C35.25 38.695 35.118 39.13 34.8708 39.5C34.6236 39.87 34.2722 40.1584 33.861 40.3287C33.4499 40.499 32.9975 40.5436 32.561 40.4568C32.1246 40.37 31.7237 40.1557 31.409 39.841C31.0943 39.5263 30.88 39.1254 30.7932 38.689C30.7064 38.2525 30.751 37.8001 30.9213 37.389C31.0916 36.9778 31.38 36.6264 31.75 36.3792C32.12 36.132 32.555 36 33 36C33.5967 36 34.169 36.2371 34.591 36.659C35.0129 37.081 35.25 37.6533 35.25 38.25ZM43.5 31.5C43.5 31.8978 43.342 32.2794 43.0607 32.5607C42.7794 32.842 42.3978 33 42 33H34.5V18.75H36.9975C40.5825 18.75 43.5 21.4425 43.5 24.75V31.5Z" fill="white"/>
</g>
</svg>
