<svg width="116" height="40" viewBox="0 0 116 40" fill="none" xmlns="http://www.w3.org/2000/svg">
<g id="logo 1">
<rect width="116" height="40" rx="4" fill="white"/>
<g id="Group">
<g id="Group_2">
<path id="Vector" d="M84.8638 12.3582L84.4604 12.1445V6.80119L78.9123 3.86963L73.3641 6.80119V9.77087L69.4916 7.72409L62.928 11.1928H64.1992L69.4916 8.3975L73.3641 10.4431V12.7001L78.9123 15.6317L79.3386 15.4064V17.6011L76.8662 18.9075V21.8575L79.3386 23.1639V23.9355L75.0977 26.1763V24.8826L71.5344 22.9999V21.5341H29.3242V24.1538H54.0133V24.0452L58.052 21.9118L59.0762 22.4524L59.3604 22.6037L59.6446 22.7538L62.0907 24.0452V24.1538H71.5344V23.336L74.8124 25.0674V27.8662L74.0145 27.4446L69.9178 29.6092V33.7894L68.9735 34.2883L63.1335 31.2032V25.4717H71.5344V24.8168H62.9739H62.0907V25.4717H62.8493V31.3891L68.9735 34.6245L70.0599 34.0504L74.0145 36.1399L78.1122 33.9753V32.5592L79.8971 33.5017L83.8975 31.388V27.1246L79.8971 25.0108L75.8966 27.1246V28.4391L75.0977 28.0163V26.8486L79.908 24.3062V23.165L82.3815 21.8575V18.9075L79.908 17.6011V15.1061L80.2294 14.9363V16.4391L81.7738 17.2557L83.3193 18.0723L84.8638 17.2557L86.4093 16.4391V13.1737L84.8638 12.3582ZM75.1075 28.3594L75.3731 28.4991L75.8966 28.7752V31.388L77.8269 32.4079V33.7894L74.0145 35.8038L70.5398 33.9672L70.3878 33.8875L70.378 33.8818L70.2119 33.7963L70.202 33.6392V29.7963L74.0145 27.7807L74.5817 28.081L74.8124 28.2034L74.8222 28.2081L75.0977 28.3536L75.1075 28.3594ZM82.0962 19.0934V21.6715L79.908 22.8289L79.6238 22.9791L79.3386 22.8278L77.1493 21.6715V19.0934L79.3386 17.9372L79.6238 17.787L79.908 17.9372L82.0962 19.0934ZM84.1763 11.9944L83.3193 11.5416L81.7738 12.3582L80.2294 13.1737V14.6002L79.908 14.7689L79.6238 14.919L79.3386 15.0692L78.9123 15.2956L73.6483 12.513V6.986L78.9123 4.20575L84.1763 6.986V11.9944Z" fill="#00468E"/>
</g>
<g id="Group_3">
<g id="Group_4">
<path id="Vector_2" d="M54.0144 24.8169H29.3242V25.4718H54.0144V24.8169Z" fill="#00468E"/>
</g>
</g>
<g id="Group_5">
<path id="Vector_3" fill-rule="evenodd" clip-rule="evenodd" d="M61.5223 24.4171V28.0128L58.052 29.8459L54.5828 28.0128V24.4171L55.0801 24.1537L58.052 22.584L59.0762 23.1246L59.3603 23.2747L61.0239 24.1537L61.5223 24.4171Z" fill="#00468E"/>
</g>
</g>
<g id="Group_6">
<g id="Group_7">
<path id="Vector_4" d="M34.2472 17.5813H31.4261L31.0905 18.4026C30.9801 18.6763 30.9255 18.9027 30.9255 19.0806C30.9255 19.3174 31.0162 19.4918 31.1966 19.6039C31.3026 19.6709 31.5638 19.7205 31.9803 19.7529V19.9827H29.3242V19.7529C29.6106 19.7078 29.8467 19.5819 30.0314 19.3763C30.2161 19.1707 30.4435 18.7468 30.7145 18.1034L33.5706 11.3694H33.6821L36.5622 18.2894C36.8365 18.9455 37.0628 19.3578 37.2399 19.5276C37.3732 19.6558 37.5612 19.7309 37.805 19.7517V19.9827H33.9411V19.7529H34.0996C34.41 19.7529 34.6275 19.7078 34.7532 19.6154C34.8396 19.5496 34.8833 19.4537 34.8833 19.329C34.8833 19.2539 34.8713 19.1776 34.8483 19.0991C34.8407 19.0621 34.7817 18.9062 34.6713 18.6325L34.2472 17.5813ZM34.0472 17.1205L32.8579 14.2143L31.6327 17.1205H34.0472Z" fill="#00468E"/>
<path id="Vector_5" d="M44.4987 11.5449V13.8285H44.2866C44.1609 13.3018 44.0221 12.9229 43.868 12.6931C43.715 12.4632 43.5051 12.2795 43.2373 12.1421C43.0876 12.067 42.8274 12.0301 42.4536 12.0301H41.859V18.54C41.859 18.972 41.882 19.2411 41.9268 19.3486C41.9716 19.456 42.0601 19.5507 42.1913 19.6316C42.3225 19.7124 42.5028 19.7528 42.7302 19.7528H42.9947V19.9827H38.8139V19.7528H39.0784C39.3101 19.7528 39.497 19.7089 39.638 19.6223C39.7397 19.5646 39.8205 19.4652 39.8796 19.3231C39.9222 19.2238 39.9441 18.9628 39.9441 18.5389V12.0289H39.3669C38.8292 12.0289 38.439 12.149 38.1952 12.3893C37.8542 12.7254 37.6378 13.2048 37.5471 13.8273H37.323V11.5449H44.4987Z" fill="#00468E"/>
<path id="Vector_6" d="M48.2203 12.0302V15.4654H48.3788C48.8849 15.4654 49.2521 15.2979 49.4806 14.9618C49.7079 14.6257 49.8533 14.1301 49.9167 13.4741H50.1408V17.8922H49.9167C49.8697 17.4105 49.7702 17.0167 49.6194 16.7094C49.4686 16.4022 49.2926 16.1966 49.0926 16.0903C48.8925 15.984 48.6018 15.932 48.2214 15.932V18.3092C48.2214 18.7735 48.24 19.0577 48.2772 19.1616C48.3143 19.2656 48.3843 19.3499 48.4859 19.4169C48.5876 19.4827 48.7526 19.5162 48.9811 19.5162H49.4576C50.2031 19.5162 50.8009 19.3337 51.2513 18.9687C51.7005 18.6037 52.024 18.0481 52.2197 17.3008H52.4372L52.0776 19.9829H45.1763V19.753H45.4408C45.6725 19.753 45.8594 19.7091 46.0004 19.6225C46.1021 19.5647 46.1808 19.4654 46.2365 19.3233C46.2791 19.224 46.301 18.9629 46.301 18.539V12.9878C46.301 12.6066 46.2911 12.3721 46.2715 12.2843C46.2321 12.1388 46.16 12.0268 46.054 11.9482C45.9042 11.8316 45.7009 11.7738 45.4419 11.7738H45.1774V11.5439H51.8612V14.0389H51.6371C51.5234 13.429 51.3628 12.9912 51.1573 12.7256C50.9507 12.4599 50.6599 12.2647 50.2829 12.1411C50.0632 12.066 49.6511 12.0291 49.0466 12.0291H48.2203V12.0302Z" fill="#00468E"/>
<path id="Vector_7" d="M61.0282 11.3521V14.2767H60.7987C60.626 13.5132 60.3036 12.9288 59.8325 12.5222C59.3614 12.1156 58.8269 11.9123 58.2312 11.9123C57.7328 11.9123 57.2748 12.0636 56.8595 12.3662C56.443 12.6689 56.1392 13.0651 55.9468 13.5548C55.6998 14.1809 55.5763 14.8785 55.5763 15.6455C55.5763 16.4009 55.667 17.0882 55.8473 17.7084C56.0277 18.3287 56.3108 18.7977 56.6955 19.1153C57.0803 19.433 57.5787 19.5912 58.1908 19.5912C58.6936 19.5912 59.1537 19.4745 59.5712 19.2424C59.9899 19.0102 60.4304 18.6094 60.8938 18.0411V18.7688C60.4468 19.262 59.98 19.6201 59.4947 19.8418C59.0094 20.0636 58.4433 20.1745 57.7962 20.1745C56.9447 20.1745 56.1873 19.9943 55.526 19.6328C54.8647 19.2724 54.3543 18.7538 53.9947 18.0769C53.6351 17.4012 53.4558 16.6804 53.4558 15.9169C53.4558 15.1118 53.6547 14.3483 54.0537 13.6264C54.4526 12.9045 54.9904 12.3443 55.667 11.9458C56.3447 11.5473 57.0639 11.3486 57.8257 11.3486C58.3875 11.3486 58.9799 11.4768 59.604 11.7344C59.9647 11.8834 60.1954 11.9585 60.2926 11.9585C60.4183 11.9585 60.5276 11.91 60.6195 11.8118C60.7113 11.7148 60.7714 11.56 60.7987 11.3486H61.0282V11.3521Z" fill="#00468E"/>
<path id="Vector_8" d="M67.7887 12.9379C67.7843 12.4817 67.733 12.1733 67.6324 12.0139C67.5319 11.8545 67.2816 11.7748 66.8815 11.7748H66.617V11.5449H70.8984V11.7748H70.6218C70.2524 11.7748 70.0086 11.8499 69.8884 11.9989C69.7682 12.1479 69.7092 12.4759 69.7092 12.9818V18.5331C69.7092 19.0517 69.7704 19.3844 69.8917 19.5322C70.013 19.6801 70.2568 19.7528 70.6218 19.7528H70.8984V19.9827H66.617V19.7528H66.8815C67.2542 19.7528 67.4991 19.6754 67.6149 19.5195C67.7308 19.3636 67.7887 19.0355 67.7887 18.5331V13.9532L64.9742 18.6209C64.9742 19.0228 65.0212 19.3128 65.1152 19.4895C65.2092 19.6662 65.465 19.754 65.8803 19.754H66.1568V19.9827H61.8755V19.7528H62.14C62.5127 19.7528 62.7586 19.6754 62.8756 19.5195C62.9936 19.3636 63.0527 19.0355 63.0527 18.5331V12.9818C63.0527 12.4759 63.0057 12.1479 62.9117 11.9989C62.8177 11.8499 62.5608 11.7748 62.14 11.7748H61.8755V11.5449H66.1568V11.7748H65.8803C65.5185 11.7748 65.2781 11.8568 65.1556 12.0208C65.0343 12.1848 64.9731 12.5048 64.9731 12.9818V17.6056L67.7887 12.9379Z" fill="#00468E"/>
</g>
<path id="Vector_9" d="M71.2601 12.2773C71.435 12.2773 71.6066 12.3247 71.7728 12.4194C71.94 12.5153 72.0701 12.6504 72.1619 12.8272C72.2548 13.0039 72.3018 13.1887 72.3018 13.3804C72.3018 13.5699 72.2559 13.7524 72.1641 13.9279C72.0723 14.1035 71.9444 14.2398 71.7782 14.3357C71.6132 14.4327 71.4394 14.4812 71.259 14.4812C71.0787 14.4812 70.906 14.4327 70.7399 14.3357C70.5748 14.2398 70.4458 14.1035 70.354 13.9279C70.2622 13.7524 70.2163 13.571 70.2163 13.3804C70.2163 13.1887 70.2622 13.0039 70.3562 12.8272C70.4502 12.6504 70.5803 12.5153 70.7464 12.4194C70.9147 12.3259 71.0864 12.2773 71.2601 12.2773ZM71.2601 12.4598C71.1137 12.4598 70.9716 12.4991 70.8328 12.5788C70.694 12.6585 70.5857 12.7717 70.5071 12.9184C70.4284 13.0663 70.3901 13.2199 70.3901 13.3793C70.3901 13.5387 70.4284 13.69 70.5049 13.8355C70.5825 13.9811 70.6896 14.0943 70.8273 14.1751C70.965 14.2571 71.1093 14.2976 71.2601 14.2976C71.411 14.2976 71.5553 14.2571 71.6919 14.1751C71.8307 14.0943 71.9378 13.9811 72.0143 13.8355C72.0908 13.69 72.1291 13.5387 72.1291 13.3793C72.1291 13.2199 72.0897 13.0663 72.0121 12.9184C71.9345 12.7717 71.8263 12.6574 71.6864 12.5788C71.5487 12.4991 71.4066 12.4598 71.2601 12.4598ZM70.8011 13.9903V12.8017H71.188C71.3203 12.8017 71.4153 12.8121 71.4755 12.8352C71.5345 12.8572 71.5815 12.8953 71.6165 12.9496C71.6514 13.0039 71.6689 13.0628 71.6689 13.124C71.6689 13.2118 71.6394 13.2869 71.5804 13.3516C71.5214 13.4162 71.4427 13.452 71.3454 13.4601C71.3847 13.4775 71.4175 13.4983 71.4416 13.5225C71.4864 13.5687 71.5421 13.6473 71.6077 13.7581L71.7465 13.9903H71.5268L71.4252 13.8032C71.3454 13.6565 71.2809 13.5641 71.2339 13.526C71.2 13.4983 71.1519 13.4855 71.0874 13.4844H70.9803V13.9903H70.8011ZM70.9814 13.3215H71.2055C71.3126 13.3215 71.3858 13.3054 71.4252 13.2719C71.4645 13.2384 71.4831 13.1945 71.4831 13.1402C71.4831 13.1044 71.4744 13.0732 71.4547 13.0455C71.435 13.0177 71.4099 12.997 71.376 12.9831C71.3421 12.9692 71.2809 12.9623 71.1902 12.9623H70.9803V13.3215H70.9814Z" fill="#00468E"/>
</g>
</g>
</svg>
