<svg width="24" height="22" viewBox="0 0 24 22" fill="none" xmlns="http://www.w3.org/2000/svg">
<g id="01 align center">
<path id="Vector" d="M21 0.000244141H3C2.20435 0.000244141 1.44129 0.316315 0.87868 0.878924C0.31607 1.44153 0 2.20459 0 3.00024L0 22.0002H24V3.00024C24 2.20459 23.6839 1.44153 23.1213 0.878924C22.5587 0.316315 21.7956 0.000244141 21 0.000244141ZM3 2.00024H21C21.2652 2.00024 21.5196 2.1056 21.7071 2.29314C21.8946 2.48067 22 2.73503 22 3.00024V3.66724L14.122 11.5462C13.5584 12.1076 12.7954 12.4227 12 12.4227C11.2046 12.4227 10.4416 12.1076 9.878 11.5462L2 3.66724V3.00024C2 2.73503 2.10536 2.48067 2.29289 2.29314C2.48043 2.1056 2.73478 2.00024 3 2.00024ZM2 20.0002V6.50024L8.464 12.9602C9.40263 13.8965 10.6743 14.4223 12 14.4223C13.3257 14.4223 14.5974 13.8965 15.536 12.9602L22 6.50024V20.0002H2Z" fill="#4E7CD7"/>
</g>
</svg>
