<svg width="21" height="24" viewBox="0 0 21 24" fill="none" xmlns="http://www.w3.org/2000/svg">
<g id="_01_align_center">
<path id="Vector" d="M10.958 24.0078L10.2609 23.4103C9.29989 22.6056 0.908936 15.3589 0.908936 10.058C0.908936 4.50814 5.40804 0.0090332 10.958 0.0090332C16.5079 0.0090332 21.007 4.50814 21.007 10.058C21.007 15.3589 12.616 22.6056 11.659 23.4142L10.958 24.0078ZM10.958 2.18192C6.61015 2.18685 3.08679 5.71021 3.08187 10.058C3.08187 13.3881 8.24431 18.7078 10.958 21.1427C13.6716 18.7069 18.834 13.3841 18.834 10.058C18.8291 5.71021 15.3058 2.18689 10.958 2.18192Z" fill="#4E7CD7"/>
<path id="Vector_2" d="M10.958 14.0412C8.75802 14.0412 6.97461 12.2577 6.97461 10.0578C6.97461 7.85787 8.75802 6.07446 10.958 6.07446C13.1579 6.07446 14.9413 7.85787 14.9413 10.0578C14.9413 12.2577 13.1579 14.0412 10.958 14.0412ZM10.958 8.06609C9.85798 8.06609 8.96628 8.95779 8.96628 10.0578C8.96628 11.1577 9.85798 12.0494 10.958 12.0494C12.0579 12.0494 12.9496 11.1577 12.9496 10.0578C12.9496 8.95779 12.058 8.06609 10.958 8.06609Z" fill="#4E7CD7"/>
</g>
</svg>
