<svg width="57" height="57" viewBox="0 0 57 57" fill="none" xmlns="http://www.w3.org/2000/svg">
<g id="Capa_1" opacity="0.6" clip-path="url(#clip0_404_4655)">
<g id="Group">
<path id="Vector" d="M17.8375 15.0571H16.5173C16.0562 15.0571 15.6824 15.431 15.6824 15.8921C15.6824 16.3532 16.0562 16.7271 16.5173 16.7271H17.8375C18.2986 16.7271 18.6724 16.3532 18.6724 15.8921C18.6724 15.431 18.2986 15.0571 17.8375 15.0571Z" fill="#4E7CD7"/>
<path id="Vector_2" d="M39.9971 16.7268H41.3172C41.7783 16.7268 42.1522 16.353 42.1522 15.8918C42.1522 15.4307 41.7784 15.0569 41.3172 15.0569H39.9971C39.5359 15.0569 39.1621 15.4307 39.1621 15.8918C39.1621 16.353 39.5359 16.7268 39.9971 16.7268Z" fill="#4E7CD7"/>
<path id="Vector_3" d="M56.9978 25.0114C56.9326 23.211 55.3862 21.7463 53.5508 21.7463H43.6241C42.7198 21.7463 41.8692 22.0988 41.229 22.7391C40.5888 23.3792 40.2364 24.2298 40.2364 25.134C40.2364 25.9724 40.5455 26.777 41.1062 27.3989C41.8369 28.2118 41.905 29.5881 41.2566 30.4091C41.243 30.4254 41.2297 30.4419 41.2162 30.4591C40.5294 31.3044 39.4777 31.6981 38.423 31.5426V30.4315C38.423 28.7384 37.295 27.3043 35.7512 26.8398V25.2119C35.7512 22.5538 37.9131 20.3914 40.5704 20.3914C41.7107 20.3914 42.7415 19.9162 43.4773 19.1542C43.5069 19.1493 43.5397 19.1446 43.5767 19.1399C44.5518 19.0173 45.524 19.4272 46.1165 20.2094C46.2756 20.4193 46.5225 20.5402 46.7819 20.5402C46.8159 20.5402 46.8501 20.5381 46.8843 20.5338C47.1798 20.4973 47.4335 20.3063 47.5502 20.0323C47.8535 19.32 47.9626 18.5339 47.8654 17.7582C47.5995 15.6515 45.8708 14.0411 43.7823 13.8968C43.0427 12.9307 41.8784 12.3059 40.5703 12.3059H31.9706C30.7516 12.3059 29.7599 13.2978 29.7599 14.5168C29.7599 15.1073 29.9897 15.6625 30.4073 16.0803C30.5926 16.2655 30.8051 16.4138 31.0361 16.5214C29.93 17.7324 29.0737 19.1314 28.5007 20.6436C27.9277 19.1314 27.0714 17.7324 25.9653 16.5214C26.1962 16.4138 26.4089 16.2655 26.5941 16.0803C27.0117 15.6627 27.2416 15.1074 27.2416 14.5168C27.2416 13.2978 26.2498 12.3059 25.0307 12.3059H16.4311C15.1234 12.3059 13.9594 12.9303 13.2198 13.8959C11.1259 14.0347 9.39059 15.6475 9.12407 17.759C9.02699 18.5339 9.13599 19.32 9.43924 20.0323C9.55591 20.3063 9.80952 20.4974 10.1051 20.5338C10.1394 20.5381 10.1736 20.5402 10.2076 20.5402C10.4669 20.5402 10.7141 20.4193 10.873 20.2094C11.4656 19.4272 12.4388 19.0176 13.411 19.1395C13.4555 19.1452 13.4931 19.1509 13.5268 19.1567C14.2623 19.9172 15.2922 20.3913 16.4312 20.3913C19.0885 20.3913 21.2504 22.5537 21.2504 25.2118V26.8394C19.7067 27.3036 18.5786 28.7374 18.5786 30.4303V31.5425C17.5226 31.6987 16.4697 31.3046 15.7834 30.4585C15.7702 30.4418 15.7572 30.4258 15.7438 30.4096C15.0947 29.5886 15.1627 28.2119 15.893 27.3995C16.4544 26.7768 16.7634 25.9721 16.7634 25.1338C16.7634 24.2295 16.4109 23.3789 15.7708 22.7389C15.1308 22.0987 14.2802 21.7462 13.3759 21.7462H9.82922C9.3681 21.7462 8.99426 22.1201 8.99426 22.5812C8.99426 23.0424 9.3681 23.4162 9.82922 23.4162H13.376C13.8344 23.4162 14.2654 23.595 14.5902 23.9198C14.9148 24.2445 15.0937 24.6757 15.0937 25.1339C15.0937 25.5585 14.9371 25.9661 14.6521 26.2823C13.3637 27.7153 13.2719 29.9882 14.4431 31.4568C14.4469 31.4614 14.4515 31.467 14.4552 31.4717L14.4675 31.4865C14.4715 31.4917 14.4756 31.4968 14.4796 31.502C15.3934 32.6336 16.7249 33.2502 18.1178 33.2502C18.2708 33.2502 18.4245 33.2419 18.5786 33.2268V38.0801C18.1953 38.0658 17.7921 38.0153 17.3935 38.0109C15.9919 38.0109 14.6674 38.6884 13.8505 39.8232C13.8447 39.8313 13.8389 39.8394 13.8335 39.8478C13.5142 40.3267 12.979 40.6126 12.4019 40.6126C12.0594 40.6126 11.728 40.511 11.4428 40.3178C10.6624 39.7914 10.4689 38.7005 11.0114 37.8865L11.4868 37.174C11.7077 36.8429 11.6641 36.4019 11.3828 36.1203C11.1014 35.8388 10.6605 35.795 10.3293 36.0158L9.02199 36.8871C8.73776 37.0761 8.40912 37.176 8.07158 37.176C7.48666 37.176 6.94705 36.8837 6.62832 36.3943C6.11777 35.6101 6.35835 34.5344 7.16425 33.9966L8.08594 33.382C8.42382 33.1567 8.55073 32.7209 8.38641 32.3495C8.22209 31.9781 7.81441 31.7787 7.42031 31.8774L4.90774 32.5058C4.76714 32.5406 4.62553 32.5583 4.48692 32.5583C3.69037 32.5583 2.98622 31.9919 2.81266 31.2112C2.61227 30.3114 3.20208 29.3908 4.12722 29.1591L6.77672 28.4967C7.18585 28.3944 7.45448 28.0032 7.40294 27.5847C7.3514 27.1662 6.99592 26.8518 6.57433 26.8518H3.38811C2.91775 26.8518 2.47856 26.6653 2.1517 26.3266C1.82518 25.9883 1.6544 25.5424 1.67099 25.0719C1.70405 24.159 2.50183 23.4163 3.44934 23.4163H6.48949C6.95061 23.4163 7.32445 23.0425 7.32445 22.5813C7.32445 22.1202 6.95061 21.7463 6.48949 21.7463H3.44934C1.58271 21.7463 0.0685321 23.1805 0.00218054 25.0121C-0.0305499 25.9404 0.306106 26.819 0.950251 27.4864C1.31986 27.8692 1.76206 28.1533 2.24711 28.3261C1.36061 29.1264 0.911843 30.3584 1.1827 31.5739C1.52459 33.1119 2.91419 34.2281 4.48692 34.2281C4.63877 34.2281 4.79163 34.2177 4.94437 34.1967C4.54248 35.1934 4.61039 36.3552 5.22904 37.3055C5.85726 38.27 6.91989 38.8459 8.07158 38.8459C8.402 38.8459 8.72775 38.7978 9.04035 38.704C8.97701 39.8633 9.49535 41.0184 10.5079 41.7015C11.0694 42.0815 11.7244 42.2825 12.4019 42.2825C13.5329 42.2825 14.5826 41.7243 15.2134 40.7883C15.7179 40.0946 16.532 39.6808 17.3936 39.6808C17.7932 39.6928 18.1983 39.7388 18.5787 39.7522V39.9142C18.5787 40.1602 18.5958 40.4032 18.6259 40.643C16.7286 41.1498 15.3504 42.8734 15.3504 44.9198V47.8065C15.3504 49.0749 16.254 50.1477 17.4377 50.3763V50.9807L14.1346 51.8057C13.5422 51.1046 12.6669 50.6887 11.7258 50.6887C11.4354 50.6887 11.1512 50.7285 10.8788 50.8039L8.45688 46.7615C8.74856 46.3805 8.92402 45.9059 8.92402 45.3901C8.92402 44.1424 7.90904 43.1274 6.66138 43.1274C5.41373 43.1274 4.39875 44.1424 4.39875 45.3901C4.39875 46.6378 5.41373 47.6528 6.66138 47.6528C6.7854 47.6528 6.90631 47.6401 7.02498 47.6208L9.44659 51.6627C8.88182 52.2534 8.57077 53.025 8.57077 53.8438C8.57077 54.6856 8.89852 55.4777 9.49435 56.0751C10.09 56.6707 10.8824 56.9987 11.7256 56.9987C12.0852 56.9987 12.4386 56.9379 12.7774 56.8178C13.0158 56.7328 13.2418 56.6205 13.4521 56.4826C13.5331 56.4717 13.6134 56.4561 13.6923 56.4363L20.1604 54.8212C21.139 54.5779 21.8225 53.7031 21.8225 52.694V50.3776C22.3273 50.2845 22.7919 50.0429 23.1631 49.6719C23.6453 49.1879 23.9108 48.5458 23.9108 47.8635V45.6523C24.088 45.6679 24.2667 45.6767 24.4469 45.6767C24.7267 45.6768 24.9995 45.7128 25.2602 45.7805L22.8921 53.6275C22.8175 53.8747 22.7798 54.13 22.7798 54.3861C22.7798 55.8268 23.9533 56.9989 25.3959 56.9989C26.0816 56.9989 26.7301 56.7354 27.2221 56.2565L28.5006 55.0101L29.7796 56.257C30.2624 56.7305 30.9307 57.001 31.6054 56.999C32.4411 56.999 33.2063 56.6142 33.7049 55.9429C34.2034 55.2717 34.3507 54.4276 34.1092 53.6273L31.7412 45.7802C32.0013 45.7127 32.2734 45.6768 32.5525 45.6767C32.8214 45.6764 33.0871 45.6576 33.349 45.6231V47.8635C33.349 48.5457 33.6146 49.1879 34.0978 49.6729C34.468 50.0433 34.9327 50.2845 35.4375 50.3776V52.694C35.4375 53.7032 36.1209 54.5779 37.0986 54.8209L43.3093 56.3723C43.8521 56.7777 44.5135 56.9989 45.1937 56.9989C46.0369 56.9989 46.8293 56.6709 47.4258 56.0744C47.8211 55.6782 48.0975 55.1955 48.2391 54.6695C49.2269 54.6071 50.1469 54.1937 50.8527 53.488C51.6212 52.7194 52.0446 51.698 52.0446 50.6121C52.0446 49.5247 51.6211 48.5031 50.8533 47.7367C50.2863 47.1686 49.5805 46.7899 48.8121 46.6303V45.6686H49.3675C49.8286 45.6686 50.2025 45.2948 50.2025 44.8337C50.2025 44.3725 49.8288 43.9987 49.3675 43.9987H48.8121V43.401C48.8121 42.9399 48.4384 42.5661 47.9771 42.5661C47.516 42.5661 47.1422 42.9399 47.1422 43.401V43.9987H46.5868C46.1256 43.9987 45.7518 44.3725 45.7518 44.8337C45.7518 45.2948 46.1255 45.6686 46.5868 45.6686H47.1422V46.6309C45.2988 47.0171 43.9101 48.6553 43.9101 50.6122C43.9101 50.728 43.9164 50.8431 43.9261 50.9576C43.5181 51.1377 43.1494 51.4027 42.8483 51.7374L39.8224 50.9811V50.3768C41.0062 50.1487 41.9108 49.0756 41.9108 47.8069V44.9202C41.9108 42.7867 40.3944 41.0011 38.3829 40.5839C38.4085 40.3623 38.4231 40.138 38.4231 39.9111V39.7524C38.803 39.7391 39.2068 39.6932 39.6064 39.6811C40.4681 39.6811 41.2821 40.0948 41.7866 40.7887C42.4174 41.7246 43.4671 42.2828 44.5982 42.2828C45.2759 42.2828 45.9307 42.0819 46.4911 41.7026C47.5043 41.0191 48.023 39.8637 47.9597 38.7043C48.2723 38.7981 48.598 38.8463 48.9287 38.8463C50.0802 38.8463 51.143 38.2705 51.7713 37.3058C52.3899 36.3556 52.4579 35.1938 52.056 34.1972C52.2084 34.2181 52.3614 34.2286 52.5133 34.2286C54.0858 34.2286 55.4755 33.1124 55.8174 31.5747C56.0882 30.359 55.6393 29.1269 54.753 28.3266C55.238 28.1538 55.6804 27.8696 56.0499 27.4867C56.6939 26.819 57.0306 25.9404 56.9978 25.0114ZM46.2088 17.9667C46.2141 18.0096 46.2185 18.0526 46.2218 18.0956C45.6839 17.7687 45.0795 17.5586 44.4508 17.482C44.5561 17.122 44.6138 16.7418 44.6138 16.3482C44.6138 16.1577 44.5996 15.9706 44.5739 15.7871C45.44 16.166 46.084 16.9776 46.2088 17.9667ZM33.2137 16.7271H35.8219C36.283 16.7271 36.6569 16.3532 36.6569 15.8921C36.6569 15.431 36.2831 15.0571 35.8219 15.0571L31.9708 15.0567C31.8255 15.0567 31.6897 15.0008 31.5883 14.8994C31.4861 14.7972 31.4299 14.6612 31.4299 14.5167C31.4299 14.2184 31.6726 13.9757 31.9708 13.9757H40.5705C41.8791 13.9757 42.9439 15.0399 42.9439 16.348C42.9439 17.6567 41.8791 18.7215 40.5705 18.7215C36.9924 18.7215 34.0815 21.633 34.0815 25.2118V26.6808H29.3358V25.2118C29.3358 21.9456 30.7454 18.8701 33.2137 16.7271ZM10.7681 18.0956C10.7714 18.0528 10.7757 18.0101 10.7811 17.9674C10.9065 16.973 11.5561 16.1582 12.4286 15.7816C12.4025 15.9668 12.3881 16.1559 12.3881 16.3482C12.3881 16.7413 12.4455 17.121 12.5506 17.4806C11.918 17.556 11.3094 17.7666 10.7681 18.0956ZM16.4313 18.7216C15.1227 18.7216 14.0579 17.6568 14.0579 16.3481C14.0579 15.04 15.1227 13.9758 16.4313 13.9758H25.031C25.3293 13.9758 25.572 14.2185 25.572 14.5168C25.572 14.6615 25.5158 14.7973 25.4136 14.8994C25.3121 15.0008 25.1763 15.0567 25.031 15.0567L21.1799 15.0571C20.7188 15.0571 20.3449 15.431 20.3449 15.8921C20.3449 16.3532 20.7188 16.7271 21.1799 16.7271H23.7881C26.2562 18.8701 27.666 21.9456 27.666 25.2119V26.6809H22.9203V25.2119C22.9203 21.6331 20.0093 18.7216 16.4313 18.7216ZM6.06856 45.3902C6.06856 45.0633 6.33452 44.7975 6.66127 44.7975C6.98802 44.7975 7.25398 45.0634 7.25398 45.3902C7.25398 45.7171 6.98802 45.983 6.66127 45.983C6.33452 45.983 6.06856 45.7171 6.06856 45.3902ZM19.7568 53.2007L13.2857 54.8166C13.2442 54.8271 13.2021 54.8324 13.1573 54.8324C12.9702 54.8324 12.7887 54.8952 12.6416 55.0107C12.5135 55.1113 12.3705 55.1901 12.2179 55.2445C12.0601 55.3005 11.8945 55.3288 11.7256 55.3288C11.3284 55.3288 10.9553 55.1745 10.6759 54.8951C10.3952 54.6137 10.2406 54.2402 10.2406 53.8438C10.2406 53.4473 10.3952 53.0739 10.6751 52.7933C10.9553 52.5131 11.3284 52.3587 11.7256 52.3587C12.2761 52.3587 12.7789 52.6612 13.0379 53.1483C13.2179 53.4869 13.6056 53.6592 13.9774 53.5662L18.4749 52.443C18.8466 52.3502 19.1074 52.0162 19.1074 51.633V50.1216C19.2946 50.0217 19.4711 49.8999 19.6313 49.7535C19.7882 49.8967 19.964 50.0189 20.1528 50.1199V52.6939C20.1528 52.9343 19.9904 53.1426 19.7568 53.2007ZM22.2412 47.8634C22.2412 48.1007 22.1486 48.3243 21.9815 48.492C21.8139 48.6595 21.5907 48.7517 21.3528 48.7517C20.8636 48.7517 20.4656 48.3532 20.4656 47.8633C20.4656 47.4022 20.0918 47.0283 19.6307 47.0283C19.1695 47.0283 18.7957 47.4022 18.7957 47.8633C18.7957 48.1035 18.7014 48.3283 18.5302 48.4967C18.3585 48.6653 18.1336 48.7562 17.8907 48.7518C17.4107 48.7428 17.0201 48.3188 17.0201 47.8065V44.9198C17.0201 43.6396 17.8856 42.5622 19.0748 42.2517C19.3667 42.9038 19.7816 43.5017 20.3109 44.0153C20.8715 44.5593 21.527 44.9786 22.2412 45.2602V47.8634ZM32.3645 54.9471C32.1842 55.1898 31.9077 55.329 31.6057 55.329C31.3626 55.3296 31.1194 55.2319 30.9451 55.0606L29.0838 53.2461C28.7596 52.93 28.2423 52.93 27.9181 53.2461L26.0573 55.0602C25.8792 55.2335 25.6444 55.3291 25.3961 55.3291C24.8743 55.3291 24.4498 54.9061 24.4498 54.3861C24.4498 54.2934 24.4638 54.2003 24.491 54.1097L26.7448 46.6413C27.1367 47.0406 27.429 47.5431 27.5714 48.1166C27.6778 48.5453 28.06 48.8448 28.5008 48.8448C28.9413 48.8448 29.3233 48.5457 29.4303 48.1167C29.5727 47.5431 29.8649 47.0403 30.2568 46.641L32.5107 54.1094C32.598 54.399 32.5448 54.7043 32.3645 54.9471ZM32.5514 44.0066C30.8877 44.0076 29.3883 44.8411 28.5008 46.1573C27.613 44.8411 26.1127 44.0076 24.4481 44.0066C22.0932 44.0056 20.2486 42.208 20.2486 39.9143V30.4304C20.2486 29.2837 21.1815 28.3508 22.3281 28.3508H34.6728C35.82 28.3508 36.7534 29.2843 36.7534 30.4315V39.9109C36.7533 42.2057 34.9074 44.0047 32.5514 44.0066ZM47.9768 48.2141C48.6176 48.2141 49.2194 48.4635 49.6724 48.9175C50.1253 49.3695 50.3747 49.9714 50.3747 50.6121C50.3747 51.252 50.1251 51.854 49.6719 52.3072C49.2802 52.6989 48.7764 52.9375 48.2326 52.9947C48.089 52.4779 47.8148 52.0034 47.425 51.6124C46.9222 51.1097 46.2791 50.7986 45.5837 50.7135C45.5822 50.6797 45.58 50.646 45.58 50.6121C45.58 49.2898 46.6552 48.2141 47.9768 48.2141ZM42.9852 53.4927C43.3463 53.5829 43.7236 53.4232 43.9102 53.1009C44.1752 52.6431 44.667 52.3586 45.1937 52.3586C45.5909 52.3586 45.9641 52.5129 46.2434 52.7924C46.5241 53.0738 46.6787 53.4472 46.6787 53.8438C46.6787 54.2404 46.5241 54.6137 46.2443 54.8943C45.9641 55.1745 45.5909 55.329 45.1937 55.329C44.8361 55.329 44.5031 55.2056 44.2308 54.9721C44.1323 54.8877 44.0155 54.8275 43.8898 54.7961L37.5024 53.2005C37.2697 53.1427 37.1073 52.9343 37.1073 52.6939V50.1202C37.2963 50.0192 37.4722 49.8969 37.6293 49.7536C37.7893 49.8999 37.9656 50.0216 38.1525 50.1213V51.6329C38.1525 52.016 38.4134 52.35 38.785 52.4429L42.9852 53.4927ZM40.2409 44.9199V47.8066C40.2409 48.3189 39.8499 48.7429 39.3705 48.752C39.1303 48.7547 38.9021 48.6657 38.7308 48.4973C38.5596 48.329 38.4653 48.1039 38.4653 47.8634C38.4653 47.4023 38.0915 47.0284 37.6303 47.0284C37.1692 47.0284 36.7953 47.4023 36.7953 47.8634C36.7953 48.3533 36.3969 48.7518 35.9071 48.7518C35.6691 48.7518 35.4459 48.6595 35.2795 48.4931C35.1113 48.3243 35.0187 48.1007 35.0187 47.8634V45.1498C35.6327 44.873 36.1982 44.4914 36.6905 44.0136C37.2328 43.4872 37.6556 42.8727 37.9484 42.2015C39.2482 42.4237 40.2409 43.5577 40.2409 44.9199ZM54.8484 26.3265C54.5216 26.6652 54.0824 26.8518 53.612 26.8518H50.4259C50.0042 26.8518 49.6487 27.1662 49.5973 27.5847C49.5458 28.0032 49.8143 28.3944 50.2234 28.4967L52.8726 29.159C53.798 29.3908 54.388 30.3114 54.1875 31.2115C54.0139 31.9919 53.3099 32.5584 52.5133 32.5584C52.3747 32.5584 52.2332 32.5408 52.0946 32.5065L49.5798 31.8775C49.1861 31.7788 48.7781 31.9782 48.6138 32.3496C48.4495 32.721 48.5762 33.1569 48.9142 33.3821L49.8357 33.9965C50.6419 34.5345 50.8824 35.6102 50.372 36.3942C50.0531 36.8838 49.5135 37.1761 48.9287 37.1761C48.5911 37.1761 48.2626 37.0762 47.979 36.8876L46.671 36.0159C46.3395 35.795 45.8986 35.839 45.6175 36.1204C45.3362 36.402 45.2926 36.843 45.5134 37.1741L45.9885 37.8861C46.5312 38.7006 46.3378 39.7915 45.5562 40.3187C45.272 40.511 44.9408 40.6128 44.5982 40.6128C44.0211 40.6128 43.4858 40.3269 43.1665 39.8479C43.161 39.8396 43.1553 39.8313 43.1495 39.8232C42.3325 38.6885 41.0081 38.0111 39.6064 38.0111C39.2078 38.0154 38.8058 38.0658 38.4231 38.0801V33.2274C39.9778 33.3786 41.506 32.7572 42.5202 31.5023C42.5248 31.4966 42.5287 31.4916 42.5332 31.4857L42.5443 31.4724C42.5486 31.4672 42.5528 31.4621 42.5569 31.4569C43.7281 29.9883 43.6363 27.7154 42.3473 26.2815C42.0629 25.9661 41.9063 25.5585 41.9063 25.1339C41.9063 24.6757 42.0851 24.2445 42.4097 23.9198C42.7346 23.595 43.1658 23.4162 43.6241 23.4162H53.5508C54.4983 23.4162 55.2961 24.1589 55.3291 25.071C55.3457 25.5423 55.1749 25.9882 54.8484 26.3265Z" fill="#4E7CD7"/>
<path id="Vector_4" d="M35.6396 39.2719C35.6396 38.8108 35.2659 38.437 34.8046 38.437C34.3435 38.437 33.9697 38.8108 33.9697 39.2719V39.9109C33.9697 40.6463 33.3455 41.2227 32.5492 41.2234C31.1023 41.2234 29.7142 41.6203 28.5005 42.3763C27.2865 41.6203 25.8978 41.2234 24.4501 41.2234C23.6418 41.2227 23.0322 40.6598 23.0322 39.9143V31.1343H33.9697V35.9323C33.9697 36.3934 34.3434 36.7673 34.8046 36.7673C35.2658 36.7673 35.6396 36.3934 35.6396 35.9323V30.4318C35.6396 29.8983 35.2062 29.4644 34.6734 29.4644H22.3277C21.7954 29.4644 21.3625 29.8979 21.3625 30.4307V39.9143C21.3625 41.5832 22.7182 42.8918 24.4496 42.8933C25.7404 42.8933 26.9703 43.2958 28.0062 44.057C28.1532 44.1651 28.3269 44.2191 28.5006 44.2191C28.6742 44.2191 28.8479 44.165 28.995 44.057C30.0309 43.2958 31.2601 42.8933 32.5501 42.8933C34.2826 42.8918 35.6397 41.5818 35.6397 39.9109V39.2719H35.6396Z" fill="#4E7CD7"/>
<path id="Vector_5" d="M22.021 11.1926H34.9805C35.4416 11.1926 35.8154 10.8187 35.8154 10.3576C35.8154 9.89649 35.4417 9.52265 34.9805 9.52265H34.7149L35.0988 7.9242C35.4111 6.62389 35.1153 5.27593 34.2875 4.22566C33.4596 3.1755 32.2179 2.57322 30.8807 2.57322H29.3357V0.834717C29.3357 0.373596 28.962 -0.000244141 28.5007 -0.000244141C28.0396 -0.000244141 27.6658 0.373596 27.6658 0.834717V2.57333H26.1209C24.7836 2.57333 23.542 3.17561 22.7141 4.22588C21.8863 5.27604 21.5906 6.62411 21.9029 7.92443L22.2867 9.52287H22.021C21.5599 9.52287 21.186 9.89671 21.186 10.3578C21.186 10.819 21.5599 11.1926 22.021 11.1926ZM29.9006 4.24314L29.0499 9.52276H27.9516L27.101 4.24314H29.9006ZM32.9761 5.25956C33.4853 5.90549 33.6673 6.73466 33.4751 7.53433L32.9975 9.52276H30.7413L31.5771 4.33543C32.1248 4.48238 32.6146 4.80111 32.9761 5.25956ZM23.5265 7.53433C23.3344 6.73466 23.5164 5.90549 24.0255 5.25956C24.3868 4.80111 24.8768 4.48238 25.4246 4.33543L26.2604 9.52276H24.0041L23.5265 7.53433Z" fill="#4E7CD7"/>
</g>
</g>
<defs>
<clipPath id="clip0_404_4655">
<rect width="57" height="57" fill="white"/>
</clipPath>
</defs>
</svg>
