<svg width="71" height="71" viewBox="0 0 71 71" fill="none" xmlns="http://www.w3.org/2000/svg">
<g id="Frame" opacity="0.6" clip-path="url(#clip0_404_4638)">
<path id="Vector" d="M70.5898 42.3996L64.7968 37.5206C64.5853 37.3502 64.3199 37.2613 64.0484 37.2698H43.3216C45.8656 34.227 47.4072 30.4862 47.4072 26.3063C47.4072 17.0905 39.9137 9.5813 30.7027 9.5813C21.4917 9.5813 13.9982 17.0605 13.9982 26.2763C13.9982 26.5191 14.0044 26.8372 14.0146 26.9821H6.91537C3.08206 26.9821 2.65862e-05 30.1274 2.65862e-05 33.9621V54.5376C-0.00506487 56.3754 0.721317 58.1391 2.01908 59.4398C3.31683 60.7405 5.07848 61.47 6.91537 61.4678H28.9286C29.5707 61.4825 30.1042 60.9759 30.1234 60.3335V49.5862H41.5871L43.4936 51.0549C43.6984 51.2112 43.9501 51.2938 44.2075 51.2893C44.418 51.287 44.6239 51.2281 44.8038 51.1183L49.3991 48.3562L53.6601 49.9054C53.909 49.9954 54.1811 49.9976 54.4317 49.9116L59.1843 48.2809L63.7831 49.3631C64.1423 49.448 64.5202 49.3564 64.8008 49.1169L70.5938 44.1661C70.8523 43.9453 71.0011 43.6216 70.9999 43.282C70.9994 42.9418 70.8489 42.6192 70.5898 42.3996ZM30.7027 11.8878C38.6488 11.8878 45.09 18.3323 45.09 26.2825C45.09 34.2326 38.6488 40.6772 30.7027 40.6772C22.7566 40.6772 16.3153 34.2326 16.3153 26.2825C16.3244 18.3363 22.7606 11.8968 30.7027 11.8878ZM6.91537 59.1494C5.69285 59.1522 4.52012 58.6672 3.65683 57.8012C2.79354 56.9352 2.31155 55.7607 2.31721 54.5376V33.9621C2.30137 31.4049 4.35945 29.318 6.91537 29.3004H14.2765C15.5352 36.1106 20.9995 41.5228 27.8062 42.7375V59.1494H6.91537ZM63.7423 46.9718L59.3897 45.9473C59.177 45.8969 58.9547 45.9082 58.7482 45.979L54.0669 47.5847L49.6724 45.9858C49.3442 45.8669 48.9799 45.902 48.6801 46.0814L44.2946 48.7145L42.7016 47.4902C42.4951 47.338 42.2433 47.2593 41.9871 47.2678H30.1234V42.9831C30.2682 42.9905 30.5143 43.0193 30.7208 43.0193C34.3878 43.0352 37.9558 41.8279 40.8607 39.5882H63.6241L68.0525 43.312L63.7423 46.9718Z" fill="#4E7CD7"/>
<path id="Vector_2" d="M15.2064 36.9802C15.2064 36.3401 14.6877 35.821 14.0478 35.821H7.24111C6.60128 35.821 6.08252 36.3401 6.08252 36.9802V51.47C6.08252 52.1102 6.60128 52.6292 7.24111 52.6292H14.0478C14.6877 52.6292 15.2064 52.1102 15.2064 51.47V36.9802ZM12.8892 50.3108H8.3997V38.1394H12.8892V50.3108Z" fill="#4E7CD7"/>
<path id="Vector_3" d="M26.1972 34.5168H40.2219C40.8612 34.5168 41.4195 34.0532 41.4195 33.4125V25.1635C41.406 24.503 40.8815 23.9664 40.2219 23.9392H36.3507V19.9404C36.3507 19.2997 35.8478 18.7229 35.2079 18.7229H26.1972C25.5574 18.7229 25.0544 19.3002 25.0544 19.9404V23.9392H21.1832C20.5236 23.9664 19.9992 24.503 19.9856 25.1635V33.4125C19.9856 34.0527 20.544 34.5168 21.1832 34.5168H26.1972ZM31.137 32.1984H30.2681V30.8943H31.137V32.1984ZM39.1023 26.2576V32.1984H36.3507V26.2576H39.1023ZM34.0335 21.0413V32.1984H33.4542V29.7238C33.4542 29.0837 33.0062 28.576 32.3663 28.576H29.0388C28.399 28.576 27.9509 29.0831 27.9509 29.7238V32.1984H27.3716V25.2671C27.3716 25.2326 27.3767 25.1986 27.3767 25.1635C27.3767 25.1284 27.3716 25.0939 27.3716 25.0599V21.0413H34.0335ZM22.3028 26.2576H25.0544V32.1984H22.3028V26.2576Z" fill="#4E7CD7"/>
<path id="Vector_4" d="M29.5114 24.5188H31.8942C32.534 24.5188 33.0528 23.9998 33.0528 23.3596C33.0528 22.7195 32.534 22.2004 31.8942 22.2004H29.5114C28.8715 22.2004 28.3528 22.7195 28.3528 23.3596C28.3528 23.9998 28.8715 24.5188 29.5114 24.5188Z" fill="#4E7CD7"/>
</g>
<defs>
<clipPath id="clip0_404_4638">
<rect width="71" height="71" fill="white"/>
</clipPath>
</defs>
</svg>
