<svg width="57" height="57" viewBox="0 0 57 57" fill="none" xmlns="http://www.w3.org/2000/svg">
<g id="Layer_1" opacity="0.6" clip-path="url(#clip0_404_4647)">
<g id="Group">
<g id="Group_2">
<path id="Vector" d="M49.6452 12.8713H45.0014C45.0317 12.7224 45.0483 12.5688 45.0483 12.4116C45.0483 11.3019 44.2577 10.3734 43.2096 10.1601V7.92961C43.2096 4.06368 40.0646 0.919434 36.1994 0.919434H20.8002C16.9352 0.919434 13.79 4.06368 13.79 7.92961V10.1599C12.7419 10.3732 11.9513 11.3017 11.9513 12.4114C11.9513 12.5686 11.9679 12.7222 11.9982 12.8711H7.35479H0V29.4194V30.951V49.3381C0 53.0559 3.02474 56.0807 6.74259 56.0807H50.2574C53.9753 56.0807 57 53.0559 57 49.3381V30.951V29.4194V12.8713H49.6452ZM49.6452 34.9357V14.7098H55.1612V29.4194V30.9512C55.1612 33.6551 52.9613 35.855 50.2574 35.855H49.6452V34.9357ZM44.129 14.7098H47.8065V31.7694C47.2632 31.4532 46.6407 31.2582 45.9677 31.2582C45.2947 31.2582 44.6722 31.4532 44.129 31.7694V14.7098ZM44.129 34.9357C44.129 33.9217 44.9535 33.0969 45.9677 33.0969C46.9817 33.0969 47.8065 33.9215 47.8065 34.9357V38.6132C47.8065 39.6271 46.9819 40.4519 45.9677 40.4519C44.9537 40.4519 44.129 39.6273 44.129 38.6132V34.9357ZM44.129 41.7794C44.6722 42.0957 45.2947 42.2907 45.9677 42.2907C46.6407 42.2907 47.2632 42.0957 47.8065 41.7794V47.8067C47.8065 48.8207 46.9819 49.6455 45.9677 49.6455C44.9537 49.6455 44.129 48.8209 44.129 47.8067V41.7794ZM43.2098 12.4116C43.2098 12.6653 43.003 12.8713 42.7501 12.8713H42.2904H38.1532C37.9003 12.8713 37.6935 12.6653 37.6935 12.4116C37.6935 12.1579 37.9003 11.9519 38.1532 11.9519H42.7501C43.003 11.9519 43.2098 12.1579 43.2098 12.4116ZM29.6317 32.1777H27.3673C25.9643 32.1777 24.8225 33.3195 24.8225 34.7235V35.8552H14.7096V34.9359V14.7098H18.8468H38.1532H42.2904V34.9357V35.855H32.1775V34.7233C32.1775 33.3195 31.0355 32.1777 29.6317 32.1777ZM30.3387 34.7233V35.855H26.6613V34.7233C26.6613 34.3335 26.9785 34.0163 27.3683 34.0163H29.6327C30.0215 34.0163 30.3387 34.3335 30.3387 34.7233ZM35.9015 12.8713H21.0981C21.1284 12.7224 21.145 12.5688 21.145 12.4116C21.1452 11.3019 20.3546 10.3734 19.3065 10.1601V8.04467C19.3065 7.15754 20.0281 6.43587 20.9153 6.43587H36.0845C36.9717 6.43587 37.6933 7.15754 37.6933 8.04467V10.1601C36.6452 10.3734 35.8546 11.3019 35.8546 12.4116C35.8546 12.5688 35.8712 12.7224 35.9015 12.8713ZM20.8004 2.75818H36.1996C39.0514 2.75818 41.371 5.07766 41.371 7.92961V10.1132H39.5323V8.04467C39.5323 6.14337 37.9851 4.59712 36.0847 4.59712H20.9155C19.0151 4.59712 17.4679 6.14357 17.4679 8.04467V10.1132H15.6292V7.92961C15.6292 5.07785 17.9484 2.75818 20.8004 2.75818ZM14.2501 11.9519H18.847C19.0999 11.9519 19.3067 12.1579 19.3067 12.4116C19.3067 12.6653 19.0999 12.8713 18.847 12.8713H14.7096H14.2501C13.9972 12.8713 13.7904 12.6653 13.7904 12.4116C13.7904 12.1579 13.9972 11.9519 14.2501 11.9519ZM9.19354 14.7098H12.871V31.7694C12.3278 31.4532 11.7053 31.2582 11.0323 31.2582C10.3593 31.2582 9.73682 31.4532 9.19354 31.7694V14.7098ZM9.19354 34.9357C9.19354 33.9217 10.0181 33.0969 11.0323 33.0969C12.0465 33.0969 12.871 33.9215 12.871 34.9357V38.6132C12.871 39.6271 12.0465 40.4519 11.0323 40.4519C10.0181 40.4519 9.19354 39.6273 9.19354 38.6132V34.9357ZM9.19354 41.7794C9.73682 42.0957 10.3593 42.2907 11.0323 42.2907C11.7053 42.2907 12.3278 42.0957 12.871 41.7794V47.8067C12.871 48.8207 12.0465 49.6455 11.0323 49.6455C10.0181 49.6455 9.19354 48.8209 9.19354 47.8067V41.7794ZM1.83875 29.4196V14.7098H7.35479V34.9357V35.855H6.74259C4.03872 35.855 1.83875 33.6551 1.83875 30.9512V29.4196ZM55.1614 49.3383H55.1612C55.1612 52.0422 52.9613 54.2421 50.2574 54.2421H6.74259C4.03872 54.2421 1.83875 52.0422 1.83875 49.3383V35.5647C3.06973 36.8719 4.81001 37.694 6.74259 37.694H7.35479V38.6132V47.8067C7.35479 49.8349 9.00415 51.4842 11.0323 51.4842C13.0604 51.4842 14.7098 49.8349 14.7098 47.8067V38.6132V37.6938H24.8227H32.1775H42.2904V38.6132V47.8067C42.2904 49.8349 43.9398 51.4842 45.9679 51.4842C47.996 51.4842 49.6454 49.8349 49.6454 47.8067V38.6132V37.6938H50.2576C52.1902 37.6938 53.9305 36.8719 55.1614 35.5645V49.3383Z" fill="#4E7CD7"/>
</g>
</g>
</g>
<defs>
<clipPath id="clip0_404_4647">
<rect width="57" height="57" fill="white"/>
</clipPath>
</defs>
</svg>
