<svg width="59" height="59" viewBox="0 0 59 59" fill="none" xmlns="http://www.w3.org/2000/svg">
<g id="Layer_1" opacity="0.6" clip-path="url(#clip0_404_4666)">
<g id="Group">
<g id="Group_2">
<g id="Group_3">
<path id="Vector" d="M57.7707 31.9589C58.4502 31.9589 59 31.4091 59 30.7296V24.5836C59 21.872 56.7949 19.6668 54.0831 19.6668H44.8309C44.4779 18.8849 44.2494 18.0692 44.2494 17.2084C44.2494 14.9828 45.4847 12.9254 47.4737 11.839C47.7629 11.6806 47.9778 11.4117 48.0667 11.0935C48.1567 10.7766 48.1147 10.4358 47.9514 10.1488L44.9564 4.91747C44.3022 3.77707 43.2458 2.962 41.9818 2.62354C40.7237 2.28739 39.4082 2.46394 38.2822 3.1193L2.43613 23.9882C0.109701 25.3422 -0.690857 28.3504 0.649936 30.6913L3.74696 36.105C3.9114 36.3931 4.18509 36.602 4.50557 36.6848C4.82489 36.7676 5.16577 36.7184 5.44914 36.5479C6.44064 35.95 7.50187 35.6464 8.60262 35.6464C11.2858 35.6464 13.6298 37.4141 14.4277 39.9712C13.632 42.4443 11.3365 44.2508 8.60262 44.2508C7.92318 44.2508 7.37338 44.8006 7.37338 45.4801V51.6261C7.37338 54.3377 9.57846 56.5429 12.2902 56.5429H54.0832C56.7949 56.5429 59.0001 54.3378 59.0001 51.6261V45.4801C59.0001 44.8006 58.4503 44.2508 57.7709 44.2508C54.3822 44.2508 51.6249 41.4935 51.6249 38.1049C51.6248 34.7162 54.3821 31.9589 57.7707 31.9589ZM39.5199 5.24405C40.0757 4.91989 40.7288 4.82989 41.3458 4.99802C41.9736 5.16604 42.497 5.57179 42.8223 6.13957L45.2387 10.3602C43.0864 11.9746 41.7912 14.5016 41.7912 17.2084C41.7912 18.042 41.9284 18.8685 42.1712 19.6668H14.7453L39.5199 5.24405ZM8.60251 33.1881C7.47779 33.1881 6.35537 33.421 5.30025 33.87L2.78426 29.4705C2.11081 28.2965 2.51057 26.7901 3.67251 26.1131L7.44057 23.9195C7.4106 24.1389 7.37338 24.3563 7.37338 24.5838V30.7297C7.37338 31.4092 7.92318 31.959 8.60262 31.959C10.8643 31.959 12.8229 33.2009 13.8901 35.0253C12.4182 33.8672 10.5742 33.1881 8.60251 33.1881ZM49.1663 38.1049C49.1663 42.4323 52.3774 46.0239 56.5415 46.6216V51.6261C56.5415 52.9813 55.4383 54.0844 54.0831 54.0844H24.5822V51.9333C24.5822 51.2539 24.0324 50.704 23.353 50.704C22.6735 50.704 22.1237 51.2539 22.1237 51.9333V54.0844H12.2901C10.9349 54.0844 9.83175 52.9813 9.83175 51.6261V46.6216C13.9959 46.0238 17.207 42.4323 17.207 38.1049C17.207 33.7774 13.9959 30.1858 9.83175 29.5881V24.5836C9.83175 23.2284 10.9349 22.1253 12.2901 22.1253H22.1237V24.891C22.1237 25.5704 22.6735 26.1202 23.353 26.1202C24.0324 26.1202 24.5822 25.5704 24.5822 24.891V22.1253H54.0831C55.4383 22.1253 56.5415 23.2284 56.5415 24.5836V29.5881C52.3774 30.1858 49.1663 33.7774 49.1663 38.1049Z" fill="#4E7CD7"/>
<path id="Vector_2" d="M23.353 31.0369C22.6736 31.0369 22.1238 31.5867 22.1238 32.2661V34.7245C22.1238 35.4039 22.6736 35.9537 23.353 35.9537C24.0325 35.9537 24.5823 35.4039 24.5823 34.7245V32.2661C24.5823 31.5867 24.0325 31.0369 23.353 31.0369Z" fill="#4E7CD7"/>
<path id="Vector_3" d="M23.353 40.8706C22.6736 40.8706 22.1238 41.4204 22.1238 42.0999V44.5582C22.1238 45.2377 22.6736 45.7875 23.353 45.7875C24.0325 45.7875 24.5823 45.2377 24.5823 44.5582V42.0999C24.5823 41.4204 24.0325 40.8706 23.353 40.8706Z" fill="#4E7CD7"/>
<path id="Vector_4" d="M46.2158 27.2882C45.6744 26.8837 44.9025 26.9917 44.4956 27.5342L29.7452 47.2015C29.337 47.7441 29.4475 48.5148 29.9912 48.9217C30.2121 49.0874 30.4701 49.1677 30.727 49.1677C31.1015 49.1677 31.47 48.9984 31.7114 48.6755L46.4618 29.0082C46.87 28.4657 46.7596 27.6951 46.2158 27.2882Z" fill="#4E7CD7"/>
<path id="Vector_5" d="M33.1866 36.8757C35.2549 36.8757 36.8743 34.7162 36.8743 31.9589C36.8743 29.2016 35.2549 27.042 33.1866 27.042C31.1183 27.042 29.499 29.2016 29.499 31.9589C29.499 34.7162 31.1183 36.8757 33.1866 36.8757ZM33.1866 29.5005C33.6884 29.5005 34.4159 30.4585 34.4159 31.9589C34.4159 33.4594 33.6884 34.4172 33.1866 34.4172C32.6849 34.4172 31.9574 33.4592 31.9574 31.9589C31.9574 30.4583 32.6849 29.5005 33.1866 29.5005Z" fill="#4E7CD7"/>
<path id="Vector_6" d="M43.0204 39.334C40.9521 39.334 39.3328 41.4935 39.3328 44.2508C39.3328 47.0081 40.9521 49.1677 43.0204 49.1677C45.0887 49.1677 46.708 47.0081 46.708 44.2508C46.708 41.4935 45.0887 39.334 43.0204 39.334ZM43.0204 46.7092C42.5186 46.7092 41.7911 45.7512 41.7911 44.2508C41.7911 42.7504 42.5186 41.7925 43.0204 41.7925C43.5221 41.7925 44.2496 42.7504 44.2496 44.2508C44.2496 45.7512 43.5221 46.7092 43.0204 46.7092Z" fill="#4E7CD7"/>
</g>
</g>
</g>
</g>
<defs>
<clipPath id="clip0_404_4666">
<rect width="59" height="59" fill="white"/>
</clipPath>
</defs>
</svg>
