<svg width="70" height="70" viewBox="0 0 70 70" fill="none" xmlns="http://www.w3.org/2000/svg">
<path d="M47.2321 63.3681H5.53299C5.22587 63.3681 4.93133 63.2461 4.71417 63.0289C4.497 62.8118 4.375 62.5172 4.375 62.2101V15.8907C4.375 15.5835 4.497 15.289 4.71417 15.0718C4.93133 14.8547 5.22587 14.7327 5.53299 14.7327H56.4844C56.7915 14.7327 57.086 14.8547 57.3032 15.0718C57.5204 15.289 57.6424 15.5835 57.6424 15.8907V43.6823C57.6424 43.9894 57.5204 44.284 57.3032 44.5011C57.086 44.7183 56.7915 44.8403 56.4844 44.8403C56.1773 44.8403 55.8827 44.7183 55.6656 44.5011C55.4484 44.284 55.3264 43.9894 55.3264 43.6823V17.0486H6.69097V61.0521H47.2321C47.5392 61.0521 47.8337 61.1741 48.0509 61.3913C48.268 61.6084 48.39 61.903 48.39 62.2101C48.39 62.5172 48.268 62.8118 48.0509 63.0289C47.8337 63.2461 47.5392 63.3681 47.2321 63.3681Z" fill="#4E7CD7"/>
<path d="M54.1685 61.0521C54.0164 61.0521 53.8658 61.0222 53.7254 60.964C53.5849 60.9057 53.4573 60.8204 53.3498 60.7128L49.8758 57.2389C49.6649 57.0205 49.5482 56.7279 49.5508 56.4243C49.5535 56.1207 49.6752 55.8303 49.8899 55.6156C50.1046 55.4009 50.3951 55.2791 50.6987 55.2764C51.0023 55.2738 51.2948 55.3905 51.5132 55.6015L54.112 58.2001L61.4026 49.8675C61.6049 49.6362 61.8907 49.4948 62.1973 49.4744C62.5038 49.4539 62.8059 49.5561 63.0372 49.7584C63.2684 49.9607 63.4098 50.2465 63.4302 50.5531C63.4507 50.8596 63.3485 51.1618 63.1462 51.393L55.0403 60.6569C54.9357 60.7761 54.8077 60.8726 54.6643 60.9405C54.5209 61.0084 54.3652 61.0462 54.2066 61.0515L54.1685 61.0521Z" fill="#4E7CD7"/>
<path d="M56.4844 17.0486H5.53299C5.31793 17.0486 5.10713 16.9887 4.9242 16.8757C4.74126 16.7626 4.59343 16.6008 4.49725 16.4085C4.40108 16.2161 4.36037 16.0008 4.37968 15.7866C4.39899 15.5724 4.47757 15.3679 4.6066 15.1958L11.5545 5.93194C11.6623 5.78805 11.8022 5.67126 11.963 5.59086C12.1238 5.51045 12.3011 5.46864 12.4809 5.46875H49.5365C49.7162 5.46864 49.8936 5.51045 50.0544 5.59086C50.2152 5.67126 50.3551 5.78805 50.4628 5.93194L57.4108 15.1958C57.5398 15.3679 57.6184 15.5724 57.6377 15.7866C57.657 16.0008 57.6163 16.2161 57.5201 16.4085C57.4239 16.6008 57.2761 16.7626 57.0932 16.8757C56.9102 16.9887 56.6994 17.0486 56.4844 17.0486ZM7.84896 14.7326H54.1684L48.9575 7.78472H13.0599L7.84896 14.7326Z" fill="#4E7CD7"/>
<path d="M37.9562 30.9445C37.6491 30.9444 37.3546 30.8224 37.1375 30.6052L35.6402 29.108L34.1429 30.6052C34.0354 30.7128 33.9078 30.7981 33.7673 30.8563C33.6269 30.9145 33.4763 30.9445 33.3242 30.9445C33.1722 30.9445 33.0216 30.9145 32.8811 30.8563C32.7406 30.7981 32.613 30.7128 32.5055 30.6052L31.0082 29.108L29.511 30.6052C29.4035 30.7128 29.2759 30.7981 29.1354 30.8563C28.9949 30.9145 28.8443 30.9445 28.6923 30.9445C28.5402 30.9445 28.3896 30.9145 28.2492 30.8563C28.1087 30.7981 27.9811 30.7128 27.8736 30.6052L26.3763 29.108L24.879 30.6052C24.7171 30.7671 24.5108 30.8773 24.2862 30.922C24.0616 30.9666 23.8288 30.9437 23.6172 30.8561C23.4057 30.7685 23.2248 30.6201 23.0976 30.4297C22.9703 30.2393 22.9024 30.0155 22.9023 29.7865V15.8907C22.9023 15.5835 23.0243 15.289 23.2415 15.0718C23.4587 14.8547 23.7532 14.7327 24.0603 14.7327H37.9562C38.2633 14.7327 38.5578 14.8547 38.775 15.0718C38.9921 15.289 39.1141 15.5835 39.1141 15.8907V29.7865C39.1141 30.0936 38.9921 30.3881 38.775 30.6053C38.5578 30.8225 38.2633 30.9445 37.9562 30.9445ZM31.0082 26.3125C31.1603 26.3124 31.311 26.3422 31.4515 26.4005C31.592 26.4587 31.7196 26.5441 31.8269 26.6518L33.3242 28.149L34.8215 26.6518C34.929 26.5442 35.0566 26.4589 35.1971 26.4007C35.3376 26.3425 35.4881 26.3125 35.6402 26.3125C35.7923 26.3125 35.9428 26.3425 36.0833 26.4007C36.2238 26.4589 36.3514 26.5442 36.4589 26.6518L36.7982 26.991V17.0486H25.2183V26.991L25.5576 26.6518C25.6651 26.5442 25.7927 26.4589 25.9332 26.4007C26.0737 26.3425 26.2242 26.3125 26.3763 26.3125C26.5284 26.3125 26.6789 26.3425 26.8194 26.4007C26.9599 26.4589 27.0875 26.5442 27.195 26.6518L28.6923 28.149L30.1895 26.6518C30.2969 26.5441 30.4245 26.4587 30.565 26.4005C30.7055 26.3422 30.8562 26.3124 31.0082 26.3125Z" fill="#4E7CD7"/>
<path d="M37.956 17.0486H24.0602C23.8842 17.0486 23.7106 17.0085 23.5524 16.9313C23.3943 16.8541 23.2558 16.7419 23.1475 16.6031C23.0392 16.4644 22.964 16.3028 22.9275 16.1307C22.891 15.9585 22.8943 15.7803 22.937 15.6096L25.2529 6.34569C25.3156 6.09522 25.4602 5.87287 25.6637 5.71398C25.8672 5.55509 26.118 5.46878 26.3762 5.46875H35.6401C35.8983 5.46878 36.149 5.55509 36.3526 5.71398C36.5561 5.87287 36.7007 6.09522 36.7633 6.34569L39.0793 15.6096C39.122 15.7803 39.1252 15.9585 39.0888 16.1307C39.0523 16.3028 38.977 16.4644 38.8688 16.6031C38.7605 16.7419 38.622 16.8541 38.4638 16.9313C38.3057 17.0085 38.132 17.0486 37.956 17.0486ZM25.5439 14.7326H36.4724L34.7355 7.78472H27.2809L25.5439 14.7326Z" fill="#4E7CD7"/>
<path d="M56.4839 68C53.9646 68 51.5019 67.2529 49.4072 65.8533C47.3125 64.4536 45.6798 62.4642 44.7157 60.1367C43.7516 57.8092 43.4994 55.248 43.9909 52.7771C44.4823 50.3062 45.6955 48.0365 47.4769 46.2551C49.2583 44.4737 51.528 43.2605 53.9989 42.7691C56.4698 42.2776 59.031 42.5298 61.3585 43.4939C63.686 44.458 65.6754 46.0907 67.0751 48.1854C68.4747 50.2801 69.2218 52.7428 69.2218 55.2621C69.218 58.6393 67.8747 61.877 65.4867 64.2649C63.0988 66.6529 59.8611 67.9962 56.4839 68ZM56.4839 44.8403C54.4227 44.8403 52.4077 45.4515 50.6939 46.5967C48.98 47.7418 47.6442 49.3695 46.8554 51.2739C46.0666 53.1782 45.8602 55.2737 46.2623 57.2954C46.6645 59.317 47.657 61.174 49.1146 62.6315C50.5721 64.089 52.4291 65.0816 54.4507 65.4838C56.4724 65.8859 58.5679 65.6795 60.4722 64.8907C62.3766 64.1019 64.0042 62.7661 65.1494 61.0522C66.2946 59.3384 66.9058 57.3234 66.9058 55.2621C66.9028 52.499 65.8038 49.85 63.8499 47.8962C61.8961 45.9423 59.2471 44.8433 56.4839 44.8403Z" fill="#4E7CD7"/>
<path d="M12.4822 54.1042C12.1751 54.1042 11.8805 53.9822 11.6634 53.7651C11.4462 53.5479 11.3242 53.2534 11.3242 52.9462V45.9983C11.3242 45.6912 11.4462 45.3967 11.6634 45.1795C11.8805 44.9623 12.1751 44.8403 12.4822 44.8403C12.7893 44.8403 13.0839 44.9623 13.301 45.1795C13.5182 45.3967 13.6402 45.6912 13.6402 45.9983V52.9462C13.6402 53.2534 13.5182 53.5479 13.301 53.7651C13.0839 53.9822 12.7893 54.1042 12.4822 54.1042Z" fill="#4E7CD7"/>
<path d="M14.7972 49.4723C14.6451 49.4725 14.4945 49.4426 14.354 49.3844C14.2135 49.3262 14.0859 49.2407 13.9785 49.133L12.4812 47.6359L10.9839 49.133C10.7655 49.344 10.473 49.4607 10.1694 49.458C9.86579 49.4554 9.57535 49.3336 9.36065 49.1189C9.14595 48.9042 9.02417 48.6138 9.02153 48.3102C9.01889 48.0065 9.13561 47.714 9.34654 47.4956L11.6625 45.1797C11.77 45.0721 11.8976 44.9867 12.0381 44.9285C12.1786 44.8703 12.3291 44.8403 12.4812 44.8403C12.6333 44.8403 12.7839 44.8703 12.9243 44.9285C13.0648 44.9867 13.1924 45.0721 13.2999 45.1797L15.6159 47.4956C15.7778 47.6576 15.888 47.8639 15.9327 48.0885C15.9773 48.3131 15.9544 48.5459 15.8668 48.7574C15.7792 48.969 15.6308 49.1498 15.4404 49.2771C15.25 49.4043 15.0262 49.4723 14.7972 49.4723Z" fill="#4E7CD7"/>
<path d="M21.7439 54.1042C21.4368 54.1042 21.1423 53.9822 20.9251 53.7651C20.7079 53.5479 20.5859 53.2534 20.5859 52.9462V45.9983C20.5859 45.6912 20.7079 45.3967 20.9251 45.1795C21.1423 44.9623 21.4368 44.8403 21.7439 44.8403C22.051 44.8403 22.3456 44.9623 22.5627 45.1795C22.7799 45.3967 22.9019 45.6912 22.9019 45.9983V52.9462C22.9019 53.2534 22.7799 53.5479 22.5627 53.7651C22.3456 53.9822 22.051 54.1042 21.7439 54.1042Z" fill="#4E7CD7"/>
<path d="M24.0609 49.4723C23.9088 49.4725 23.7581 49.4426 23.6176 49.3844C23.4771 49.3262 23.3495 49.2407 23.2422 49.133L21.7449 47.6359L20.2476 49.133C20.0292 49.344 19.7367 49.4607 19.4331 49.458C19.1295 49.4554 18.839 49.3336 18.6243 49.1189C18.4096 48.9042 18.2878 48.6138 18.2852 48.3102C18.2826 48.0065 18.3993 47.714 18.6102 47.4956L20.9262 45.1797C21.0337 45.0721 21.1613 44.9867 21.3018 44.9285C21.4422 44.8703 21.5928 44.8403 21.7449 44.8403C21.897 44.8403 22.0475 44.8703 22.188 44.9285C22.3285 44.9867 22.4561 45.0721 22.5636 45.1797L24.8796 47.4956C25.0415 47.6576 25.1517 47.8639 25.1964 48.0885C25.241 48.3131 25.2181 48.5459 25.1305 48.7574C25.0428 48.969 24.8945 49.1498 24.7041 49.2771C24.5137 49.4043 24.2898 49.4723 24.0609 49.4723Z" fill="#4E7CD7"/>
<path d="M24.0616 58.7361H10.1658C9.85868 58.7361 9.56414 58.6141 9.34698 58.397C9.12981 58.1798 9.00781 57.8853 9.00781 57.5782C9.00781 57.271 9.12981 56.9765 9.34698 56.7593C9.56414 56.5422 9.85868 56.4202 10.1658 56.4202H24.0616C24.3687 56.4202 24.6633 56.5422 24.8805 56.7593C25.0976 56.9765 25.2196 57.271 25.2196 57.5782C25.2196 57.8853 25.0976 58.1798 24.8805 58.397C24.6633 58.6141 24.3687 58.7361 24.0616 58.7361Z" fill="#4E7CD7"/>
</svg>
