<svg width="70" height="70" viewBox="0 0 70 70" fill="none" xmlns="http://www.w3.org/2000/svg">
<path d="M60.6311 8.48486H17.5705C14.7405 8.48843 12.4477 10.8194 12.4442 13.6965V54.3469H5.26744C4.70125 54.3469 4.24219 54.8136 4.24219 55.3892V57.4738C4.24569 60.3509 6.53849 62.6818 9.36845 62.6854H41.1758V67.897C41.1758 68.2919 41.3951 68.6528 41.7425 68.8294C42.0899 69.006 42.5054 68.9678 42.8163 68.7306L46.3021 66.0729L49.7878 68.7306C49.965 68.8665 50.1813 68.9398 50.4031 68.9393C50.5623 68.9408 50.7195 68.9052 50.8626 68.835C51.2116 68.6574 51.4308 68.2935 51.4283 67.897V62.6854H52.4291C55.259 62.6818 57.5518 60.3509 57.5553 57.4738V16.8234H64.7321C65.2983 16.8234 65.7573 16.3567 65.7573 15.7811V13.6965C65.7538 10.8194 63.461 8.48843 60.6311 8.48486ZM41.1758 60.6008H9.36845C7.66988 60.6008 6.29269 59.2007 6.29269 57.4738V56.4315H41.1758V60.6008ZM49.3778 65.8124L46.9173 63.9364C46.5529 63.658 46.0518 63.658 45.6868 63.9364L43.2263 65.8124V54.1708C43.4246 54.1865 43.6238 54.183 43.821 54.1591C44.4128 54.9352 45.3244 55.3892 46.2901 55.3892C47.2557 55.3892 48.1669 54.9352 48.7586 54.1591C48.9628 54.184 49.1691 54.1881 49.3738 54.1708L49.3778 65.8124ZM50.6964 49.1144C50.4231 49.2131 50.2033 49.4254 50.0927 49.6976C49.9816 49.9704 49.9891 50.2778 50.1142 50.5445C50.308 50.9578 50.2259 51.4505 49.9085 51.7752C49.5906 52.0999 49.1065 52.1864 48.699 51.9915C48.4372 51.8642 48.1343 51.8561 47.866 51.9686C47.5972 52.0815 47.3889 52.305 47.2913 52.5834C47.1416 53.0149 46.7401 53.304 46.2901 53.304C45.8395 53.304 45.438 53.0149 45.2883 52.5834C45.1912 52.305 44.9825 52.0815 44.7141 51.9686C44.4453 51.8561 44.1424 51.8642 43.8806 51.9915C43.4731 52.1864 42.989 52.0999 42.6716 51.7752C42.3537 51.4505 42.2716 50.9578 42.4659 50.5445C42.5905 50.2784 42.5985 49.9704 42.4874 49.6982C42.3768 49.4254 42.1575 49.2136 41.8842 49.1144C41.4592 48.9607 41.1748 48.5515 41.1748 48.0929C41.1748 47.6344 41.4592 47.2252 41.8842 47.0715C42.1575 46.9723 42.3763 46.7605 42.4869 46.4882C42.598 46.216 42.59 45.9086 42.4659 45.6424C42.2706 45.2291 42.3527 44.736 42.6706 44.4107C42.988 44.086 43.4726 43.999 43.8806 44.1944C44.1424 44.3217 44.4453 44.3298 44.7141 44.2173C44.9825 44.1044 45.1912 43.8809 45.2883 43.6025C45.438 43.1709 45.8395 42.8819 46.2901 42.8819C46.7401 42.8819 47.1416 43.1709 47.2913 43.6025C47.3889 43.8809 47.5972 44.1044 47.866 44.2173C48.1343 44.3298 48.4372 44.3217 48.699 44.1944C49.1065 43.9995 49.5906 44.086 49.9085 44.4107C50.2259 44.7354 50.308 45.2281 50.1142 45.6414C49.9891 45.9081 49.9816 46.2155 50.0927 46.4882C50.2033 46.7605 50.4231 46.9728 50.6964 47.0715C51.1205 47.2262 51.4038 47.6349 51.4038 48.0929C51.4038 48.551 51.1205 48.9597 50.6964 49.1144ZM56.451 10.6998C56.3929 10.7833 56.3413 10.8718 56.2883 10.9594C56.1786 11.1375 56.0805 11.3217 55.9929 11.5116C55.9469 11.6159 55.9038 11.7121 55.8638 11.8139C55.7877 12.0185 55.7236 12.2271 55.673 12.4394C55.6495 12.5366 55.6195 12.6302 55.6014 12.729C55.5394 13.0481 55.5073 13.3717 55.5048 13.6965V57.4738C55.5048 59.2007 54.1276 60.6008 52.4291 60.6008C52.0871 60.5941 51.7492 60.5295 51.4283 60.4089V53.1585C52.0661 52.4765 52.367 51.5385 52.2488 50.6051C53.0108 50.002 53.4563 49.0747 53.4563 48.0929C53.4563 47.1112 53.0108 46.1839 52.2488 45.5808C52.37 44.6077 52.0421 43.632 51.3608 42.9368C50.6794 42.2421 49.7207 41.9062 48.7626 42.0268C48.1709 41.2507 47.2597 40.7967 46.2941 40.7967C45.3284 40.7967 44.4168 41.2507 43.825 42.0268C42.8674 41.9067 41.9087 42.2426 41.2274 42.9373C40.5465 43.632 40.2186 44.6077 40.3393 45.5808C39.5774 46.1839 39.1313 47.1112 39.1313 48.0929C39.1313 49.0747 39.5774 50.002 40.3393 50.6051C40.2181 51.5517 40.5285 52.5029 41.1818 53.189V54.3469H14.4947V13.6965C14.4947 11.9696 15.8719 10.5695 17.5705 10.5695H56.5301C56.5015 10.6102 56.48 10.657 56.451 10.6998ZM63.7068 14.7388H57.5553V13.6965C57.5553 11.9696 58.9325 10.5695 60.6311 10.5695C62.3297 10.5695 63.7068 11.9696 63.7068 13.6965V14.7388Z" fill="#4E7CD7"/>
<path d="M38.1816 16.9697H42.4241V19.0909H38.1816V16.9697Z" fill="#4E7CD7"/>
<path d="M27.5762 16.9697H36.061V19.0909H27.5762V16.9697Z" fill="#4E7CD7"/>
<path d="M24.3945 22.2727H45.6067V24.3939H24.3945V22.2727Z" fill="#4E7CD7"/>
<path d="M19.0918 28.6364H24.3948V30.7576H19.0918V28.6364Z" fill="#4E7CD7"/>
<path d="M19.0918 33.9395H30.7585V36.0607H19.0918V33.9395Z" fill="#4E7CD7"/>
<path d="M26.5156 28.6364H50.9096V30.7576H26.5156V28.6364Z" fill="#4E7CD7"/>
<path d="M32.8789 33.9395H50.9092V36.0607H32.8789V33.9395Z" fill="#4E7CD7"/>
<path d="M19.0918 38.1818H40.3039V40.303H19.0918V38.1818Z" fill="#4E7CD7"/>
<path d="M19.0918 43.4849H37.1221V45.6061H19.0918V43.4849Z" fill="#4E7CD7"/>
</svg>
