<svg width="70" height="70" viewBox="0 0 70 70" fill="none" xmlns="http://www.w3.org/2000/svg">
<path d="M64.5953 24.8925C68.6148 20.873 69.7277 14.7015 67.3639 9.53773C66.661 8.00081 65.1953 9.14657 65.0549 9.18073L61.0803 13.1552C60.9819 13.2537 60.8232 13.2537 60.7248 13.1552L56.7326 9.16309C56.6342 9.06467 56.6342 8.90605 56.7326 8.80763L60.666 4.87279C61.2896 4.24923 61.177 2.98923 60.2243 2.58687C55.0674 0.409027 49.1815 1.56151 45.2236 5.51945C41.938 8.80525 40.5867 13.5246 41.5454 18.0182L35.384 24.1795C11.7261 0.519905 19.0492 7.84359 17.6002 6.39445C16.2085 5.00411 13.7796 5.00131 12.3879 6.39445L6.32783 12.4552C5.63189 13.1497 5.24843 14.0754 5.24843 15.0611C5.24843 16.0455 5.63189 16.971 6.32783 17.667C6.71563 18.0548 23.9717 35.3103 24.1126 35.451L18.0776 41.486C13.5294 40.4367 8.74521 41.7649 5.40355 45.1078C1.38332 49.1273 0.27115 55.2988 2.63575 60.4613C2.78737 60.7928 3.10532 61.0633 3.42969 61.1832C3.99627 61.3913 4.54857 61.2233 4.90459 60.8673L8.92133 56.8492C9.01975 56.7536 9.17977 56.7508 9.27679 56.8492L13.2704 60.8427C13.3305 60.9029 13.3428 60.9726 13.3428 61.0205C13.3428 61.067 13.3305 61.1367 13.2697 61.1969L9.35407 65.1131C8.62089 65.8124 8.85105 67.0235 9.77449 67.4134C11.506 68.1449 13.3196 68.5004 15.1148 68.5004C18.666 68.5004 22.1468 67.1085 24.7752 64.4795C28.0959 61.1601 29.4365 56.4033 28.4272 51.8793L34.4841 45.8225L51.0158 62.3543C51.0174 62.3559 51.0189 62.3573 51.0204 62.359L51.0218 62.3603C51.1537 62.4923 51.3094 62.5948 51.4787 62.6645L64.7074 68.0916C65.0219 68.2215 65.35 68.283 65.6754 68.283C66.3357 68.283 66.9838 68.0259 67.4704 67.5393C68.1979 66.8119 68.4166 65.7277 68.0255 64.7747L62.6011 51.554C62.6004 51.5521 62.5997 51.5505 62.5989 51.5485L62.5979 51.5458C62.5237 51.3644 62.4152 51.2082 62.2839 51.0788L45.7557 34.5508L51.8092 28.4979C56.7665 29.6661 61.4322 28.0557 64.5953 24.8925ZM8.04844 15.0611C8.04844 14.8245 8.1407 14.6018 8.30744 14.4349L14.3676 8.37419C14.7025 8.04057 15.2849 8.04057 15.6199 8.37419L20.536 13.2903L13.223 20.6026L8.30814 15.6872C8.1407 15.5205 8.04844 15.2976 8.04844 15.0611ZM17.8697 19.9155L54.6774 56.7246L52.0116 59.3907L15.2028 22.5819L17.8697 19.9155ZM25.9018 50.4453C25.6105 50.7366 25.4143 51.3357 25.5553 51.8221C26.6565 55.6064 25.599 59.6971 22.7956 62.4997C20.1758 65.1201 16.4938 66.1681 12.9687 65.4574L15.2488 63.1765C15.8257 62.6009 16.1428 61.8353 16.1428 61.0205C16.1428 60.2043 15.8257 59.4386 15.2493 58.8631L11.2558 54.8694C10.0671 53.68 8.13117 53.68 6.94243 54.8694L4.51917 57.293C3.66405 53.6771 4.69235 49.779 7.38329 47.0875C10.2037 44.2656 14.3211 43.2224 18.1171 44.3585C18.597 44.5012 19.2266 44.2962 19.513 44.0099L26.0922 37.4306L32.5043 43.8428L25.9018 50.4453ZM54.4883 60.8735L57.6453 57.7161C57.6458 57.7154 57.6467 57.7152 57.6472 57.7147C57.6479 57.714 57.648 57.7131 57.6486 57.7126L60.8064 54.5543L65.2023 65.2684L54.4883 60.8735ZM56.657 54.7447L19.8494 17.9359L22.5153 15.2703L59.3234 52.0777L56.657 54.7447ZM37.3637 26.1592L44.0581 19.4648C44.3913 19.1315 44.5204 18.4715 44.4143 18.0921C43.3615 14.3324 44.4307 10.2733 47.2034 7.49919C49.8242 4.87713 53.507 3.82937 57.0364 4.54365L54.7529 6.82789C53.5634 8.01733 53.5634 9.95325 54.7529 11.1427L58.7451 15.1349C59.9362 16.326 61.8705 16.3244 63.0599 15.1349L65.4816 12.7133C66.3334 16.3284 65.3044 20.2241 62.6157 22.9129C59.7705 25.758 55.6183 26.8025 51.7724 25.6268C51.3616 25.5022 50.7077 25.6401 50.3779 25.9699L43.776 32.5712L37.3637 26.1592Z" fill="#4E7CD7"/>
</svg>
