<svg width="70" height="70" viewBox="0 0 70 70" fill="none" xmlns="http://www.w3.org/2000/svg">
<path d="M57.312 67.4001H13.0222C12.4602 67.4001 12.0003 66.9445 12.0003 66.3824C11.9918 62.8995 12.1366 54.1881 13.7035 48.6018C14.1207 47.1158 14.6231 45.9066 15.2916 44.7911C15.8537 43.8501 17.4759 41.4828 20.384 39.8435C23.0664 38.3362 25.6338 38.1106 27.3157 38.1872C27.5158 38.1957 27.7074 38.2639 27.8692 38.3831L34.9797 43.5691L42.4863 38.3703C42.6438 38.2596 42.8311 38.2 43.0227 38.1915C44.7046 38.1148 47.272 38.3405 49.9545 39.8478C52.8625 41.4828 54.4848 43.8501 55.0468 44.7953C55.7153 45.9109 56.2177 47.1244 56.635 48.6061C58.2018 54.2051 58.3466 62.9081 58.3381 66.3867C58.3338 66.9445 57.874 67.4001 57.312 67.4001ZM35.1117 65.3563H56.2858C56.2603 61.8819 56.0431 54.0816 54.6593 49.1511C54.2889 47.8312 53.8631 46.8093 53.2841 45.8385C52.8072 45.038 51.4234 43.0241 48.9411 41.6275C46.8292 40.4396 44.8025 40.1969 43.3932 40.2224L35.5375 45.6639C35.1799 45.9109 34.703 45.9066 34.3538 45.6512L26.9197 40.2182C25.5104 40.1926 23.4922 40.4396 21.3845 41.6233C18.9022 43.0198 17.5227 45.0338 17.0416 45.8342C16.4625 46.805 16.041 47.8269 15.6663 49.1468C14.3038 54.0135 14.0654 61.4902 14.0398 65.352L35.1117 65.3563Z" fill="#4E7CD7"/>
<path d="M22.3539 67.4C21.7876 67.4 21.332 66.9444 21.332 66.3781V53.9453C21.332 53.379 21.7876 52.9235 22.3539 52.9235C22.9202 52.9235 23.3758 53.379 23.3758 53.9453V66.3781C23.3758 66.9444 22.9159 67.4 22.3539 67.4Z" fill="#4E7CD7"/>
<path d="M47.977 67.4C47.4107 67.4 46.9551 66.9444 46.9551 66.3781V53.9453C46.9551 53.379 47.4107 52.9235 47.977 52.9235C48.5432 52.9235 48.9988 53.379 48.9988 53.9453V66.3781C48.9988 66.9444 48.5432 67.4 47.977 67.4Z" fill="#4E7CD7"/>
<path d="M29.337 41.5509C29.1922 41.5509 29.0432 41.521 28.9027 41.4529C28.3917 41.2145 28.1703 40.6056 28.413 40.0947C28.6983 39.4816 29.1879 38.2596 29.222 36.9226C29.2348 36.3776 29.1666 36.1264 29.0517 35.7134C29.0347 35.658 29.0219 35.5984 29.0048 35.5388C28.8558 34.9938 29.1794 34.4318 29.7244 34.287C30.2694 34.138 30.8314 34.4616 30.9762 35.0066C30.989 35.0619 31.006 35.1173 31.0188 35.1684C31.1508 35.6368 31.2828 36.1221 31.2615 36.9737C31.2189 38.6853 30.6143 40.2054 30.2609 40.9633C30.0863 41.3337 29.7202 41.5509 29.337 41.5509Z" fill="#4E7CD7"/>
<path d="M35.1656 37.9147C32.2362 37.9147 29.4857 36.6586 27.4207 34.3764C25.3854 32.124 24.2656 29.1351 24.2656 25.9587V21.339C24.2656 20.7727 24.7212 20.3171 25.2875 20.3171C25.8538 20.3171 26.3094 20.7727 26.3094 21.339V25.9587C26.3094 31.4258 30.2819 35.8752 35.1656 35.8752C40.0493 35.8752 44.0219 31.4258 44.0219 25.9587V21.339C44.0219 20.7727 44.4775 20.3171 45.0437 20.3171C45.61 20.3171 46.0656 20.7727 46.0656 21.339V25.9587C46.0656 29.1351 44.9458 32.124 42.9106 34.3764C40.8455 36.6586 38.095 37.9147 35.1656 37.9147Z" fill="#4E7CD7"/>
<path d="M45.91 17.639C45.3437 17.639 44.8881 17.1834 44.8881 16.6171C44.8881 12.0911 41.6863 8.1015 37.2752 7.12646C36.7259 7.00298 36.3768 6.45798 36.496 5.90873C36.6152 5.35947 37.1645 5.01033 37.7137 5.12955C40.2897 5.69584 42.6272 7.14349 44.3006 9.20001C45.1351 10.2261 45.7865 11.3758 46.2336 12.6148C46.6977 13.8964 46.9319 15.2418 46.9319 16.6171C46.9319 17.1834 46.4721 17.639 45.91 17.639Z" fill="#4E7CD7"/>
<path d="M24.4242 17.639C23.8579 17.639 23.4023 17.1834 23.4023 16.6171C23.4023 15.2419 23.6365 13.8964 24.1006 12.6148C24.5477 11.3758 25.1991 10.2262 26.0337 9.20003C27.707 7.14351 30.0445 5.69585 32.6205 5.12956C33.1698 5.00609 33.719 5.35523 33.8382 5.90874C33.9617 6.458 33.6126 7.00726 33.0591 7.12648C28.648 8.10152 25.4461 12.0911 25.4461 16.6171C25.4461 17.1834 24.9905 17.639 24.4242 17.639Z" fill="#4E7CD7"/>
<path d="M45.403 22.3608H24.9315C23.0666 22.3608 21.5508 20.845 21.5508 18.9801C21.5508 17.1151 23.0666 15.5994 24.9315 15.5994H45.4073C47.2722 15.5994 48.788 17.1151 48.788 18.9801C48.788 20.845 47.268 22.3608 45.403 22.3608ZM24.9315 17.6389C24.1949 17.6389 23.5945 18.2392 23.5945 18.9758C23.5945 19.7124 24.1949 20.3128 24.9315 20.3128H45.4073C46.1439 20.3128 46.7442 19.7124 46.7442 18.9758C46.7442 18.2392 46.1439 17.6389 45.4073 17.6389H24.9315Z" fill="#4E7CD7"/>
<path d="M35.167 11.6439C33.3233 11.6439 31.8203 10.1409 31.8203 8.2973V5.34664C31.8203 3.50301 33.3233 2 35.167 2C37.0106 2 38.5136 3.50301 38.5136 5.34664V8.2973C38.5136 10.1452 37.0106 11.6439 35.167 11.6439ZM35.167 4.04375C34.4474 4.04375 33.8641 4.62707 33.8641 5.34664V8.2973C33.8641 9.01687 34.4474 9.60019 35.167 9.60019C35.8865 9.60019 36.4698 9.01687 36.4698 8.2973V5.34664C36.4698 4.62707 35.8865 4.04375 35.167 4.04375Z" fill="#4E7CD7"/>
<path d="M40.9973 41.5593C40.6268 41.5593 40.2692 41.355 40.0861 41.0058C39.3665 39.6007 38.9663 38.1361 38.928 36.765C38.9109 36.071 38.9961 35.6367 39.0898 35.2663C39.2303 34.7213 39.7838 34.3892 40.333 34.5254C40.878 34.6659 41.2102 35.2195 41.0739 35.7687C41.0058 36.0412 40.9632 36.2924 40.976 36.714C41.01 38.0552 41.4997 39.2814 41.9084 40.0734C42.1682 40.5758 41.968 41.1932 41.4656 41.4486C41.3166 41.5253 41.1548 41.5593 40.9973 41.5593Z" fill="#4E7CD7"/>
</svg>
