<svg width="192" height="80" viewBox="0 0 192 80" fill="none" xmlns="http://www.w3.org/2000/svg">
<g filter="url(#filter0_d_729_2962)">
<rect width="26.8275" height="26.8275" rx="3" transform="matrix(0.70823 -0.705982 0.70823 0.705982 132.627 36.0972)" fill="white"/>
</g>
<ellipse cx="151.67" cy="36.0993" rx="10.8814" ry="10.8473" fill="black"/>
<rect x="144.868" y="29.3179" width="13.6984" height="13.6546" rx="3" fill="white"/>
<ellipse cx="151.651" cy="36.0789" rx="4.74178" ry="4.72639" fill="black"/>
<rect width="3.06956" height="3.06956" rx="1" transform="matrix(0.708197 -0.706015 0.708197 0.706015 149.629 36.0972)" fill="white"/>
<path d="M2.58705 48.4019V53.1179H0.373047V40.5179C0.997047 40.5179 1.67505 40.5119 2.40705 40.4999C3.13905 40.4879 3.73905 40.4819 4.20705 40.4819C7.25505 40.4819 8.77905 41.7779 8.77905 44.3699C8.77905 45.3299 8.53305 46.1219 8.04105 46.7459C7.54905 47.3459 6.98505 47.7539 6.34905 47.9699L10.291 53.1179H7.60905L4.13505 48.4019H2.58705ZM4.09905 42.5519C4.03905 42.5519 3.94305 42.5579 3.81105 42.5699C3.67905 42.5699 3.49305 42.5759 3.25305 42.5879C3.01305 42.5879 2.79105 42.5879 2.58705 42.5879V46.3319H4.02705C4.73505 46.3319 5.31105 46.1579 5.75505 45.8099C6.21105 45.4619 6.43905 44.9879 6.43905 44.3879C6.43905 43.1639 5.65905 42.5519 4.09905 42.5519Z" fill="#3C3C3C"/>
<path d="M17.2424 50.8499L17.8364 52.3079C17.0324 52.9799 16.0004 53.3159 14.7404 53.3159C13.4444 53.3159 12.3884 52.9259 11.5724 52.1459C10.7804 51.3779 10.3844 50.3519 10.3844 49.0679C10.3844 47.8679 10.7744 46.8599 11.5544 46.0439C12.3344 45.2279 13.3724 44.8199 14.6684 44.8199C15.7364 44.8199 16.6424 45.1739 17.3864 45.8819C18.1304 46.5899 18.5024 47.4899 18.5024 48.5819C18.5024 49.0619 18.4604 49.4339 18.3764 49.6979H12.5264C12.6104 50.2859 12.8684 50.7479 13.3004 51.0839C13.7444 51.4199 14.2964 51.5879 14.9564 51.5879C15.8564 51.5879 16.6184 51.3419 17.2424 50.8499ZM14.5784 46.5479C13.4024 46.5479 12.6944 47.1359 12.4544 48.3119H16.4324C16.4444 47.7959 16.2764 47.3759 15.9284 47.0519C15.5924 46.7159 15.1424 46.5479 14.5784 46.5479Z" fill="#3C3C3C"/>
<path d="M27.8929 56.7179H25.8229V52.7039C25.1989 53.1119 24.5329 53.3159 23.8249 53.3159C22.5409 53.3159 21.5149 52.9319 20.7469 52.1639C19.9909 51.3839 19.6129 50.3519 19.6129 49.0679C19.6129 47.8559 20.0509 46.8479 20.9269 46.0439C21.8149 45.2279 22.9249 44.8199 24.2569 44.8199C25.6489 44.8199 26.8609 45.1439 27.8929 45.7919V56.7179ZM24.0949 51.3899C24.7909 51.3899 25.3669 51.1439 25.8229 50.6519V47.1599C25.2829 46.8959 24.7549 46.7639 24.2389 46.7639C23.4949 46.7639 22.9069 46.9919 22.4749 47.4479C22.0429 47.8919 21.8269 48.4619 21.8269 49.1579C21.8269 49.8059 22.0309 50.3399 22.4389 50.7599C22.8589 51.1799 23.4109 51.3899 24.0949 51.3899Z" fill="#3C3C3C"/>
<path d="M35.4276 45.0179H37.4976V53.1179H35.4276V52.1279C34.7796 52.9199 33.9156 53.3159 32.8356 53.3159C31.9716 53.3159 31.2816 53.0279 30.7656 52.4519C30.2496 51.8759 29.9916 51.0479 29.9916 49.9679V45.0179H32.0616V49.5359C32.0616 50.7719 32.5776 51.3899 33.6096 51.3899C34.3176 51.3899 34.9236 51.0599 35.4276 50.3999V45.0179Z" fill="#3C3C3C"/>
<path d="M46.1584 50.8499L46.7524 52.3079C45.9484 52.9799 44.9164 53.3159 43.6564 53.3159C42.3604 53.3159 41.3044 52.9259 40.4884 52.1459C39.6964 51.3779 39.3004 50.3519 39.3004 49.0679C39.3004 47.8679 39.6904 46.8599 40.4704 46.0439C41.2504 45.2279 42.2884 44.8199 43.5844 44.8199C44.6524 44.8199 45.5584 45.1739 46.3024 45.8819C47.0464 46.5899 47.4184 47.4899 47.4184 48.5819C47.4184 49.0619 47.3764 49.4339 47.2924 49.6979H41.4424C41.5264 50.2859 41.7844 50.7479 42.2164 51.0839C42.6604 51.4199 43.2124 51.5879 43.8724 51.5879C44.7724 51.5879 45.5344 51.3419 46.1584 50.8499ZM43.4944 46.5479C42.3184 46.5479 41.6104 47.1359 41.3704 48.3119H45.3484C45.3604 47.7959 45.1924 47.3759 44.8444 47.0519C44.5084 46.7159 44.0584 46.5479 43.4944 46.5479Z" fill="#3C3C3C"/>
<path d="M48.8157 47.2859C48.8157 46.5299 49.0917 45.9299 49.6437 45.4859C50.1957 45.0419 50.9097 44.8199 51.7857 44.8199C53.1057 44.8199 54.1317 45.1619 54.8637 45.8459L54.0897 47.3219C53.4297 46.8059 52.6977 46.5479 51.8937 46.5479C51.6057 46.5479 51.3657 46.6199 51.1737 46.7639C50.9817 46.8959 50.8857 47.0579 50.8857 47.2499C50.8857 47.6459 51.3957 47.9759 52.4157 48.2399C52.7877 48.3239 53.1177 48.4199 53.4057 48.5279C53.6937 48.6239 53.9877 48.7679 54.2877 48.9599C54.5997 49.1399 54.8397 49.3799 55.0077 49.6799C55.1757 49.9799 55.2597 50.3279 55.2597 50.7239C55.2597 51.5159 54.9597 52.1459 54.3597 52.6139C53.7717 53.0819 52.9797 53.3159 51.9837 53.3159C51.2757 53.3159 50.5857 53.1659 49.9137 52.8659C49.2297 52.5539 48.7917 52.2419 48.5997 51.9299L49.6077 50.5799C49.8357 50.8559 50.2137 51.0899 50.7417 51.2819C51.2817 51.4859 51.7437 51.5879 52.1277 51.5879C52.5957 51.6359 52.9257 51.4859 53.1177 51.1379C53.3097 50.7779 53.1837 50.4839 52.7397 50.2559C52.5597 50.1599 52.2777 50.0579 51.8937 49.9499C51.5217 49.8419 51.1737 49.7339 50.8497 49.6259C50.5377 49.5059 50.2137 49.3559 49.8777 49.1759C49.5537 48.9959 49.2957 48.7499 49.1037 48.4379C48.9117 48.1139 48.8157 47.7299 48.8157 47.2859Z" fill="#3C3C3C"/>
<path d="M56.9037 50.0399V42.7679H58.9737V45.0179H61.5837V46.9619H58.9737V49.9139C58.9737 50.8859 59.2977 51.3719 59.9457 51.3719C60.3537 51.3719 60.7677 51.2159 61.1877 50.9039L61.8177 52.5059C61.1577 53.0339 60.3597 53.2979 59.4237 53.2979C58.5477 53.2979 57.9057 53.0339 57.4977 52.5059C57.1017 51.9659 56.9037 51.1439 56.9037 50.0399Z" fill="#3C3C3C"/>
<path d="M68.2764 53.1179H68.1234V41.2179H68.3104C68.7978 41.2179 69.2511 41.2123 69.6704 41.2009C70.5091 41.1783 71.0078 41.1669 71.1664 41.1669C72.3111 41.1669 73.3198 41.3256 74.1924 41.6429C75.0764 41.9489 75.7791 42.3796 76.3004 42.9349C76.8218 43.4789 77.2071 44.0966 77.4564 44.7879C77.7171 45.4679 77.8474 46.2046 77.8474 46.9979C77.8474 48.7886 77.2524 50.2619 76.0624 51.4179C74.8838 52.5739 73.2064 53.1519 71.0304 53.1519C70.5431 53.1519 70.0954 53.1463 69.6874 53.1349C69.2794 53.1236 68.8091 53.1179 68.2764 53.1179ZM71.1324 42.0509C70.8831 42.0509 70.5148 42.0623 70.0274 42.0849C69.5514 42.0963 69.2284 42.1019 69.0584 42.1019V52.2339C69.4324 52.2339 69.7838 52.2396 70.1124 52.2509C70.4411 52.2509 70.6791 52.2566 70.8264 52.2679C70.9738 52.2679 71.0531 52.2679 71.0644 52.2679C72.9118 52.2679 74.3398 51.7806 75.3484 50.8059C76.3571 49.8199 76.8614 48.5506 76.8614 46.9979C76.8614 45.5359 76.3798 44.3459 75.4164 43.4279C74.4418 42.5099 73.0138 42.0509 71.1324 42.0509Z" fill="#3C3C3C"/>
<path d="M86.0826 51.5029L86.3716 52.1829C85.6803 52.9083 84.7396 53.2709 83.5496 53.2709C82.3256 53.2709 81.3453 52.9083 80.6086 52.1829C79.8606 51.4576 79.4866 50.4943 79.4866 49.2929C79.4866 48.1369 79.8266 47.1849 80.5066 46.4369C81.1979 45.6889 82.1499 45.3149 83.3626 45.3149C84.3486 45.3149 85.1759 45.6323 85.8446 46.2669C86.5019 46.8903 86.8306 47.7233 86.8306 48.7659C86.8306 49.0379 86.8136 49.2759 86.7796 49.4799H80.4726C80.5066 50.3979 80.8069 51.1233 81.3736 51.6559C81.9403 52.1773 82.6826 52.4379 83.6006 52.4379C84.6659 52.4379 85.4933 52.1263 86.0826 51.5029ZM83.2776 46.1479C82.4616 46.1479 81.7986 46.3859 81.2886 46.8619C80.7899 47.3379 80.5009 47.9669 80.4216 48.7489H85.9296C85.9183 47.9443 85.6746 47.3096 85.1986 46.8449C84.7226 46.3803 84.0823 46.1479 83.2776 46.1479Z" fill="#3C3C3C"/>
<path d="M92.9066 51.1119C92.9066 50.7606 92.7593 50.4773 92.4646 50.2619C92.1813 50.0466 91.83 49.8766 91.4106 49.7519C91.0026 49.6273 90.589 49.4913 90.1696 49.3439C89.7503 49.1853 89.3933 48.9416 89.0986 48.6129C88.8153 48.2729 88.6736 47.8479 88.6736 47.3379C88.6736 46.7259 88.9003 46.2386 89.3536 45.8759C89.807 45.5019 90.402 45.3149 91.1386 45.3149C92.1926 45.3149 92.9916 45.5983 93.5356 46.1649L93.1616 46.8279C92.6403 46.3406 91.9716 46.0969 91.1556 46.0969C90.7023 46.0969 90.3283 46.2159 90.0336 46.4539C89.7503 46.6806 89.6086 46.9696 89.6086 47.3209C89.6086 47.6836 89.7503 47.9839 90.0336 48.2219C90.3283 48.4486 90.6796 48.6299 91.0876 48.7659C91.507 48.8906 91.9263 49.0266 92.3456 49.1739C92.765 49.3213 93.1163 49.5536 93.3996 49.8709C93.6943 50.1883 93.8416 50.5906 93.8416 51.0779C93.8416 51.7693 93.581 52.3076 93.0596 52.6929C92.5496 53.0783 91.8923 53.2709 91.0876 53.2709C90.589 53.2709 90.0676 53.1576 89.5236 52.9309C89.0136 52.7156 88.6623 52.4606 88.4696 52.1659L88.9626 51.5879C89.178 51.8486 89.501 52.0639 89.9316 52.2339C90.3736 52.4039 90.793 52.4889 91.1896 52.4889C91.6883 52.4889 92.0963 52.3699 92.4136 52.1319C92.7423 51.8826 92.9066 51.5426 92.9066 51.1119Z" fill="#3C3C3C"/>
<path d="M97.3601 53.1179H96.4761V45.4679H97.3601V53.1179ZM96.3231 42.4929C96.3231 42.3229 96.3854 42.1869 96.5101 42.0849C96.6348 41.9829 96.7821 41.9319 96.9521 41.9319C97.0994 41.9319 97.2298 41.9886 97.3431 42.1019C97.4678 42.2039 97.5301 42.3343 97.5301 42.4929C97.5301 42.6856 97.4734 42.8386 97.3601 42.9519C97.2581 43.0653 97.1221 43.1219 96.9521 43.1219C96.7708 43.1219 96.6178 43.0653 96.4931 42.9519C96.3798 42.8386 96.3231 42.6856 96.3231 42.4929Z" fill="#3C3C3C"/>
<path d="M99.3787 54.2399C99.3787 53.6619 99.5827 53.1746 99.9907 52.7779C100.399 52.3813 100.977 52.1036 101.725 51.9449C101.555 51.7409 101.47 51.4973 101.47 51.2139C101.47 50.9306 101.566 50.6756 101.759 50.4489C101.26 50.2336 100.869 49.9106 100.586 49.4799C100.302 49.0493 100.161 48.5619 100.161 48.0179C100.161 47.2359 100.438 46.5899 100.994 46.0799C101.549 45.5699 102.28 45.3149 103.187 45.3149C103.912 45.3149 104.552 45.5076 105.108 45.8929H105.125L107.301 45.3149V46.1479L105.754 46.5389C106.06 47.0036 106.213 47.4966 106.213 48.0179C106.213 48.7773 105.929 49.4233 105.363 49.9559C104.796 50.4659 104.071 50.7209 103.187 50.7209C102.869 50.7209 102.614 50.6983 102.422 50.6529C102.32 50.8003 102.269 50.9873 102.269 51.2139C102.269 51.4746 102.342 51.6786 102.49 51.8259C102.92 51.8033 103.158 51.7919 103.204 51.7919C104.371 51.7919 105.3 52.0073 105.992 52.4379C106.683 52.8686 107.029 53.4693 107.029 54.2399C107.029 54.9993 106.683 55.5886 105.992 56.0079C105.3 56.4386 104.371 56.6539 103.204 56.6539C102.025 56.6539 101.09 56.4443 100.399 56.0249C99.7187 55.6056 99.3787 55.0106 99.3787 54.2399ZM100.28 54.2399C100.28 54.7386 100.54 55.1296 101.062 55.4129C101.594 55.7076 102.308 55.8549 103.204 55.8549C104.088 55.8549 104.796 55.7076 105.329 55.4129C105.861 55.1183 106.128 54.7273 106.128 54.2399C106.128 53.7413 105.861 53.3446 105.329 53.0499C104.807 52.7439 104.099 52.5909 103.204 52.5909C102.32 52.5909 101.611 52.7383 101.079 53.0329C100.546 53.3276 100.28 53.7299 100.28 54.2399ZM101.657 46.6579C101.26 47.0206 101.062 47.4739 101.062 48.0179C101.062 48.5619 101.26 49.0153 101.657 49.3779C102.053 49.7406 102.563 49.9219 103.187 49.9219C103.81 49.9219 104.32 49.7406 104.717 49.3779C105.113 49.0153 105.312 48.5619 105.312 48.0179C105.312 47.4739 105.108 47.0206 104.7 46.6579C104.303 46.2953 103.799 46.1139 103.187 46.1139C102.586 46.1139 102.076 46.2953 101.657 46.6579Z" fill="#3C3C3C"/>
<path d="M109.702 53.1179H108.818V45.4679H109.702V46.5389C110.019 46.1876 110.427 45.8986 110.926 45.6719C111.436 45.4453 111.946 45.3319 112.456 45.3319C113.521 45.3319 114.32 45.6096 114.853 46.1649C115.385 46.7203 115.652 47.5816 115.652 48.7489V53.1179H114.768V48.9189C114.768 47.0829 113.929 46.1649 112.252 46.1649C111.764 46.1649 111.288 46.2783 110.824 46.5049C110.359 46.7203 109.985 46.9979 109.702 47.3379V53.1179Z" fill="#3C3C3C"/>
<path d="M29.6318 31.1807V21.3506H32.2158C32.8812 21.3506 33.4076 21.3893 33.7949 21.4668C34.1868 21.5488 34.5378 21.6878 34.8477 21.8838C35.1165 22.0524 35.349 22.262 35.5449 22.5127C35.7409 22.7588 35.889 23.0322 35.9893 23.333C36.0941 23.6338 36.1465 23.9528 36.1465 24.29C36.1465 24.764 36.0508 25.1969 35.8594 25.5889C35.668 25.9808 35.39 26.3089 35.0254 26.5732C34.8158 26.7282 34.5902 26.8535 34.3486 26.9492C34.1071 27.0404 33.8337 27.1064 33.5283 27.1475C33.2275 27.193 32.8721 27.2158 32.4619 27.2158H30.6162V31.1807H29.6318ZM30.6162 26.3203H32.3115C32.8128 26.3203 33.2116 26.293 33.5078 26.2383C33.8086 26.179 34.0729 26.0765 34.3008 25.9307C34.5742 25.7575 34.7839 25.5273 34.9297 25.2402C35.0755 24.9486 35.1484 24.6273 35.1484 24.2764C35.1484 23.8617 35.0413 23.4948 34.8271 23.1758C34.6175 22.8568 34.319 22.6175 33.9316 22.458C33.5762 22.3076 33.068 22.2324 32.4072 22.2324H32.2158L32.0449 22.2461H30.6162V26.3203Z" fill="#4B4B4B"/>
<path d="M44.7529 23.9004V31.1738H43.7959V29.8066C43.6182 30.112 43.4176 30.3695 43.1943 30.5791C42.5973 31.0895 41.8613 31.3447 40.9863 31.3447C40.403 31.3447 39.8105 31.2012 39.209 30.9141C38.6074 30.6224 38.1312 30.2533 37.7803 29.8066C37.5615 29.5195 37.3861 29.1732 37.2539 28.7676C37.1263 28.3574 37.0625 27.9473 37.0625 27.5371C37.0625 26.8535 37.2357 26.2201 37.582 25.6367C37.9329 25.0534 38.4092 24.5931 39.0107 24.2559C39.6077 23.9141 40.2572 23.7432 40.959 23.7432C41.3965 23.7432 41.8089 23.8115 42.1963 23.9482C42.5882 24.085 42.9255 24.2832 43.208 24.543C43.4268 24.7344 43.6227 24.9827 43.7959 25.2881V23.8936L44.7529 23.9004ZM41.0137 24.6797C40.4668 24.6797 39.9655 24.8096 39.5098 25.0693C39.054 25.3245 38.6963 25.6732 38.4365 26.1152C38.1768 26.5573 38.0469 27.0404 38.0469 27.5645C38.0469 28.0749 38.179 28.5488 38.4434 28.9863C38.7077 29.4193 39.0632 29.7656 39.5098 30.0254C39.9609 30.2806 40.4486 30.4082 40.9727 30.4082C41.474 30.4082 41.9411 30.2806 42.374 30.0254C42.8115 29.7656 43.1579 29.4193 43.4131 28.9863C43.6683 28.5488 43.7959 28.0749 43.7959 27.5645C43.7959 27.054 43.6706 26.5755 43.4199 26.1289C43.1693 25.6823 42.8298 25.3291 42.4014 25.0693C41.973 24.8096 41.5104 24.6797 41.0137 24.6797Z" fill="#4B4B4B"/>
<path d="M49.5039 27.2842C49.9049 27.3799 50.2126 27.5257 50.4268 27.7217C50.8096 28.0726 51.001 28.5306 51.001 29.0957C51.001 29.3555 50.9508 29.6198 50.8506 29.8887C50.7503 30.153 50.6136 30.3786 50.4404 30.5654C50.3083 30.7067 50.1442 30.8411 49.9482 30.9688C49.734 31.0964 49.5312 31.1852 49.3398 31.2354C49.1484 31.2809 48.8932 31.3037 48.5742 31.3037C48.0911 31.3037 47.665 31.2171 47.2959 31.0439C46.9313 30.8708 46.6465 30.6201 46.4414 30.292C46.2363 29.9639 46.127 29.5788 46.1133 29.1367H47.0908C47.1227 29.3874 47.1637 29.5742 47.2139 29.6973C47.264 29.8158 47.3506 29.9342 47.4736 30.0527C47.7562 30.3262 48.1139 30.4629 48.5469 30.4629C48.9753 30.4629 49.3239 30.3376 49.5928 30.0869C49.8662 29.8363 50.0029 29.515 50.0029 29.123C50.0029 28.8724 49.9346 28.6423 49.7979 28.4326C49.6611 28.223 49.4766 28.0589 49.2441 27.9404C49.0117 27.8219 48.752 27.7627 48.4648 27.7627C48.2871 27.7627 48.139 27.7718 48.0205 27.79V26.9219C48.2074 26.9401 48.3236 26.9492 48.3691 26.9492C48.7201 26.9492 49.0163 26.8398 49.2578 26.6211C49.5039 26.3978 49.627 26.1243 49.627 25.8008C49.627 25.4499 49.5176 25.1696 49.2988 24.96C49.0801 24.7458 48.7884 24.6387 48.4238 24.6387C48.0957 24.6387 47.8314 24.7344 47.6309 24.9258C47.4303 25.1126 47.3118 25.3815 47.2754 25.7324H46.2979C46.3389 25.1126 46.5531 24.6318 46.9404 24.29C47.3278 23.9437 47.8496 23.7705 48.5059 23.7705C48.8978 23.7705 49.2533 23.8548 49.5723 24.0234C49.8958 24.1921 50.1488 24.4268 50.3311 24.7275C50.5133 25.0238 50.6045 25.3542 50.6045 25.7188C50.6045 26.0469 50.5407 26.3317 50.4131 26.5732C50.3356 26.7145 50.2308 26.8376 50.0986 26.9424C49.9665 27.0426 49.7682 27.1566 49.5039 27.2842Z" fill="#4B4B4B"/>
<path d="M52.4092 23.8936H53.332V25.1582C53.5417 24.862 53.724 24.6569 53.8789 24.543C54.5579 24.0098 55.3464 23.7432 56.2441 23.7432C56.8001 23.7432 57.3356 23.8639 57.8506 24.1055C58.3656 24.3561 58.819 24.707 59.2109 25.1582C59.7897 25.8053 60.0791 26.6074 60.0791 27.5645C60.0791 28.2572 59.9036 28.8929 59.5527 29.4717C59.2064 30.0459 58.7324 30.5016 58.1309 30.8389C57.5339 31.1761 56.8822 31.3447 56.1758 31.3447C55.2598 31.3447 54.5033 31.069 53.9062 30.5176C53.7331 30.3672 53.5599 30.1348 53.3867 29.8203V33.7305H52.4092V23.8936ZM56.1758 30.4082C56.6042 30.39 56.9961 30.3102 57.3516 30.1689C57.707 30.0231 58.0169 29.8226 58.2812 29.5674C58.5456 29.3122 58.7484 29.016 58.8896 28.6787C59.0309 28.3369 59.1016 27.9655 59.1016 27.5645C59.1016 27.0495 58.9717 26.5687 58.7119 26.1221C58.4567 25.6755 58.1081 25.3245 57.666 25.0693C57.2194 24.8096 56.7363 24.6797 56.2168 24.6797C55.6745 24.6797 55.1823 24.805 54.7402 25.0557C54.2982 25.3063 53.9495 25.6504 53.6943 26.0879C53.4437 26.5254 53.3184 27.013 53.3184 27.5508C53.3184 28.0749 53.4437 28.5557 53.6943 28.9932C53.945 29.4261 54.2845 29.7702 54.7129 30.0254C55.1413 30.2806 55.6107 30.4082 56.1211 30.4082H56.1758Z" fill="#4B4B4B"/>
<path d="M68.8975 23.9004V31.1738H67.9404V29.8066C67.7627 30.112 67.5622 30.3695 67.3389 30.5791C66.7419 31.0895 66.0059 31.3447 65.1309 31.3447C64.5475 31.3447 63.9551 31.2012 63.3535 30.9141C62.752 30.6224 62.2757 30.2533 61.9248 29.8066C61.7061 29.5195 61.5306 29.1732 61.3984 28.7676C61.2708 28.3574 61.207 27.9473 61.207 27.5371C61.207 26.8535 61.3802 26.2201 61.7266 25.6367C62.0775 25.0534 62.5537 24.5931 63.1553 24.2559C63.7523 23.9141 64.4017 23.7432 65.1035 23.7432C65.541 23.7432 65.9534 23.8115 66.3408 23.9482C66.7327 24.085 67.07 24.2832 67.3525 24.543C67.5713 24.7344 67.7673 24.9827 67.9404 25.2881V23.8936L68.8975 23.9004ZM65.1582 24.6797C64.6113 24.6797 64.11 24.8096 63.6543 25.0693C63.1986 25.3245 62.8408 25.6732 62.5811 26.1152C62.3213 26.5573 62.1914 27.0404 62.1914 27.5645C62.1914 28.0749 62.3236 28.5488 62.5879 28.9863C62.8522 29.4193 63.2077 29.7656 63.6543 30.0254C64.1055 30.2806 64.5931 30.4082 65.1172 30.4082C65.6185 30.4082 66.0856 30.2806 66.5186 30.0254C66.9561 29.7656 67.3024 29.4193 67.5576 28.9863C67.8128 28.5488 67.9404 28.0749 67.9404 27.5645C67.9404 27.054 67.8151 26.5755 67.5645 26.1289C67.3138 25.6823 66.9743 25.3291 66.5459 25.0693C66.1175 24.8096 65.6549 24.6797 65.1582 24.6797Z" fill="#4B4B4B"/>
<path d="M74.0654 31.3516C73.7236 31.3379 73.4479 31.3105 73.2383 31.2695C72.9238 31.2103 72.5866 31.0758 72.2266 30.8662C71.8665 30.652 71.5658 30.4059 71.3242 30.1279C71.11 29.8773 70.9414 29.6107 70.8184 29.3281C70.6953 29.041 70.6042 28.7038 70.5449 28.3164C70.4902 27.9245 70.4629 27.4414 70.4629 26.8672C70.4629 26.1426 70.4925 25.5592 70.5518 25.1172C70.6064 24.6706 70.7044 24.2559 70.8457 23.873C71.1829 22.9297 71.8643 22.3122 72.8896 22.0205C73.3545 21.8838 74.2363 21.7015 75.5352 21.4736C75.8861 21.4144 76.1618 21.3324 76.3623 21.2275V22.2461C76.3167 22.2734 76.2757 22.2917 76.2393 22.3008C75.8929 22.4329 75.3027 22.5651 74.4688 22.6973C73.7806 22.8066 73.2337 22.9502 72.8281 23.1279C72.4225 23.3011 72.1035 23.5312 71.8711 23.8184C71.7161 24.0007 71.5931 24.2148 71.502 24.4609C71.3926 24.8073 71.3197 25.0921 71.2832 25.3154C71.2513 25.5387 71.2034 26.0286 71.1396 26.7852C71.2673 26.3568 71.3903 26.04 71.5088 25.835C71.6273 25.6253 71.7982 25.4134 72.0215 25.1992C72.6276 24.6387 73.3568 24.3584 74.209 24.3584C74.8424 24.3584 75.4212 24.5088 75.9453 24.8096C76.4694 25.1058 76.8818 25.516 77.1826 26.04C77.4834 26.5596 77.6338 27.1338 77.6338 27.7627C77.6338 28.7243 77.3307 29.5355 76.7246 30.1963C76.3737 30.5791 75.959 30.8685 75.4805 31.0645C75.2799 31.1602 75.0863 31.2262 74.8994 31.2627C74.7126 31.2992 74.4346 31.3288 74.0654 31.3516ZM71.4883 27.8174C71.4883 28.2959 71.5999 28.7334 71.8232 29.1299C72.0511 29.5218 72.361 29.8317 72.7529 30.0596C73.1449 30.2829 73.5778 30.3945 74.0518 30.3945C74.5075 30.3945 74.9268 30.2806 75.3096 30.0527C75.6969 29.8249 76.0023 29.5127 76.2256 29.1162C76.4534 28.7243 76.5674 28.3005 76.5674 27.8447C76.5674 27.3799 76.4557 26.9561 76.2324 26.5732C76.0091 26.1859 75.6992 25.8805 75.3027 25.6572C74.9108 25.4385 74.4801 25.3291 74.0107 25.3291C73.5231 25.3291 73.0879 25.4362 72.7051 25.6504C72.3223 25.86 72.0238 26.1562 71.8096 26.5391C71.5954 26.9173 71.4883 27.3434 71.4883 27.8174Z" fill="#4B4B4B"/>
<path d="M82.583 23.7432C83.2757 23.7432 83.916 23.9141 84.5039 24.2559C85.0964 24.5977 85.5658 25.0602 85.9121 25.6436C86.2585 26.2223 86.4316 26.849 86.4316 27.5234C86.4316 28.207 86.2607 28.8428 85.9189 29.4307C85.5771 30.0186 85.1169 30.4857 84.5381 30.832C83.9593 31.1738 83.3304 31.3447 82.6514 31.3447C81.9769 31.3447 81.3457 31.1738 80.7578 30.832C80.1699 30.4993 79.7028 30.0436 79.3564 29.4648C79.0146 28.8815 78.8438 28.2526 78.8438 27.5781C78.8438 26.8991 79.0146 26.2656 79.3564 25.6777C79.6937 25.0853 80.1494 24.6159 80.7236 24.2695C81.2979 23.9186 81.9176 23.7432 82.583 23.7432ZM82.6514 24.6797C82.1182 24.6979 81.6374 24.8369 81.209 25.0967C80.776 25.3519 80.4365 25.6982 80.1904 26.1357C79.9489 26.5732 79.8281 27.054 79.8281 27.5781C79.8281 28.0931 79.9534 28.5671 80.2041 29C80.4593 29.4375 80.8034 29.7816 81.2363 30.0322C81.6738 30.2829 82.1501 30.4082 82.665 30.4082C83.18 30.4082 83.6517 30.2806 84.0801 30.0254C84.5039 29.7656 84.8366 29.4124 85.0781 28.9658C85.3242 28.5192 85.4473 28.0247 85.4473 27.4824C85.4473 26.9902 85.3219 26.5277 85.0713 26.0947C84.8252 25.6618 84.4902 25.3177 84.0664 25.0625C83.6426 24.8073 83.1891 24.6797 82.7061 24.6797H82.6514Z" fill="#4B4B4B"/>
<path d="M88.8926 31.1807V24.7959H87.1768V23.9141H91.5859V24.7959H89.877V31.1807H88.8926Z" fill="#4B4B4B"/>
<path d="M100.015 23.9004V31.1738H99.0576V29.8066C98.8799 30.112 98.6794 30.3695 98.4561 30.5791C97.859 31.0895 97.123 31.3447 96.248 31.3447C95.6647 31.3447 95.0723 31.2012 94.4707 30.9141C93.8691 30.6224 93.3929 30.2533 93.042 29.8066C92.8232 29.5195 92.6478 29.1732 92.5156 28.7676C92.388 28.3574 92.3242 27.9473 92.3242 27.5371C92.3242 26.8535 92.4974 26.2201 92.8438 25.6367C93.1947 25.0534 93.6709 24.5931 94.2725 24.2559C94.8695 23.9141 95.5189 23.7432 96.2207 23.7432C96.6582 23.7432 97.0706 23.8115 97.458 23.9482C97.8499 24.085 98.1872 24.2832 98.4697 24.543C98.6885 24.7344 98.8844 24.9827 99.0576 25.2881V23.8936L100.015 23.9004ZM96.2754 24.6797C95.7285 24.6797 95.2272 24.8096 94.7715 25.0693C94.3158 25.3245 93.958 25.6732 93.6982 26.1152C93.4385 26.5573 93.3086 27.0404 93.3086 27.5645C93.3086 28.0749 93.4408 28.5488 93.7051 28.9863C93.9694 29.4193 94.3249 29.7656 94.7715 30.0254C95.2227 30.2806 95.7103 30.4082 96.2344 30.4082C96.7357 30.4082 97.2028 30.2806 97.6357 30.0254C98.0732 29.7656 98.4196 29.4193 98.6748 28.9863C98.93 28.5488 99.0576 28.0749 99.0576 27.5645C99.0576 27.054 98.9323 26.5755 98.6816 26.1289C98.431 25.6823 98.0915 25.3291 97.6631 25.0693C97.2347 24.8096 96.7721 24.6797 96.2754 24.6797Z" fill="#4B4B4B"/>
<path d="M102.674 27.0039H106.871V23.9004H107.869V31.1807H106.871V27.8857H102.674V31.1807H101.696V23.9004H102.674V27.0039Z" fill="#4B4B4B"/>
<path d="M113.003 23.7432C113.696 23.7432 114.336 23.9141 114.924 24.2559C115.516 24.5977 115.986 25.0602 116.332 25.6436C116.678 26.2223 116.852 26.849 116.852 27.5234C116.852 28.207 116.681 28.8428 116.339 29.4307C115.997 30.0186 115.537 30.4857 114.958 30.832C114.379 31.1738 113.75 31.3447 113.071 31.3447C112.397 31.3447 111.766 31.1738 111.178 30.832C110.59 30.4993 110.123 30.0436 109.776 29.4648C109.435 28.8815 109.264 28.2526 109.264 27.5781C109.264 26.8991 109.435 26.2656 109.776 25.6777C110.114 25.0853 110.569 24.6159 111.144 24.2695C111.718 23.9186 112.338 23.7432 113.003 23.7432ZM113.071 24.6797C112.538 24.6979 112.057 24.8369 111.629 25.0967C111.196 25.3519 110.856 25.6982 110.61 26.1357C110.369 26.5732 110.248 27.054 110.248 27.5781C110.248 28.0931 110.373 28.5671 110.624 29C110.879 29.4375 111.223 29.7816 111.656 30.0322C112.094 30.2829 112.57 30.4082 113.085 30.4082C113.6 30.4082 114.072 30.2806 114.5 30.0254C114.924 29.7656 115.257 29.4124 115.498 28.9658C115.744 28.5192 115.867 28.0247 115.867 27.4824C115.867 26.9902 115.742 26.5277 115.491 26.0947C115.245 25.6618 114.91 25.3177 114.486 25.0625C114.062 24.8073 113.609 24.6797 113.126 24.6797H113.071Z" fill="#4B4B4B"/>
<defs>
<filter id="filter0_d_729_2962" x="111.872" y="0.397949" width="79.5107" height="79.3984" filterUnits="userSpaceOnUse" color-interpolation-filters="sRGB">
<feFlood flood-opacity="0" result="BackgroundImageFix"/>
<feColorMatrix in="SourceAlpha" type="matrix" values="0 0 0 0 0 0 0 0 0 0 0 0 0 0 0 0 0 0 127 0" result="hardAlpha"/>
<feMorphology radius="2" operator="dilate" in="SourceAlpha" result="effect1_dropShadow_729_2962"/>
<feOffset dy="4"/>
<feGaussianBlur stdDeviation="10"/>
<feColorMatrix type="matrix" values="0 0 0 0 0.279167 0 0 0 0 0.279167 0 0 0 0 0.279167 0 0 0 0.25 0"/>
<feBlend mode="normal" in2="BackgroundImageFix" result="effect1_dropShadow_729_2962"/>
<feBlend mode="normal" in="SourceGraphic" in2="effect1_dropShadow_729_2962" result="shape"/>
</filter>
</defs>
</svg>
