<svg width="135" height="69" viewBox="0 0 135 69" fill="none" xmlns="http://www.w3.org/2000/svg">
<g id="&#208;&#160;&#208;&#181;&#208;&#186;&#208;&#178;&#208;&#181;&#209;&#129;&#209;&#130; &#209;&#129; &#209;&#129;&#209;&#139;&#208;&#187;&#208;&#186;&#208;&#190;&#208;&#185;">
<g id="Group 169">
<g id="Rectangle 111" filter="url(#filter0_d_828_3238)">
<rect width="19.7451" height="19.7451" rx="3" transform="matrix(0.70823 -0.705982 0.70823 0.705982 21 30.9397)" fill="white"/>
</g>
<ellipse id="Ellipse 11" cx="35.0166" cy="30.941" rx="8.00878" ry="7.98368" fill="black"/>
<rect id="Rectangle 112" x="30.0098" y="25.95" width="10.0821" height="10.0498" rx="3" fill="white"/>
<ellipse id="Ellipse 12" cx="35.0017" cy="30.9262" rx="3.48997" ry="3.47864" fill="black"/>
<rect id="Rectangle 113" width="2.25921" height="2.25921" rx="1" transform="matrix(0.708197 -0.706015 0.708197 0.706015 33.5137 30.9397)" fill="white"/>
</g>
<g id="Request Design">
<path d="M55.6088 37.855V40.999H54.1328V32.599C54.5488 32.599 55.0008 32.595 55.4888 32.587C55.9768 32.579 56.3768 32.575 56.6888 32.575C58.7208 32.575 59.7368 33.439 59.7368 35.167C59.7368 35.807 59.5728 36.335 59.2448 36.751C58.9168 37.151 58.5408 37.423 58.1168 37.567L60.7448 40.999H58.9568L56.6408 37.855H55.6088ZM56.6168 33.955C56.5768 33.955 56.5128 33.959 56.4248 33.967C56.3368 33.967 56.2128 33.971 56.0528 33.979C55.8928 33.979 55.7448 33.979 55.6088 33.979V36.475H56.5688C57.0408 36.475 57.4248 36.359 57.7208 36.127C58.0248 35.895 58.1768 35.579 58.1768 35.179C58.1768 34.363 57.6568 33.955 56.6168 33.955Z" fill="#3C3C3C"/>
<path d="M65.3791 39.487L65.7751 40.459C65.2391 40.907 64.5511 41.131 63.7111 41.131C62.8471 41.131 62.1431 40.871 61.5991 40.351C61.0711 39.839 60.8071 39.155 60.8071 38.299C60.8071 37.499 61.0671 36.827 61.5871 36.283C62.1071 35.739 62.7991 35.467 63.6631 35.467C64.3751 35.467 64.9791 35.703 65.4751 36.175C65.9711 36.647 66.2191 37.247 66.2191 37.975C66.2191 38.295 66.1911 38.543 66.1351 38.719H62.2351C62.2911 39.111 62.4631 39.419 62.7511 39.643C63.0471 39.867 63.4151 39.979 63.8551 39.979C64.4551 39.979 64.9631 39.815 65.3791 39.487ZM63.6031 36.619C62.8191 36.619 62.3471 37.011 62.1871 37.795H64.8391C64.8471 37.451 64.7351 37.171 64.5031 36.955C64.2791 36.731 63.9791 36.619 63.6031 36.619Z" fill="#3C3C3C"/>
<path d="M72.4794 43.399H71.0994V40.723C70.6834 40.995 70.2394 41.131 69.7674 41.131C68.9114 41.131 68.2274 40.875 67.7154 40.363C67.2114 39.843 66.9594 39.155 66.9594 38.299C66.9594 37.491 67.2514 36.819 67.8354 36.283C68.4274 35.739 69.1674 35.467 70.0554 35.467C70.9834 35.467 71.7914 35.683 72.4794 36.115V43.399ZM69.9474 39.847C70.4114 39.847 70.7954 39.683 71.0994 39.355V37.027C70.7394 36.851 70.3874 36.763 70.0434 36.763C69.5474 36.763 69.1554 36.915 68.8674 37.219C68.5794 37.515 68.4354 37.895 68.4354 38.359C68.4354 38.791 68.5714 39.147 68.8434 39.427C69.1234 39.707 69.4914 39.847 69.9474 39.847Z" fill="#3C3C3C"/>
<path d="M77.5025 35.599H78.8825V40.999H77.5025V40.339C77.0705 40.867 76.4945 41.131 75.7745 41.131C75.1985 41.131 74.7385 40.939 74.3945 40.555C74.0505 40.171 73.8785 39.619 73.8785 38.899V35.599H75.2585V38.611C75.2585 39.435 75.6025 39.847 76.2905 39.847C76.7625 39.847 77.1665 39.627 77.5025 39.187V35.599Z" fill="#3C3C3C"/>
<path d="M84.6564 39.487L85.0524 40.459C84.5164 40.907 83.8284 41.131 82.9884 41.131C82.1244 41.131 81.4204 40.871 80.8764 40.351C80.3484 39.839 80.0844 39.155 80.0844 38.299C80.0844 37.499 80.3444 36.827 80.8644 36.283C81.3844 35.739 82.0764 35.467 82.9404 35.467C83.6524 35.467 84.2564 35.703 84.7524 36.175C85.2484 36.647 85.4964 37.247 85.4964 37.975C85.4964 38.295 85.4684 38.543 85.4124 38.719H81.5124C81.5684 39.111 81.7404 39.419 82.0284 39.643C82.3244 39.867 82.6924 39.979 83.1324 39.979C83.7324 39.979 84.2404 39.815 84.6564 39.487ZM82.8804 36.619C82.0964 36.619 81.6244 37.011 81.4644 37.795H84.1164C84.1244 37.451 84.0124 37.171 83.7804 36.955C83.5564 36.731 83.2564 36.619 82.8804 36.619Z" fill="#3C3C3C"/>
<path d="M86.4279 37.111C86.4279 36.607 86.6119 36.207 86.9799 35.911C87.3479 35.615 87.8239 35.467 88.4079 35.467C89.2879 35.467 89.9719 35.695 90.4599 36.151L89.9439 37.135C89.5039 36.791 89.0159 36.619 88.4799 36.619C88.2879 36.619 88.1279 36.667 87.9999 36.763C87.8719 36.851 87.8079 36.959 87.8079 37.087C87.8079 37.351 88.1479 37.571 88.8279 37.747C89.0759 37.803 89.2959 37.867 89.4879 37.939C89.6799 38.003 89.8759 38.099 90.0759 38.227C90.2839 38.347 90.4439 38.507 90.5559 38.707C90.6679 38.907 90.7239 39.139 90.7239 39.403C90.7239 39.931 90.5239 40.351 90.1239 40.663C89.7319 40.975 89.2039 41.131 88.5399 41.131C88.0679 41.131 87.6079 41.031 87.1599 40.831C86.7039 40.623 86.4119 40.415 86.2839 40.207L86.9559 39.307C87.1079 39.491 87.3599 39.647 87.7119 39.775C88.0719 39.911 88.3799 39.979 88.6359 39.979C88.9479 40.011 89.1679 39.911 89.2959 39.679C89.4239 39.439 89.3399 39.243 89.0439 39.091C88.9239 39.027 88.7359 38.959 88.4799 38.887C88.2319 38.815 87.9999 38.743 87.7839 38.671C87.5759 38.591 87.3599 38.491 87.1359 38.371C86.9199 38.251 86.7479 38.087 86.6199 37.879C86.4919 37.663 86.4279 37.407 86.4279 37.111Z" fill="#3C3C3C"/>
<path d="M91.8199 38.947V34.099H93.1999V35.599H94.9399V36.895H93.1999V38.863C93.1999 39.511 93.4159 39.835 93.8479 39.835C94.1199 39.835 94.3959 39.731 94.6759 39.523L95.0959 40.591C94.6559 40.943 94.1239 41.119 93.4999 41.119C92.9159 41.119 92.4879 40.943 92.2159 40.591C91.9519 40.231 91.8199 39.683 91.8199 38.947Z" fill="#3C3C3C"/>
<path d="M100.755 40.999H100.647V32.599H100.779C101.123 32.599 101.443 32.595 101.739 32.587C102.331 32.571 102.683 32.563 102.795 32.563C103.603 32.563 104.315 32.675 104.931 32.899C105.555 33.115 106.051 33.419 106.419 33.811C106.787 34.195 107.059 34.631 107.235 35.119C107.419 35.599 107.511 36.119 107.511 36.679C107.511 37.943 107.091 38.983 106.251 39.799C105.419 40.615 104.235 41.023 102.699 41.023C102.355 41.023 102.039 41.019 101.751 41.011C101.463 41.003 101.131 40.999 100.755 40.999ZM102.771 33.187C102.595 33.187 102.335 33.195 101.991 33.211C101.655 33.219 101.427 33.223 101.307 33.223V40.375C101.571 40.375 101.819 40.379 102.051 40.387C102.283 40.387 102.451 40.391 102.555 40.399C102.659 40.399 102.715 40.399 102.723 40.399C104.027 40.399 105.035 40.055 105.747 39.367C106.459 38.671 106.815 37.775 106.815 36.679C106.815 35.647 106.475 34.807 105.795 34.159C105.107 33.511 104.099 33.187 102.771 33.187Z" fill="#3C3C3C"/>
<path d="M113.324 39.859L113.528 40.339C113.04 40.851 112.376 41.107 111.536 41.107C110.672 41.107 109.98 40.851 109.46 40.339C108.932 39.827 108.668 39.147 108.668 38.299C108.668 37.483 108.908 36.811 109.388 36.283C109.876 35.755 110.548 35.491 111.404 35.491C112.1 35.491 112.684 35.715 113.156 36.163C113.62 36.603 113.852 37.191 113.852 37.927C113.852 38.119 113.84 38.287 113.816 38.431H109.364C109.388 39.079 109.6 39.591 110 39.967C110.4 40.335 110.924 40.519 111.572 40.519C112.324 40.519 112.908 40.299 113.324 39.859ZM111.344 36.079C110.768 36.079 110.3 36.247 109.94 36.583C109.588 36.919 109.384 37.363 109.328 37.915H113.216C113.208 37.347 113.036 36.899 112.7 36.571C112.364 36.243 111.912 36.079 111.344 36.079Z" fill="#3C3C3C"/>
<path d="M118.141 39.583C118.141 39.335 118.037 39.135 117.829 38.983C117.629 38.831 117.381 38.711 117.085 38.623C116.797 38.535 116.505 38.439 116.209 38.335C115.913 38.223 115.661 38.051 115.453 37.819C115.253 37.579 115.153 37.279 115.153 36.919C115.153 36.487 115.313 36.143 115.633 35.887C115.953 35.623 116.373 35.491 116.893 35.491C117.637 35.491 118.201 35.691 118.585 36.091L118.321 36.559C117.953 36.215 117.481 36.043 116.905 36.043C116.585 36.043 116.321 36.127 116.113 36.295C115.913 36.455 115.813 36.659 115.813 36.907C115.813 37.163 115.913 37.375 116.113 37.543C116.321 37.703 116.569 37.831 116.857 37.927C117.153 38.015 117.449 38.111 117.745 38.215C118.041 38.319 118.289 38.483 118.489 38.707C118.697 38.931 118.801 39.215 118.801 39.559C118.801 40.047 118.617 40.427 118.249 40.699C117.889 40.971 117.425 41.107 116.857 41.107C116.505 41.107 116.137 41.027 115.753 40.867C115.393 40.715 115.145 40.535 115.009 40.327L115.357 39.919C115.509 40.103 115.737 40.255 116.041 40.375C116.353 40.495 116.649 40.555 116.929 40.555C117.281 40.555 117.569 40.471 117.793 40.303C118.025 40.127 118.141 39.887 118.141 39.583Z" fill="#3C3C3C"/>
<path d="M121.284 40.999H120.66V35.599H121.284V40.999ZM120.552 33.499C120.552 33.379 120.596 33.283 120.684 33.211C120.772 33.139 120.876 33.103 120.996 33.103C121.1 33.103 121.192 33.143 121.272 33.223C121.36 33.295 121.404 33.387 121.404 33.499C121.404 33.635 121.364 33.743 121.284 33.823C121.212 33.903 121.116 33.943 120.996 33.943C120.868 33.943 120.76 33.903 120.672 33.823C120.592 33.743 120.552 33.635 120.552 33.499Z" fill="#3C3C3C"/>
<path d="M122.709 41.791C122.709 41.383 122.853 41.039 123.141 40.759C123.429 40.479 123.837 40.283 124.365 40.171C124.245 40.027 124.185 39.855 124.185 39.655C124.185 39.455 124.253 39.275 124.389 39.115C124.037 38.963 123.761 38.735 123.561 38.431C123.361 38.127 123.261 37.783 123.261 37.399C123.261 36.847 123.457 36.391 123.849 36.031C124.241 35.671 124.757 35.491 125.397 35.491C125.909 35.491 126.361 35.627 126.753 35.899H126.765L128.301 35.491V36.079L127.209 36.355C127.425 36.683 127.533 37.031 127.533 37.399C127.533 37.935 127.333 38.391 126.933 38.767C126.533 39.127 126.021 39.307 125.397 39.307C125.173 39.307 124.993 39.291 124.857 39.259C124.785 39.363 124.749 39.495 124.749 39.655C124.749 39.839 124.801 39.983 124.905 40.087C125.209 40.071 125.377 40.063 125.409 40.063C126.233 40.063 126.889 40.215 127.377 40.519C127.865 40.823 128.109 41.247 128.109 41.791C128.109 42.327 127.865 42.743 127.377 43.039C126.889 43.343 126.233 43.495 125.409 43.495C124.577 43.495 123.917 43.347 123.429 43.051C122.949 42.755 122.709 42.335 122.709 41.791ZM123.345 41.791C123.345 42.143 123.529 42.419 123.897 42.619C124.273 42.827 124.777 42.931 125.409 42.931C126.033 42.931 126.533 42.827 126.909 42.619C127.285 42.411 127.473 42.135 127.473 41.791C127.473 41.439 127.285 41.159 126.909 40.951C126.541 40.735 126.041 40.627 125.409 40.627C124.785 40.627 124.285 40.731 123.909 40.939C123.533 41.147 123.345 41.431 123.345 41.791ZM124.317 36.439C124.037 36.695 123.897 37.015 123.897 37.399C123.897 37.783 124.037 38.103 124.317 38.359C124.597 38.615 124.957 38.743 125.397 38.743C125.837 38.743 126.197 38.615 126.477 38.359C126.757 38.103 126.897 37.783 126.897 37.399C126.897 37.015 126.753 36.695 126.465 36.439C126.185 36.183 125.829 36.055 125.397 36.055C124.973 36.055 124.613 36.183 124.317 36.439Z" fill="#3C3C3C"/>
<path d="M129.996 40.999H129.372V35.599H129.996V36.355C130.22 36.107 130.508 35.903 130.86 35.743C131.22 35.583 131.58 35.503 131.94 35.503C132.692 35.503 133.256 35.699 133.632 36.091C134.008 36.483 134.196 37.091 134.196 37.915V40.999H133.572V38.035C133.572 36.739 132.98 36.091 131.796 36.091C131.452 36.091 131.116 36.171 130.788 36.331C130.46 36.483 130.196 36.679 129.996 36.919V40.999Z" fill="#3C3C3C"/>
</g>
<g id="&#208;&#160;&#208;&#176;&#208;&#183;&#209;&#128;&#208;&#176;&#208;&#177;&#208;&#190;&#209;&#130;&#208;&#176;&#208;&#189;&#208;&#190;">
<path d="M54.9608 25.628V29H54.3008V20.6C54.6288 20.6 54.9688 20.596 55.3208 20.588C55.6728 20.58 56.0168 20.576 56.3528 20.576C56.9128 20.576 57.3928 20.648 57.7928 20.792C58.2008 20.936 58.5128 21.132 58.7288 21.38C58.9448 21.628 59.1008 21.896 59.1968 22.184C59.2928 22.464 59.3408 22.772 59.3408 23.108C59.3408 23.836 59.0888 24.444 58.5848 24.932C58.0728 25.428 57.3288 25.676 56.3528 25.676C55.8008 25.676 55.3368 25.66 54.9608 25.628ZM56.4128 21.2C56.1488 21.2 55.6648 21.208 54.9608 21.224V24.992C55.5368 25.032 55.9928 25.052 56.3288 25.052C57.0648 25.052 57.6328 24.876 58.0328 24.524C58.4408 24.172 58.6448 23.696 58.6448 23.096C58.6448 22.504 58.4568 22.04 58.0808 21.704C57.7128 21.368 57.1568 21.2 56.4128 21.2Z" fill="#3C3C3C"/>
<path d="M60.6238 24.5L60.4558 23.984C60.9918 23.656 61.5638 23.492 62.1718 23.492C62.8758 23.492 63.3838 23.668 63.6958 24.02C64.0158 24.372 64.1758 24.916 64.1758 25.652V29H63.5518V28.172C63.1118 28.772 62.4958 29.072 61.7038 29.072C61.1998 29.072 60.7958 28.928 60.4918 28.64C60.1878 28.344 60.0358 27.952 60.0358 27.464C60.0358 26.936 60.2278 26.524 60.6118 26.228C60.9878 25.932 61.4798 25.784 62.0878 25.784C62.6958 25.784 63.1838 25.92 63.5518 26.192C63.5518 25.632 63.5118 25.204 63.4318 24.908C63.3678 24.62 63.2358 24.416 63.0358 24.296C62.8438 24.176 62.5438 24.104 62.1358 24.08C61.6478 24.08 61.1438 24.22 60.6238 24.5ZM61.8958 28.484C62.5678 28.484 63.1198 28.2 63.5518 27.632V26.732C63.1598 26.444 62.6918 26.3 62.1478 26.3C61.7398 26.3 61.3958 26.4 61.1158 26.6C60.8358 26.8 60.6958 27.076 60.6958 27.428C60.6958 27.748 60.8078 28.004 61.0318 28.196C61.2558 28.388 61.5438 28.484 61.8958 28.484Z" fill="#3C3C3C"/>
<path d="M67.6317 29.108C67.2637 29.108 66.8557 29.04 66.4077 28.904C65.9837 28.776 65.6837 28.604 65.5077 28.388L65.8317 27.908C66.0397 28.1 66.2997 28.252 66.6117 28.364C66.9317 28.468 67.2397 28.52 67.5357 28.52C68.0397 28.52 68.4437 28.42 68.7477 28.22C69.0517 28.02 69.2037 27.752 69.2037 27.416C69.2037 27.136 69.0917 26.916 68.8677 26.756C68.6437 26.596 68.3397 26.516 67.9557 26.516H67.0437V26H67.8957C68.1997 26 68.4597 25.904 68.6757 25.712C68.8917 25.52 68.9997 25.288 68.9997 25.016C68.9997 24.712 68.8797 24.48 68.6397 24.32C68.3997 24.16 68.0637 24.08 67.6317 24.08C66.9997 24.08 66.4357 24.28 65.9397 24.68L65.6877 24.2C66.1437 23.728 66.8197 23.492 67.7157 23.492C68.3317 23.492 68.8077 23.62 69.1437 23.876C69.4877 24.124 69.6597 24.468 69.6597 24.908C69.6597 25.54 69.3357 25.972 68.6877 26.204V26.228C69.0557 26.26 69.3437 26.396 69.5517 26.636C69.7597 26.868 69.8637 27.156 69.8637 27.5C69.8637 27.996 69.6597 28.388 69.2517 28.676C68.8437 28.964 68.3037 29.108 67.6317 29.108Z" fill="#3C3C3C"/>
<path d="M72.0837 31.4H71.4597V23.6H72.0837V24.32C72.2997 24.08 72.5877 23.884 72.9478 23.732C73.3158 23.572 73.6877 23.492 74.0637 23.492C74.8317 23.492 75.4438 23.744 75.8997 24.248C76.3557 24.752 76.5837 25.408 76.5837 26.216C76.5837 27.056 76.3278 27.748 75.8158 28.292C75.2957 28.836 74.6278 29.108 73.8118 29.108C73.0837 29.108 72.5077 28.956 72.0837 28.652V31.4ZM73.8958 24.08C73.5438 24.08 73.1998 24.16 72.8638 24.32C72.5358 24.48 72.2757 24.68 72.0837 24.92V28.028C72.5798 28.356 73.1397 28.52 73.7638 28.52C74.4037 28.52 74.9237 28.308 75.3237 27.884C75.7237 27.46 75.9237 26.916 75.9237 26.252C75.9237 25.588 75.7438 25.06 75.3838 24.668C75.0238 24.276 74.5278 24.08 73.8958 24.08Z" fill="#3C3C3C"/>
<path d="M78.2723 24.5L78.1043 23.984C78.6403 23.656 79.2123 23.492 79.8203 23.492C80.5243 23.492 81.0323 23.668 81.3443 24.02C81.6643 24.372 81.8243 24.916 81.8243 25.652V29H81.2003V28.172C80.7603 28.772 80.1443 29.072 79.3523 29.072C78.8483 29.072 78.4443 28.928 78.1403 28.64C77.8363 28.344 77.6843 27.952 77.6843 27.464C77.6843 26.936 77.8763 26.524 78.2603 26.228C78.6363 25.932 79.1283 25.784 79.7363 25.784C80.3443 25.784 80.8323 25.92 81.2003 26.192C81.2003 25.632 81.1603 25.204 81.0803 24.908C81.0163 24.62 80.8843 24.416 80.6843 24.296C80.4923 24.176 80.1923 24.104 79.7843 24.08C79.2963 24.08 78.7923 24.22 78.2723 24.5ZM79.5443 28.484C80.2163 28.484 80.7683 28.2 81.2003 27.632V26.732C80.8083 26.444 80.3403 26.3 79.7963 26.3C79.3883 26.3 79.0443 26.4 78.7643 26.6C78.4843 26.8 78.3443 27.076 78.3443 27.428C78.3443 27.748 78.4563 28.004 78.6803 28.196C78.9043 28.388 79.1923 28.484 79.5443 28.484Z" fill="#3C3C3C"/>
<path d="M87.8841 20.48L88.2321 20.948C88.0481 21.212 87.8241 21.392 87.5601 21.488C87.2321 21.584 86.8841 21.66 86.5161 21.716C86.1001 21.772 85.7241 21.876 85.3881 22.028C84.4681 22.42 83.9521 23.444 83.8401 25.1H83.8641C84.0481 24.66 84.3561 24.308 84.7881 24.044C85.2201 23.772 85.6881 23.636 86.1921 23.636C86.9761 23.636 87.6001 23.884 88.0641 24.38C88.5281 24.868 88.7601 25.524 88.7601 26.348C88.7601 27.108 88.5001 27.76 87.9801 28.304C87.4681 28.84 86.8161 29.108 86.0241 29.108C85.1761 29.108 84.4921 28.812 83.9721 28.22C83.4681 27.628 83.2161 26.816 83.2161 25.784C83.2161 23.416 83.8761 21.964 85.1961 21.428C85.5321 21.292 85.9041 21.192 86.3121 21.128C86.7921 21.048 87.1361 20.972 87.3441 20.9C87.5521 20.82 87.7321 20.68 87.8841 20.48ZM83.8761 25.892C83.8761 26.7 84.0721 27.34 84.4641 27.812C84.8561 28.284 85.3681 28.52 86.0001 28.52C86.6081 28.52 87.1081 28.312 87.5001 27.896C87.9001 27.472 88.1001 26.964 88.1001 26.372C88.1001 25.724 87.9161 25.204 87.5481 24.812C87.1801 24.42 86.6801 24.224 86.0481 24.224C85.4801 24.224 84.9961 24.392 84.5961 24.728C84.2121 25.064 83.9721 25.452 83.8761 25.892Z" fill="#3C3C3C"/>
<path d="M92.7163 29.108C91.8843 29.108 91.2043 28.844 90.6763 28.316C90.1483 27.788 89.8843 27.116 89.8843 26.3C89.8843 25.484 90.1483 24.812 90.6763 24.284C91.2043 23.756 91.8843 23.492 92.7163 23.492C93.5483 23.492 94.2283 23.756 94.7563 24.284C95.2843 24.812 95.5483 25.484 95.5483 26.3C95.5483 27.116 95.2843 27.788 94.7563 28.316C94.2283 28.844 93.5483 29.108 92.7163 29.108ZM92.7163 28.52C93.3643 28.52 93.8843 28.316 94.2763 27.908C94.6843 27.492 94.8883 26.956 94.8883 26.3C94.8883 25.652 94.6843 25.12 94.2763 24.704C93.8683 24.288 93.3483 24.08 92.7163 24.08C92.0923 24.08 91.5723 24.288 91.1563 24.704C90.7483 25.12 90.5443 25.652 90.5443 26.3C90.5443 26.948 90.7483 27.48 91.1563 27.896C91.5643 28.312 92.0843 28.52 92.7163 28.52Z" fill="#3C3C3C"/>
<path d="M98.222 24.224H96.074V23.6H100.994V24.224H98.846V29H98.222V24.224Z" fill="#3C3C3C"/>
<path d="M102.261 24.5L102.093 23.984C102.629 23.656 103.201 23.492 103.809 23.492C104.513 23.492 105.021 23.668 105.333 24.02C105.653 24.372 105.813 24.916 105.813 25.652V29H105.189V28.172C104.749 28.772 104.133 29.072 103.341 29.072C102.837 29.072 102.433 28.928 102.129 28.64C101.825 28.344 101.673 27.952 101.673 27.464C101.673 26.936 101.865 26.524 102.249 26.228C102.625 25.932 103.117 25.784 103.725 25.784C104.333 25.784 104.821 25.92 105.189 26.192C105.189 25.632 105.149 25.204 105.069 24.908C105.005 24.62 104.873 24.416 104.673 24.296C104.481 24.176 104.181 24.104 103.773 24.08C103.285 24.08 102.781 24.22 102.261 24.5ZM103.533 28.484C104.205 28.484 104.757 28.2 105.189 27.632V26.732C104.797 26.444 104.329 26.3 103.785 26.3C103.377 26.3 103.033 26.4 102.753 26.6C102.473 26.8 102.333 27.076 102.333 27.428C102.333 27.748 102.445 28.004 102.669 28.196C102.893 28.388 103.181 28.484 103.533 28.484Z" fill="#3C3C3C"/>
<path d="M112.352 29H111.728V26.552H108.224V29H107.6V23.6H108.224V25.964H111.728V23.6H112.352V29Z" fill="#3C3C3C"/>
<path d="M116.693 29.108C115.861 29.108 115.181 28.844 114.653 28.316C114.125 27.788 113.861 27.116 113.861 26.3C113.861 25.484 114.125 24.812 114.653 24.284C115.181 23.756 115.861 23.492 116.693 23.492C117.525 23.492 118.205 23.756 118.733 24.284C119.261 24.812 119.525 25.484 119.525 26.3C119.525 27.116 119.261 27.788 118.733 28.316C118.205 28.844 117.525 29.108 116.693 29.108ZM116.693 28.52C117.341 28.52 117.861 28.316 118.253 27.908C118.661 27.492 118.865 26.956 118.865 26.3C118.865 25.652 118.661 25.12 118.253 24.704C117.845 24.288 117.325 24.08 116.693 24.08C116.069 24.08 115.549 24.288 115.133 24.704C114.725 25.12 114.521 25.652 114.521 26.3C114.521 26.948 114.725 27.48 115.133 27.896C115.541 28.312 116.061 28.52 116.693 28.52Z" fill="#3C3C3C"/>
</g>
</g>
<defs>
<filter id="filter0_d_828_3238" x="0.244141" y="0.240601" width="69.4785" height="69.3982" filterUnits="userSpaceOnUse" color-interpolation-filters="sRGB">
<feFlood flood-opacity="0" result="BackgroundImageFix"/>
<feColorMatrix in="SourceAlpha" type="matrix" values="0 0 0 0 0 0 0 0 0 0 0 0 0 0 0 0 0 0 127 0" result="hardAlpha"/>
<feMorphology radius="2" operator="dilate" in="SourceAlpha" result="effect1_dropShadow_828_3238"/>
<feOffset dy="4"/>
<feGaussianBlur stdDeviation="10"/>
<feColorMatrix type="matrix" values="0 0 0 0 0.279167 0 0 0 0 0.279167 0 0 0 0 0.279167 0 0 0 0.25 0"/>
<feBlend mode="normal" in2="BackgroundImageFix" result="effect1_dropShadow_828_3238"/>
<feBlend mode="normal" in="SourceGraphic" in2="effect1_dropShadow_828_3238" result="shape"/>
</filter>
</defs>
</svg>
