<svg width="24" height="24" viewBox="0 0 24 24" fill="none" xmlns="http://www.w3.org/2000/svg">
<g id="Icons 24">
<path id="Vector" d="M15.4003 9.88006L10.8103 5.29006C10.6229 5.10381 10.3695 4.99927 10.1053 4.99927C9.8411 4.99927 9.58765 5.10381 9.40029 5.29006C9.30656 5.38302 9.23217 5.49362 9.1814 5.61548C9.13063 5.73734 9.10449 5.86805 9.10449 6.00006C9.10449 6.13207 9.13063 6.26278 9.1814 6.38464C9.23217 6.5065 9.30656 6.6171 9.40029 6.71006L14.0003 11.2901C14.094 11.383 14.1684 11.4936 14.2192 11.6155C14.27 11.7373 14.2961 11.868 14.2961 12.0001C14.2961 12.1321 14.27 12.2628 14.2192 12.3846C14.1684 12.5065 14.094 12.6171 14.0003 12.7101L9.40029 17.2901C9.21199 17.477 9.10567 17.7312 9.10473 17.9965C9.1038 18.2619 9.20831 18.5168 9.39529 18.7051C9.58227 18.8934 9.83639 18.9997 10.1018 19.0006C10.3671 19.0016 10.622 18.897 10.8103 18.7101L15.4003 14.1201C15.9621 13.5576 16.2777 12.7951 16.2777 12.0001C16.2777 11.2051 15.9621 10.4426 15.4003 9.88006Z" fill="#4E7CD7"/>
</g>
</svg>
