<svg width="24" height="24" viewBox="0 0 24 24" fill="none" xmlns="http://www.w3.org/2000/svg">
<g id="01 align center">
<path id="Vector" d="M4.5 19.5002V22.0002H3C2.73478 22.0002 2.48043 21.8949 2.29289 21.7073C2.10536 21.5198 2 21.2655 2 21.0002V19.5002H4.5ZM6.5 17.5002H0V21.0002C0 21.7959 0.31607 22.5589 0.87868 23.1216C1.44129 23.6842 2.20435 24.0002 3 24.0002H6.5V17.5002Z" fill="white"/>
<path id="Vector_2" d="M21.9999 19.5002V21.0002C21.9999 21.2655 21.8945 21.5198 21.707 21.7073C21.5194 21.8949 21.2651 22.0002 20.9999 22.0002H19.4999V19.5002H21.9999ZM23.9999 17.5002H17.4999V24.0002H20.9999C21.7955 24.0002 22.5586 23.6842 23.1212 23.1216C23.6838 22.5589 23.9999 21.7959 23.9999 21.0002V17.5002Z" fill="white"/>
<path id="Vector_3" d="M4.5 10.7498V13.2497H2V10.7498H4.5ZM6.5 8.74976H0V15.2497H6.5V8.74976Z" fill="white"/>
<path id="Vector_4" d="M21.9999 10.7498V13.2497H19.4999V10.7498H21.9999ZM23.9999 8.74976H17.4999V15.2497H23.9999V8.74976Z" fill="white"/>
<path id="Vector_5" d="M4.5 2V4.5H2V3C2 2.73478 2.10536 2.48043 2.29289 2.29289C2.48043 2.10536 2.73478 2 3 2H4.5ZM6.5 0H3C2.20435 0 1.44129 0.31607 0.87868 0.87868C0.31607 1.44129 0 2.20435 0 3L0 6.5H6.5V0Z" fill="white"/>
<path id="Vector_6" d="M13.2501 19.5002V22.0002H10.7501V19.5002H13.2501ZM15.2501 17.5002H8.75012V24.0002H15.2501V17.5002Z" fill="white"/>
<path id="Vector_7" d="M13.2501 10.7498V13.2497H10.7501V10.7498H13.2501ZM15.2501 8.74976H8.75012V15.2497H15.2501V8.74976Z" fill="white"/>
<path id="Vector_8" d="M13.2501 2V4.5H10.7501V2H13.2501ZM15.2501 0H8.75012V6.5H15.2501V0Z" fill="white"/>
<path id="Vector_9" d="M20.9999 2C21.2651 2 21.5194 2.10536 21.707 2.29289C21.8945 2.48043 21.9999 2.73478 21.9999 3V4.5H19.4999V2H20.9999ZM20.9999 0H17.4999V6.5H23.9999V3C23.9999 2.20435 23.6838 1.44129 23.1212 0.87868C22.5586 0.31607 21.7955 0 20.9999 0V0Z" fill="white"/>
</g>
</svg>
