<svg width="44" height="27" viewBox="0 0 44 27" fill="none" xmlns="http://www.w3.org/2000/svg">
<g id="Vector 1">
<path d="M29.9687 11.9727C30.616 11.069 26.2464 9.44466 23.9807 8.74543C21.3402 7.71699 16.2069 6.67597 12.4904 8.61095C11.4115 7.63381 9.51258 4.74362 10.5483 1H42.7537C43.2392 3.0885 43.3363 8.17189 39.8407 11.7975C40.5426 12.0544 41.2972 11.9727 39.0315 15.684C36.7658 19.3954 33.55 21.1704 33.55 21.1704C33.8946 25.7744 30.9936 25.7606 29.4831 25.0431C28.2963 23.3219 26.2464 19.7181 27.5411 19.0727C28.8358 18.4272 30.6699 21.0628 31.4252 22.4613L33.55 21.1704C33.55 21.1704 36.7658 19.3954 39.0315 15.684C41.2972 11.9727 40.5426 12.0544 39.8407 11.7975C39.517 11.65 38.7601 11.7664 38.2223 11.9727C34.0146 14.8772 30.3463 17.2439 28.674 17.459C26.4622 17.2977 21.7474 16.5554 20.5822 14.8772C19.4169 13.199 20.3124 12.2416 20.9058 11.9727C23.657 12.3492 29.3213 12.8763 29.9687 11.9727Z" fill="white"/>
<path d="M20.9058 24.3976C21.4237 26.5922 19.3954 26.065 18.3165 25.5272C17.6649 24.8913 17.0161 24.3657 16.3744 23.9372C14.3029 20.0835 16.9139 20.4869 18.4783 21.1704C18.4243 20.3006 18.8343 18.7925 20.9058 19.7181C21.3981 20.1908 22.0494 20.8454 22.686 21.5348C22.3624 20.4989 22.2976 18.6208 24.6281 19.3954C25.5991 20.0408 27.7677 22.0417 28.674 24.8817C28.4582 25.5272 27.4116 26.4308 24.9517 24.8817C24.6281 25.8499 23.9807 26.6567 20.9058 24.3976Z" fill="white"/>
<path d="M1 16.1681C2.51047 16.7598 6.34059 16.6199 9.57731 11.3272C10.3386 10.0824 11.3475 9.20598 12.4904 8.61095M33.55 21.1704C33.55 21.1704 36.7658 19.3954 39.0315 15.684C41.2972 11.9727 40.5426 12.0544 39.8407 11.7975M33.55 21.1704L31.4252 22.4613C30.6699 21.0628 28.8358 18.4272 27.5411 19.0727C26.2464 19.7181 28.2963 23.3219 29.4831 25.0431C30.9936 25.7606 33.8946 25.7744 33.55 21.1704ZM4.23672 25.8499C6.16347 23.5445 11.0236 20.3643 16.3744 23.9372M20.9058 24.3976C21.4237 26.5922 19.3954 26.065 18.3165 25.5272C17.6649 24.8913 17.0161 24.3657 16.3744 23.9372M20.9058 24.3976L18.4783 21.1704M20.9058 24.3976C23.9807 26.6567 24.6281 25.8499 24.9517 24.8817M18.4783 21.1704C18.4243 20.3006 18.8343 18.7925 20.9058 19.7181C21.3981 20.1908 22.0494 20.8454 22.686 21.5348M18.4783 21.1704C16.9139 20.4869 14.3029 20.0835 16.3744 23.9372M24.9517 24.8817C25.1232 24.369 23.9328 22.885 22.686 21.5348M24.9517 24.8817C27.4116 26.4308 28.4582 25.5272 28.674 24.8817C27.7677 22.0417 25.5991 20.0408 24.6281 19.3954C22.2976 18.6208 22.3624 20.4989 22.686 21.5348M12.4904 8.61095C16.2069 6.67598 21.3402 7.71699 23.9807 8.74543C26.2464 9.44466 30.616 11.069 29.9687 11.9727C29.3213 12.8763 23.657 12.3492 20.9058 11.9727C20.3124 12.2416 19.4169 13.199 20.5822 14.8772C21.7474 16.5554 26.4622 17.2977 28.674 17.459C30.3463 17.2439 34.0146 14.8772 38.2223 11.9727C38.7601 11.7664 39.517 11.65 39.8407 11.7975M12.4904 8.61095C11.4115 7.63381 9.51258 4.74362 10.5483 1H42.7537C43.2392 3.0885 43.3363 8.17189 39.8407 11.7975M40.375 3.60417C40.453 5.16309 39.3021 8.69974 34.075 10.375" stroke="#3C3C3C"/>
</g>
</svg>
