<svg width="106" height="34" viewBox="0 0 106 34" fill="none" xmlns="http://www.w3.org/2000/svg">
<g id="Group 5">
<circle id="Ellipse 1" cx="17" cy="17" r="17" fill="#8AD74E"/>
<g id="Vector 1">
<path d="M21.5535 17.1447C21.9234 16.6387 19.4265 15.729 18.1318 15.3374C16.623 14.7615 13.6897 14.1785 11.5659 15.2621C10.9494 14.7149 9.86433 13.0964 10.4562 11H28.8593C29.1367 12.1696 29.1922 15.0163 27.1947 17.0466C27.5958 17.1905 28.027 17.1447 26.7323 19.2231C25.4376 21.3014 23.6 22.2954 23.6 22.2954C23.7969 24.8737 22.1392 24.866 21.2761 24.4641C20.5979 23.5002 19.4265 21.4821 20.1664 21.1207C20.9062 20.7592 21.9543 22.2352 22.3858 23.0183L23.6 22.2954C23.6 22.2954 25.4376 21.3014 26.7323 19.2231C28.027 17.1447 27.5958 17.1905 27.1947 17.0466C27.0097 16.964 26.5772 17.0292 26.2699 17.1447C23.8655 18.7712 21.7693 20.0966 20.8137 20.2171C19.5498 20.1267 16.8556 19.711 16.1898 18.7712C15.524 17.8315 16.0357 17.2953 16.3748 17.1447C17.9469 17.3555 21.1836 17.6507 21.5535 17.1447Z" fill="white"/>
<path d="M16.3748 24.1027C16.6707 25.3316 15.5116 25.0364 14.8951 24.7352C14.5228 24.3791 14.1521 24.0848 13.7854 23.8449C12.6017 21.6868 14.0936 21.9127 14.9876 22.2954C14.9568 21.8083 15.191 20.9638 16.3748 21.4821C16.6561 21.7468 17.0283 22.1134 17.392 22.4995C17.2071 21.9194 17.1701 20.8677 18.5018 21.3014C19.0566 21.6629 20.2958 22.7834 20.8137 24.3738C20.6904 24.7352 20.0924 25.2412 18.6867 24.3738C18.5018 24.9159 18.1318 25.3678 16.3748 24.1027Z" fill="white"/>
<path d="M5 19.4941C5.86313 19.8255 8.05177 19.7472 9.90132 16.7833C10.3363 16.0862 10.9128 15.5954 11.5659 15.2621M23.6 22.2954C23.6 22.2954 25.4376 21.3014 26.7323 19.2231C28.027 17.1447 27.5958 17.1905 27.1947 17.0466M23.6 22.2954L22.3858 23.0183C21.9543 22.2352 20.9062 20.7592 20.1664 21.1207C19.4265 21.4821 20.5979 23.5002 21.2761 24.4641C22.1392 24.866 23.7969 24.8737 23.6 22.2954ZM6.84955 24.9159C7.95056 23.6249 10.7278 21.844 13.7854 23.8449M16.3748 24.1027C16.6707 25.3316 15.5116 25.0364 14.8951 24.7352C14.5228 24.3791 14.1521 24.0848 13.7854 23.8449M16.3748 24.1027L14.9876 22.2954M16.3748 24.1027C18.1318 25.3678 18.5018 24.9159 18.6867 24.3738M14.9876 22.2954C14.9568 21.8083 15.191 20.9638 16.3748 21.4821C16.6561 21.7468 17.0283 22.1134 17.392 22.4995M14.9876 22.2954C14.0936 21.9127 12.6017 21.6868 13.7854 23.8449M18.6867 24.3738C18.7847 24.0866 18.1045 23.2556 17.392 22.4995M18.6867 24.3738C20.0924 25.2412 20.6904 24.7352 20.8137 24.3738C20.2958 22.7834 19.0566 21.6629 18.5018 21.3014C17.1701 20.8677 17.2071 21.9194 17.392 22.4995M11.5659 15.2621C13.6897 14.1785 16.623 14.7615 18.1318 15.3374C19.4265 15.729 21.9234 16.6387 21.5535 17.1447C21.1836 17.6507 17.9469 17.3555 16.3748 17.1447C16.0357 17.2953 15.524 17.8315 16.1898 18.7712C16.8556 19.711 19.5498 20.1267 20.8137 20.2171C21.7693 20.0966 23.8655 18.7712 26.2699 17.1447C26.5772 17.0292 27.0097 16.964 27.1947 17.0466M11.5659 15.2621C10.9494 14.7149 9.86433 13.0964 10.4562 11H28.8593C29.1367 12.1696 29.1922 15.0163 27.1947 17.0466M27.5 12.4583C27.5446 13.3313 26.8869 15.3119 23.9 16.25" stroke="#3C3C3C" stroke-width="0.5"/>
</g>
<g id="&#208;&#161;&#209;&#130;&#208;&#190;&#208;&#187;&#208;&#190;&#208;&#178;&#209;&#139;&#208;&#181; &#209;&#128;&#208;&#181;&#209;&#136;&#208;&#181;&#208;&#189;&#208;&#184;&#209;&#143;">
<path d="M44.6315 7.89805H43.5362C43.4714 7.58858 43.3581 7.3167 43.1961 7.08243C43.0372 6.84816 42.8428 6.65148 42.6132 6.49241C42.3865 6.33044 42.1347 6.20897 41.858 6.12798C41.5812 6.047 41.2927 6.00651 40.9924 6.00651C40.4448 6.00651 39.9487 6.14244 39.5041 6.41432C39.0624 6.68619 38.7106 7.08677 38.4486 7.61605C38.1895 8.14534 38.0599 8.79465 38.0599 9.56399C38.0599 10.3333 38.1895 10.9826 38.4486 11.5119C38.7106 12.0412 39.0624 12.4418 39.5041 12.7137C39.9487 12.9855 40.4448 13.1215 40.9924 13.1215C41.2927 13.1215 41.5812 13.081 41.858 13C42.1347 12.919 42.3865 12.799 42.6132 12.6399C42.8428 12.4779 43.0372 12.2798 43.1961 12.0456C43.3581 11.8084 43.4714 11.5365 43.5362 11.2299H44.6315C44.549 11.684 44.3989 12.0904 44.181 12.449C43.9631 12.8077 43.6922 13.1128 43.3684 13.3644C43.0445 13.6132 42.6809 13.8026 42.2775 13.9328C41.8771 14.0629 41.4487 14.128 40.9924 14.128C40.221 14.128 39.535 13.9429 38.9344 13.5727C38.3337 13.2025 37.8612 12.6761 37.5167 11.9935C37.1722 11.3109 37 10.5011 37 9.56399C37 8.6269 37.1722 7.81706 37.5167 7.13449C37.8612 6.45192 38.3337 5.92552 38.9344 5.55531C39.535 5.1851 40.221 5 40.9924 5C41.4487 5 41.8771 5.06508 42.2775 5.19523C42.6809 5.32538 43.0445 5.51627 43.3684 5.7679C43.6922 6.01663 43.9631 6.32032 44.181 6.67896C44.3989 7.03471 44.549 7.44107 44.6315 7.89805Z" fill="#3C3C3C"/>
<path d="M45.9067 6.07592V5.12148H52.6902V6.07592H49.8461V14.0065H48.7508V6.07592H45.9067Z" fill="#3C3C3C"/>
<path d="M61.6355 9.56399C61.6355 10.5011 61.4633 11.3109 61.1188 11.9935C60.7743 12.6761 60.3018 13.2025 59.7012 13.5727C59.1005 13.9429 58.4145 14.128 57.6431 14.128C56.8717 14.128 56.1857 13.9429 55.5851 13.5727C54.9845 13.2025 54.5119 12.6761 54.1675 11.9935C53.823 11.3109 53.6508 10.5011 53.6508 9.56399C53.6508 8.6269 53.823 7.81706 54.1675 7.13449C54.5119 6.45192 54.9845 5.92552 55.5851 5.55531C56.1857 5.1851 56.8717 5 57.6431 5C58.4145 5 59.1005 5.1851 59.7012 5.55531C60.3018 5.92552 60.7743 6.45192 61.1188 7.13449C61.4633 7.81706 61.6355 8.6269 61.6355 9.56399ZM60.5756 9.56399C60.5756 8.79465 60.4446 8.14534 60.1825 7.61605C59.9235 7.08677 59.5716 6.68619 59.127 6.41432C58.6854 6.14244 58.1908 6.00651 57.6431 6.00651C57.0955 6.00651 56.5994 6.14244 56.1548 6.41432C55.7132 6.68619 55.3614 7.08677 55.0993 7.61605C54.8402 8.14534 54.7107 8.79465 54.7107 9.56399C54.7107 10.3333 54.8402 10.9826 55.0993 11.5119C55.3614 12.0412 55.7132 12.4418 56.1548 12.7137C56.5994 12.9855 57.0955 13.1215 57.6431 13.1215C58.1908 13.1215 58.6854 12.9855 59.127 12.7137C59.5716 12.4418 59.9235 12.0412 60.1825 11.5119C60.4446 10.9826 60.5756 10.3333 60.5756 9.56399Z" fill="#3C3C3C"/>
<path d="M62.6999 14.0065V13.0174H62.9648C63.3417 13.0174 63.6347 12.8988 63.8437 12.6616C64.0527 12.4244 64.2029 12.0412 64.2942 11.5119C64.3884 10.9826 64.4517 10.2813 64.4841 9.40781L64.6431 5.12148H70.1547V14.0065H69.0594V6.07592H65.6853L65.544 9.61605C65.5087 10.5474 65.4218 11.3398 65.2834 11.9935C65.1451 12.6471 64.9022 13.1461 64.5547 13.4902C64.2073 13.8344 63.7009 14.0065 63.0355 14.0065H62.6999Z" fill="#3C3C3C"/>
<path d="M79.9744 9.56399C79.9744 10.5011 79.8022 11.3109 79.4577 11.9935C79.1132 12.6761 78.6407 13.2025 78.0401 13.5727C77.4394 13.9429 76.7534 14.128 75.982 14.128C75.2107 14.128 74.5247 13.9429 73.924 13.5727C73.3234 13.2025 72.8509 12.6761 72.5064 11.9935C72.1619 11.3109 71.9897 10.5011 71.9897 9.56399C71.9897 8.6269 72.1619 7.81706 72.5064 7.13449C72.8509 6.45192 73.3234 5.92552 73.924 5.55531C74.5247 5.1851 75.2107 5 75.982 5C76.7534 5 77.4394 5.1851 78.0401 5.55531C78.6407 5.92552 79.1132 6.45192 79.4577 7.13449C79.8022 7.81706 79.9744 8.6269 79.9744 9.56399ZM78.9145 9.56399C78.9145 8.79465 78.7835 8.14534 78.5215 7.61605C78.2624 7.08677 77.9105 6.68619 77.4659 6.41432C77.0243 6.14244 76.5297 6.00651 75.982 6.00651C75.4344 6.00651 74.9383 6.14244 74.4937 6.41432C74.0521 6.68619 73.7003 7.08677 73.4382 7.61605C73.1791 8.14534 73.0496 8.79465 73.0496 9.56399C73.0496 10.3333 73.1791 10.9826 73.4382 11.5119C73.7003 12.0412 74.0521 12.4418 74.4937 12.7137C74.9383 12.9855 75.4344 13.1215 75.982 13.1215C76.5297 13.1215 77.0243 12.9855 77.4659 12.7137C77.9105 12.4418 78.2624 12.0412 78.5215 11.5119C78.7835 10.9826 78.9145 10.3333 78.9145 9.56399Z" fill="#3C3C3C"/>
<path d="M81.8161 14.0065V5.12148H84.9782C85.6082 5.12148 86.1279 5.22849 86.5371 5.44252C86.9464 5.65365 87.2511 5.93854 87.4513 6.29718C87.6515 6.65293 87.7516 7.04772 87.7516 7.48156C87.7516 7.86334 87.6824 8.1786 87.5441 8.42733C87.4086 8.67607 87.229 8.87274 87.0053 9.01735C86.7845 9.16197 86.5445 9.26898 86.2854 9.3384V9.42516C86.5622 9.44252 86.8404 9.53796 87.1201 9.7115C87.3998 9.88503 87.6339 10.1338 87.8223 10.4577C88.0107 10.7816 88.1049 11.1779 88.1049 11.6464C88.1049 12.0918 88.0019 12.4924 87.7958 12.8482C87.5897 13.2039 87.2644 13.4859 86.8198 13.6941C86.3752 13.9024 85.7967 14.0065 85.0842 14.0065H81.8161ZM82.9113 13.0521H85.0842C85.7996 13.0521 86.3075 12.9161 86.6078 12.6443C86.9111 12.3695 87.0627 12.0369 87.0627 11.6464C87.0627 11.3456 86.9847 11.068 86.8286 10.8134C86.6726 10.556 86.4503 10.3507 86.1617 10.1974C85.8732 10.0412 85.5317 9.96312 85.1371 9.96312H82.9113V13.0521ZM82.9113 9.02603H84.9428C85.2726 9.02603 85.57 8.9624 85.8349 8.83514C86.1029 8.70788 86.3148 8.52856 86.4709 8.29718C86.6299 8.0658 86.7094 7.79393 86.7094 7.48156C86.7094 7.09111 86.571 6.75994 86.2942 6.48807C86.0175 6.2133 85.5788 6.07592 84.9782 6.07592H82.9113V9.02603Z" fill="#3C3C3C"/>
<path d="M90.7172 8.85249H93.2964C93.9441 8.85249 94.4902 8.95662 94.9348 9.16486C95.3824 9.3731 95.7209 9.66667 95.9506 10.0456C96.1832 10.4244 96.2995 10.8713 96.2995 11.3861C96.2995 11.9009 96.1832 12.355 95.9506 12.7484C95.7209 13.1417 95.3824 13.4497 94.9348 13.6725C94.4902 13.8952 93.9441 14.0065 93.2964 14.0065H89.9046V5.12148H90.9999V13.0694H93.2964C93.7086 13.0694 94.0574 12.9884 94.343 12.8265C94.6316 12.6616 94.8494 12.4505 94.9967 12.1931C95.1468 11.9328 95.2219 11.658 95.2219 11.3688C95.2219 10.9436 95.0555 10.5777 94.7228 10.2712C94.3901 9.96168 93.9147 9.80694 93.2964 9.80694H90.7172V8.85249ZM98.278 5.12148V14.0065H97.1828V5.12148H98.278Z" fill="#3C3C3C"/>
<path d="M100.471 14.0065V5.12148H105.929V6.07592H101.566V9.07809H105.647V10.0325H101.566V13.0521H106V14.0065H100.471Z" fill="#3C3C3C"/>
<path d="M37.3533 29V20.115H40.4094C41.119 20.115 41.699 20.2408 42.1495 20.4924C42.6029 20.7411 42.9385 21.0781 43.1564 21.5033C43.3743 21.9284 43.4832 22.4027 43.4832 22.9262C43.4832 23.4497 43.3743 23.9255 43.1564 24.3536C42.9415 24.7816 42.6088 25.1229 42.1583 25.3774C41.7078 25.6291 41.1308 25.7549 40.4271 25.7549H38.2366V24.8004H40.3918C40.8776 24.8004 41.2677 24.718 41.5621 24.5531C41.8565 24.3883 42.07 24.1656 42.2025 23.885C42.3379 23.6016 42.4056 23.282 42.4056 22.9262C42.4056 22.5705 42.3379 22.2523 42.2025 21.9718C42.07 21.6913 41.855 21.4714 41.5577 21.3124C41.2603 21.1504 40.8658 21.0694 40.3741 21.0694H38.4486V29H37.3533Z" fill="#3C3C3C"/>
<path d="M45.2475 29V20.115H50.7062V21.0694H46.3428V24.0716H50.4235V25.026H46.3428V28.0456H50.7768V29H45.2475Z" fill="#3C3C3C"/>
<path d="M52.6803 20.115H53.7755V28.0108H56.9553V20.115H58.0505V28.0108H61.2303V20.115H62.3256V29H52.6803V20.115Z" fill="#3C3C3C"/>
<path d="M64.5216 29V20.115H69.9802V21.0694H65.6169V24.0716H69.6976V25.026H65.6169V28.0456H70.0509V29H64.5216Z" fill="#3C3C3C"/>
<path d="M71.9543 29V20.115H73.0496V24.0716H77.8722V20.115H78.9675V29H77.8722V25.026H73.0496V29H71.9543Z" fill="#3C3C3C"/>
<path d="M81.1602 20.115H82.2378V27.1085H82.3261L87.2725 20.115H88.3324V29H87.2371V22.0239H87.1488L82.2201 29H81.1602V20.115Z" fill="#3C3C3C"/>
<path d="M96.6716 29H95.5763V21.0694H93.6508C93.162 21.0694 92.769 21.1432 92.4716 21.2907C92.1742 21.4353 91.9578 21.6406 91.8224 21.9067C91.687 22.1728 91.6193 22.4837 91.6193 22.8395C91.6193 23.1952 91.6855 23.5018 91.818 23.7592C91.9534 24.0137 92.1684 24.2104 92.4628 24.3492C92.7601 24.4881 93.1503 24.5575 93.6331 24.5575H96.0709V25.5293H93.5978C92.897 25.5293 92.3215 25.415 91.871 25.1866C91.4205 24.9552 91.0863 24.637 90.8685 24.2321C90.6506 23.8272 90.5417 23.363 90.5417 22.8395C90.5417 22.316 90.6506 21.8489 90.8685 21.4382C91.0863 21.0275 91.422 20.705 91.8754 20.4707C92.3288 20.2336 92.9088 20.115 93.6154 20.115H96.6716V29ZM92.4142 25.0087H93.6508L91.4603 29H90.1884L92.4142 25.0087Z" fill="#3C3C3C"/>
</g>
</g>
</svg>
