<svg width="24" height="24" viewBox="0 0 24 24" fill="none" xmlns="http://www.w3.org/2000/svg">
<g id="Icons 24" clip-path="url(#clip0_584_239)">
<path id="Vector" d="M14.2002 16.261C11.2887 15.028 8.97343 12.7073 7.7472 9.79297L11.1472 6.38697L4.8872 0.121969L1.7162 3.29197C1.1662 3.84511 0.731342 4.50183 0.436795 5.22412C0.142247 5.94642 -0.00614821 6.71995 0.000195101 7.49997C0.000195101 14.748 9.25219 24 16.5002 24C17.2801 24.0066 18.0536 23.8583 18.7757 23.5637C19.4979 23.2692 20.1544 22.8342 20.7072 22.284L23.8782 19.113L17.6132 12.848L14.2002 16.261ZM19.2942 20.87C18.9264 21.2338 18.4901 21.521 18.0104 21.715C17.5308 21.909 17.0175 22.0058 16.5002 22C10.2672 22 2.0002 13.733 2.0002 7.49997C1.99431 6.9828 2.09116 6.46961 2.28514 5.99016C2.47911 5.51071 2.76635 5.07455 3.1302 4.70697L4.8872 2.94997L8.3242 6.38697L5.38919 9.32197L5.63419 9.93597C6.35544 11.8653 7.48296 13.617 8.94035 15.0725C10.3977 16.528 12.1509 17.6532 14.0812 18.372L14.6872 18.603L17.6132 15.676L21.0502 19.113L19.2942 20.87ZM15.0002 6.52897V1.99997H17.0002V5.61097C17.6612 4.94797 18.4512 4.15297 19.2392 3.36097C20.6052 1.98697 21.9512 0.634969 22.5392 0.0429688L23.9532 1.45697C23.3612 2.04897 22.0172 3.39897 20.6532 4.77097C19.8782 5.55497 19.1002 6.33997 18.4392 6.99997H22.0002V8.99997H17.5002C16.8412 9.00316 16.2078 8.74477 15.7391 8.28151C15.2704 7.81825 15.0047 7.18796 15.0002 6.52897Z" fill="#3C3C3C"/>
</g>
<defs>
<clipPath id="clip0_584_239">
<rect width="24" height="24" fill="white"/>
</clipPath>
</defs>
</svg>
